<?xml version="1.0" encoding="utf-8"?>
<svg version="1.1" id="Layer_1" xmlns="http://www.w3.org/2000/svg" xmlns:xlink="http://www.w3.org/1999/xlink" x="0px" y="0px"
	 viewBox="0 0 800 900" enable-background="new 0 0 800 900" xml:space="preserve">
<ellipse opacity="0.05" fill="#333330" cx="172.466" cy="856.77" rx="45.29" ry="16.026"/>
<linearGradient id="analytics-art-illustration" gradientUnits="userSpaceOnUse" x1="127.7882" y1="533.1939" x2="766.3345" y2="533.1939" gradientTransform="matrix(-1 0 0 1 886.0546 0)">
	<stop  offset="0" style="stop-color:#7E92A2"/>
	<stop  offset="0.9678" style="stop-color:#3163A4"/>
</linearGradient>
<path fill="url(#SVGID_1_)" d="M137.333,555.685l286.439,173.424c11.446,6.93,25.765,7.049,37.324,0.309l279.036-162.681
	c24.311-14.174,24.145-49.356-0.299-63.299L447.702,336.797c-11.219-6.4-24.984-6.4-36.204-0.001L138.155,492.694
	C113.943,506.503,113.49,541.248,137.333,555.685z"/>
<linearGradient id="SVGID_2_" gradientUnits="userSpaceOnUse" x1="127.9705" y1="506.7741" x2="766.5168" y2="506.7741" gradientTransform="matrix(-1 0 0 1 886.0546 0)">
	<stop  offset="0" style="stop-color:#CFDDCF"/>
	<stop  offset="0.9678" style="stop-color:#C4E2FF"/>
</linearGradient>
<path fill="url(#SVGID_2_)" d="M137.151,529.265L423.59,702.689c11.446,6.93,25.765,7.049,37.324,0.31L739.95,540.318
	c24.311-14.174,24.145-49.355-0.299-63.299L447.52,310.377c-11.219-6.4-24.984-6.4-36.204-0.001L137.973,466.274
	C113.761,480.083,113.307,514.829,137.151,529.265z"/>
<linearGradient id="SVGID_3_" gradientUnits="userSpaceOnUse" x1="460.9821" y1="260.2192" x2="503.9653" y2="259.7991" gradientTransform="matrix(-1 0 0 1 886.0546 0)">
	<stop  offset="0" style="stop-color:#2572D1"/>
	<stop  offset="0.9678" style="stop-color:#2AC5FF"/>
</linearGradient>
<polygon fill="url(#SVGID_3_)" points="419.167,404.452 462.152,378.979 462.152,116.291 419.167,141.764 "/>
<linearGradient id="SVGID_4_" gradientUnits="userSpaceOnUse" x1="466.8875" y1="255.5811" x2="525.7933" y2="255.5811" gradientTransform="matrix(-1 5.047178e-05 5.047178e-05 1 886.0412 -0.0107)">
	<stop  offset="0" style="stop-color:#31BBE9"/>
	<stop  offset="0.9678" style="stop-color:#2AC5FF"/>
</linearGradient>
<polygon fill="url(#SVGID_4_)" points="419.174,404.45 360.267,371.02 360.253,106.741 419.161,141.763 "/>
<linearGradient id="SVGID_5_" gradientUnits="userSpaceOnUse" x1="423.9028" y1="111.5152" x2="525.7938" y2="111.5152" gradientTransform="matrix(-1 0 0 1 886.0546 0)">
	<stop  offset="0" style="stop-color:#A2D9E9"/>
	<stop  offset="0.9678" style="stop-color:#2AE7FF"/>
</linearGradient>
<polygon fill="url(#SVGID_5_)" points="419.167,141.764 360.261,106.739 403.246,81.266 462.152,116.291 "/>
<linearGradient id="SVGID_6_" gradientUnits="userSpaceOnUse" x1="307.3723" y1="258.9578" x2="366.1622" y2="258.9578" gradientTransform="matrix(-1 0 0 1 886.0546 0)">
	<stop  offset="0" style="stop-color:#310095"/>
	<stop  offset="0.9678" style="stop-color:#2E2EFF"/>
</linearGradient>
<polygon fill="url(#SVGID_6_)" points="519.892,456.013 578.682,421.174 578.682,61.903 519.892,96.741 "/>
<linearGradient id="SVGID_7_" gradientUnits="userSpaceOnUse" x1="366.1622" y1="252.4256" x2="446.7261" y2="252.4256" gradientTransform="matrix(-1 0 0 1 886.0546 0)">
	<stop  offset="0" style="stop-color:#733FFF"/>
	<stop  offset="0.9678" style="stop-color:#2A7CFF"/>
</linearGradient>
<polygon fill="url(#SVGID_7_)" points="519.892,456.013 439.329,410.287 439.329,48.838 519.892,96.741 "/>
<linearGradient id="SVGID_8_" gradientUnits="userSpaceOnUse" x1="307.3723" y1="55.3706" x2="446.7261" y2="55.3706" gradientTransform="matrix(-1 0 0 1 886.0546 0)">
	<stop  offset="0" style="stop-color:#3F88FF"/>
	<stop  offset="1" style="stop-color:#3F56FF"/>
</linearGradient>
<polygon fill="url(#SVGID_8_)" points="519.892,96.741 439.329,48.838 498.118,14 578.682,61.903 "/>
<linearGradient id="SVGID_9_" gradientUnits="userSpaceOnUse" x1="223.2553" y1="324.7373" x2="276.3792" y2="324.7373" gradientTransform="matrix(-1 0 0 1 886.0546 0)">
	<stop  offset="0" style="stop-color:#8D0080"/>
	<stop  offset="0.9678" style="stop-color:#7F002A"/>
</linearGradient>
<polygon fill="url(#SVGID_9_)" points="609.675,502.8 662.799,471.32 662.799,146.674 609.675,178.155 "/>
<linearGradient id="SVGID_10_" gradientUnits="userSpaceOnUse" x1="276.3792" y1="318.8346" x2="349.1784" y2="318.8346" gradientTransform="matrix(-1 0 0 1 886.0546 0)">
	<stop  offset="0" style="stop-color:#E00080"/>
	<stop  offset="0.9678" style="stop-color:#A41586"/>
</linearGradient>
<polygon fill="url(#SVGID_10_)" points="609.675,502.8 536.876,461.482 536.876,134.869 609.675,178.155 "/>
<linearGradient id="SVGID_11_" gradientUnits="userSpaceOnUse" x1="223.2553" y1="140.7715" x2="349.1784" y2="140.7715" gradientTransform="matrix(-1 0 0 1 886.0546 0)">
	<stop  offset="0" style="stop-color:#E03880"/>
	<stop  offset="0.9678" style="stop-color:#E35C9F"/>
</linearGradient>
<polygon fill="url(#SVGID_11_)" points="609.675,178.155 536.876,134.869 590,103.388 662.799,146.674 "/>
<linearGradient id="SVGID_12_" gradientUnits="userSpaceOnUse" x1="172.1992" y1="415.0186" x2="209.8247" y2="415.0186" gradientTransform="matrix(-1 0 0 1 886.0546 0)">
	<stop  offset="0" style="stop-color:#FFB300"/>
	<stop  offset="1" style="stop-color:#FF7F00"/>
</linearGradient>
<polygon fill="url(#SVGID_12_)" points="676.23,541.134 713.855,518.837 713.855,288.903 676.23,311.2 "/>
<linearGradient id="SVGID_13_" gradientUnits="userSpaceOnUse" x1="209.8247" y1="410.838" x2="261.3856" y2="410.838" gradientTransform="matrix(-1 0 0 1 886.0546 0)">
	<stop  offset="0" style="stop-color:#FFA400"/>
	<stop  offset="1" style="stop-color:#FFC700"/>
</linearGradient>
<polygon fill="url(#SVGID_13_)" points="676.23,541.134 624.669,511.869 624.669,280.542 676.23,311.2 "/>
<linearGradient id="SVGID_14_" gradientUnits="userSpaceOnUse" x1="172.1992" y1="284.7228" x2="261.3856" y2="284.7228" gradientTransform="matrix(-1 0 0 1 886.0546 0)">
	<stop  offset="0" style="stop-color:#FFDC00"/>
	<stop  offset="1" style="stop-color:#FFEA00"/>
</linearGradient>
<polygon fill="url(#SVGID_14_)" points="676.23,311.2 624.669,280.542 662.295,258.246 713.855,288.903 "/>
<linearGradient id="SVGID_15_" gradientUnits="userSpaceOnUse" x1="291.6706" y1="502.4298" x2="613.9506" y2="502.4298" gradientTransform="matrix(-1 0 0 1 886.0546 0)">
	<stop  offset="0" style="stop-color:#390075"/>
	<stop  offset="0.9678" style="stop-color:#4D009A"/>
</linearGradient>
<polygon fill="url(#SVGID_15_)" points="564.747,595.482 272.104,424.077 299.518,409.378 594.384,581.185 "/>
<polygon fill="#FFFFFF" points="134.144,529.985 366.865,667.946 548.046,565.365 315.304,429.651 "/>
<linearGradient id="SVGID_16_" gradientUnits="userSpaceOnUse" x1="622.5477" y1="641.2887" x2="698.9378" y2="855.205" gradientTransform="matrix(-1 0 0 1 886.0546 0)">
	<stop  offset="0" style="stop-color:#F8F3F7"/>
	<stop  offset="1" style="stop-color:#FFFFFF"/>
</linearGradient>
<polygon fill="url(#SVGID_16_)" points="362.684,825.415 141.111,686.062 138.324,529.985 365.471,666.552 "/>
<linearGradient id="SVGID_17_" gradientUnits="userSpaceOnUse" x1="524.7642" y1="786.4478" x2="857.8196" y2="786.4478" gradientTransform="matrix(-1 0 0 1 886.0546 0)">
	<stop  offset="0" style="stop-color:#E6E6E6"/>
	<stop  offset="1" style="stop-color:#F8F3F7"/>
</linearGradient>
<polygon fill="url(#SVGID_17_)" points="28.235,741.803 241.219,886.834 361.29,825.415 141.111,686.062 "/>
<linearGradient id="SVGID_18_" gradientUnits="userSpaceOnUse" x1="552.6349" y1="719.5065" x2="576.3251" y2="719.5065" gradientTransform="matrix(-1 0 0 1 886.0546 0)">
	<stop  offset="0" style="stop-color:#E00080"/>
	<stop  offset="0.9678" style="stop-color:#A41586"/>
</linearGradient>
<path fill="url(#SVGID_18_)" d="M309.73,716.719c0,17.317,4.846,36.232,12.542,36.232s11.148-18.219,11.148-35.535
	c0-17.317-3.452-31.355-11.148-31.355S309.73,699.403,309.73,716.719z"/>
<linearGradient id="SVGID_19_" gradientUnits="userSpaceOnUse" x1="781.3092" y1="655.5889" x2="814.8598" y2="655.5889" gradientTransform="matrix(-0.6223 0 0 1.0124 777.8304 -0.4366)">
	<stop  offset="0" style="stop-color:#E00080"/>
	<stop  offset="0.9678" style="stop-color:#A41586"/>
</linearGradient>
<polygon fill="url(#SVGID_19_)" points="270.71,674.913 291.59,687.857 291.59,651.223 270.71,638.681 "/>
<linearGradient id="SVGID_20_" gradientUnits="userSpaceOnUse" x1="789.4451" y1="714.2819" x2="823.8166" y2="714.2819" gradientTransform="matrix(-0.6223 0 0 1.0124 777.8304 -0.4366)">
	<stop  offset="0" style="stop-color:#E00080"/>
	<stop  offset="0.9678" style="stop-color:#A41586"/>
</linearGradient>
<polygon fill="url(#SVGID_20_)" points="265.136,734.333 286.527,747.276 286.527,710.643 265.136,698.101 "/>
<linearGradient id="SVGID_21_" gradientUnits="userSpaceOnUse" x1="652.4704" y1="663.2657" x2="679.4468" y2="663.2657" gradientTransform="matrix(-1 0 0 1 886.0546 0)">
	<stop  offset="0" style="stop-color:#FFA400"/>
	<stop  offset="1" style="stop-color:#FFC700"/>
</linearGradient>
<path fill="url(#SVGID_21_)" d="M206.608,659.591c0,22.83,5.518,47.768,14.282,47.768c8.764,0,12.695-24.019,12.695-46.85
	s-3.931-41.338-12.695-41.338C212.125,619.172,206.608,636.761,206.608,659.591z"/>
<polygon opacity="0.82" fill="#333330" points="408.671,589.908 265.136,503.508 274.891,497.934 418.425,584.333 "/>
<polygon opacity="0.82" fill="#333330" points="280.465,815.661 145.292,729.261 155.047,725.081 291.811,811.184 "/>
<polygon opacity="0.6" fill="#333330" points="242.746,831.236 107.573,744.837 117.328,740.656 254.092,826.76 "/>
<polygon fill="#A6A6A6" points="365.981,617.433 230.808,531.033 240.563,526.853 377.327,612.956 "/>
<linearGradient id="SVGID_22_" gradientUnits="userSpaceOnUse" x1="447.6697" y1="518.6616" x2="600.9589" y2="518.6616" gradientTransform="matrix(-1 0 0 1 886.0546 0)">
	<stop  offset="0" style="stop-color:#733FFF"/>
	<stop  offset="0.9678" style="stop-color:#2A7CFF"/>
</linearGradient>
<polygon fill="url(#SVGID_22_)" points="428.63,564.648 285.096,478.249 294.851,472.675 438.385,559.074 "/>
<linearGradient id="SVGID_23_" gradientUnits="userSpaceOnUse" x1="744.9966" y1="777.7107" x2="726.3483" y2="820.4031" gradientTransform="matrix(-1 0 0 1 886.0546 0)">
	<stop  offset="0" style="stop-color:#FFAF99"/>
	<stop  offset="0.4586" style="stop-color:#FFD9AA"/>
</linearGradient>
<polyline fill="url(#SVGID_23_)" points="173.631,771.232 166.617,847.169 156.878,847.169 151.427,767.531 145.819,778.429 
	139.175,836.434 127.483,834.598 129.631,756.985 162.676,760.5 174.07,765.322 173.631,771.232 "/>
<linearGradient id="SVGID_24_" gradientUnits="userSpaceOnUse" x1="709.3166" y1="742.3207" x2="763.0607" y2="742.3207" gradientTransform="matrix(-1 0 0 1 886.0546 0)">
	<stop  offset="0" style="stop-color:#3F88FF"/>
	<stop  offset="1" style="stop-color:#3F56FF"/>
</linearGradient>
<path fill="url(#SVGID_24_)" d="M176.738,717.684l-1.406,51.233c-37.967,24.357-52.338-9.807-52.338-9.807l6.704-52.145
	C142.287,718.524,176.738,717.684,176.738,717.684z"/>
<linearGradient id="SVGID_25_" gradientUnits="userSpaceOnUse" x1="690.8605" y1="854.1066" x2="731.8156" y2="854.1066" gradientTransform="matrix(-1 0 0 1 886.0546 0)">
	<stop  offset="0" style="stop-color:#CFDDCF"/>
	<stop  offset="0.9678" style="stop-color:#C4E2FF"/>
</linearGradient>
<path fill="url(#SVGID_25_)" d="M154.239,836.434c2.812,7.031,15.23,0,15.23,0v16.049c8.675,5.747,17.815,5.747,17.815,5.747
	c12.656,4.219,6.328,9.843,6.328,9.843c-21.796,9.14-39.373-1.506-39.373-1.506V836.434z"/>
<linearGradient id="SVGID_26_" gradientUnits="userSpaceOnUse" x1="729.1762" y1="839.9254" x2="759.2828" y2="839.9254" gradientTransform="matrix(-1 0 0 1 886.0546 0)">
	<stop  offset="0" style="stop-color:#CFDDCF"/>
	<stop  offset="0.9678" style="stop-color:#C4E2FF"/>
</linearGradient>
<path fill="url(#SVGID_26_)" d="M142.287,825.644c-9.14,10.79-14.006,0-14.006,0l-1.462,16.415
	c-0.703,14.062,6.776,12.048,6.776,12.048c15.02,0.608,22.754-11.345,22.754-11.345c2.812-7.734-6.482-7.551-6.482-7.551
	c-8.986,1.927-7.579,1.223-7.579,1.223V825.644z"/>
<linearGradient id="SVGID_27_" gradientUnits="userSpaceOnUse" x1="-113.1548" y1="999.8061" x2="-126.4783" y2="1008.2086" gradientTransform="matrix(-1.5204 0.8183 0.531 0.8672 -542.6613 -237.589)">
	<stop  offset="0" style="stop-color:#75564A"/>
	<stop  offset="0.7109" style="stop-color:#161434"/>
	<stop  offset="1" style="stop-color:#000C2A"/>
</linearGradient>
<path fill="url(#SVGID_27_)" d="M169.44,547.615l6.483-3.559l-8.321-13.732c-3.286-5.411-10.457-7.348-16.004-4.307l-6.499,3.517
	l8.321,13.732C156.722,548.719,163.894,550.655,169.44,547.615z"/>
<g>
	<defs>
		<polygon id="SVGID_28_" points="211.093,485.392 46.799,542.617 89.694,650.868 253.988,593.644 		"/>
	</defs>
	<clipPath id="SVGID_29_">
		<use xlink:href="#SVGID_28_"  overflow="visible"/>
	</clipPath>
	<g clip-path="url(#SVGID_29_)">
		<g>
			<g>
				<g>
					<defs>
						<polygon id="SVGID_30_" points="227.597,464.977 51.876,526.182 101.757,652.064 277.478,590.86 						"/>
					</defs>
					<clipPath id="SVGID_31_">
						<use xlink:href="#SVGID_30_"  overflow="visible"/>
					</clipPath>
					
						<linearGradient id="SVGID_32_" gradientUnits="userSpaceOnUse" x1="-793.7798" y1="774.1092" x2="-802.5427" y2="737.3138" gradientTransform="matrix(-0.9998 0.3483 0.3714 0.9374 -937.105 152.3257)">
						<stop  offset="0" style="stop-color:#FFC6A2"/>
						<stop  offset="0.453" style="stop-color:#FF7757"/>
					</linearGradient>
					<polygon clip-path="url(#SVGID_31_)" fill="url(#SVGID_32_)" points="131.075,606.463 158.373,596.955 147.781,570.223 
						126.636,581.903 					"/>
				</g>
			</g>
		</g>
	</g>
	<g clip-path="url(#SVGID_29_)">
		<g>
		</g>
	</g>
	<g clip-path="url(#SVGID_29_)">
		<g>
			<g>
				<defs>
					<polygon id="SVGID_33_" points="261.817,568.02 159.667,473.88 28.257,599.22 130.408,693.359 					"/>
				</defs>
				<clipPath id="SVGID_34_">
					<use xlink:href="#SVGID_33_"  overflow="visible"/>
				</clipPath>
			</g>
		</g>
	</g>
	<g clip-path="url(#SVGID_29_)">
	</g>
</g>
<linearGradient id="SVGID_35_" gradientUnits="userSpaceOnUse" x1="1183.8209" y1="724.9476" x2="1190.3512" y2="747.9698" gradientTransform="matrix(0.9998 -0.3483 0.3714 0.9374 -1311.1527 282.6088)">
	<stop  offset="0" style="stop-color:#75564A"/>
	<stop  offset="0.7109" style="stop-color:#161434"/>
	<stop  offset="1" style="stop-color:#000C2A"/>
</linearGradient>
<path fill="url(#SVGID_35_)" d="M172.125,537.661l-66.654,23.216l-3.895-9.83c-4.608-11.628,1.711-24.557,14.114-28.877
	l21.739-7.572c12.403-4.32,26.193,1.605,30.801,13.233L172.125,537.661z"/>
<linearGradient id="SVGID_36_" gradientUnits="userSpaceOnUse" x1="-922.5413" y1="486.7176" x2="-910.3121" y2="486.7176" gradientTransform="matrix(-1.0501 0.1753 0.1869 0.9846 -883.8542 234.0101)">
	<stop  offset="0" style="stop-color:#FFAF99"/>
	<stop  offset="0.8105" style="stop-color:#FFD9AA"/>
</linearGradient>
<path fill="url(#SVGID_36_)" d="M171.426,558.747l4.328-3.293c0.818-0.63,0.886-1.617,0.129-2.225l-9.011-7.156l0,0
	c-4.767,3.622-5.102,9.347-0.776,12.796l0,0C167.499,559.969,169.879,559.908,171.426,558.747z"/>
<linearGradient id="SVGID_37_" gradientUnits="userSpaceOnUse" x1="-809.6981" y1="755.1595" x2="-814.7606" y2="712.9791" gradientTransform="matrix(-0.9998 0.3483 0.3714 0.9374 -937.105 152.3257)">
	<stop  offset="0" style="stop-color:#FFAF99"/>
	<stop  offset="0.4586" style="stop-color:#FFD9AA"/>
</linearGradient>
<path fill="url(#SVGID_37_)" d="M122.554,538.333l8.161-2.842l-2.078-5.245c25.677,0.212,43.597,11.65,43.601,33.453l1.995,7.958
	c0.009,4.162-3.07,5.575-8.124,6.03l-8.417-0.624c-23.491,2.079-35.144-8.977-35.14-28.325L122.554,538.333z"/>
<linearGradient id="SVGID_38_" gradientUnits="userSpaceOnUse" x1="-810.3559" y1="708.3284" x2="-808.1855" y2="715.98" gradientTransform="matrix(-0.9998 0.3483 0.3714 0.9374 -937.105 152.3257)">
	<stop  offset="0" style="stop-color:#000000"/>
	<stop  offset="0.9678" style="stop-color:#000000"/>
</linearGradient>
<path opacity="0.47" fill="url(#SVGID_38_)" enable-background="new    " d="M161.433,526.644
	c7.233,16.853-37.36,13.107-40.143,12.601c-11.619-2.201-11.493-5.95-11.493-5.95l48.012-9.627L161.433,526.644z"/>
<linearGradient id="SVGID_39_" gradientUnits="userSpaceOnUse" x1="-785.4965" y1="238.4162" x2="-774.8447" y2="230.2256" gradientTransform="matrix(-1.0652 0.0503 0.0537 0.9987 -695.2738 367.4811)">
	<stop  offset="0" style="stop-color:#FF726A;stop-opacity:0.4"/>
	<stop  offset="0.1881" style="stop-color:#F9504B;stop-opacity:0.4"/>
	<stop  offset="0.42" style="stop-color:#F22E2A;stop-opacity:0.4"/>
	<stop  offset="0.6393" style="stop-color:#EE1413;stop-opacity:0.4"/>
	<stop  offset="0.8386" style="stop-color:#EB0505;stop-opacity:0.4"/>
	<stop  offset="1" style="stop-color:#EA0000;stop-opacity:0.4"/>
</linearGradient>
<path fill="url(#SVGID_39_)" d="M142.4,563.34c0.214,4.025,3.602,7.116,7.554,6.927s6.975-3.594,6.768-7.6
	c-0.214-4.025-3.602-7.116-7.554-6.927C145.217,555.93,142.193,559.335,142.4,563.34z"/>
<linearGradient id="SVGID_40_" gradientUnits="userSpaceOnUse" x1="-770.0328" y1="230.7274" x2="-757.227" y2="230.7274" gradientTransform="matrix(-1.0652 0.0503 0.0537 0.9987 -695.2738 367.4811)">
	<stop  offset="0" style="stop-color:#FFAF99"/>
	<stop  offset="0.453" style="stop-color:#FFD9AA"/>
</linearGradient>
<path fill="url(#SVGID_40_)" d="M130.986,567.123l6.78-0.312l-0.614-11.48c-0.112-2.14-2.048-3.774-4.331-3.67l0,0
	c-5.26,0.257-9.306,4.449-9.039,9.362l0,0C123.966,564.563,127.191,567.301,130.986,567.123z"/>
<linearGradient id="SVGID_41_" gradientUnits="userSpaceOnUse" x1="-979.3676" y1="337.221" x2="-964.4031" y2="337.221" gradientTransform="matrix(-0.8554 0.2241 0.2768 0.9284 -765.8023 455.2239)">
	<stop  offset="0" style="stop-color:#000000"/>
	<stop  offset="1" style="stop-color:#000C2A"/>
</linearGradient>
<path fill="url(#SVGID_41_)" d="M162.676,553.539l3.505-1.609l-0.922-1.34c-0.917-3.068-4.299-4.867-7.571-4.008l-6.403,1.669l0,0
	c1.079,3.594,5.809,6.24,10.197,5.639C161.895,553.833,162.307,553.711,162.676,553.539z"/>
<linearGradient id="SVGID_42_" gradientUnits="userSpaceOnUse" x1="-794.7086" y1="223.6003" x2="-784.8004" y2="223.6003" gradientTransform="matrix(-1.0652 0.0503 0.0537 0.9987 -695.2738 367.4811)">
	<stop  offset="0" style="stop-color:#FFFFFF"/>
	<stop  offset="0" style="stop-color:#FFFFFF"/>
</linearGradient>
<path fill="url(#SVGID_42_)" d="M161.053,548.107c0.566-0.024,1.074,0.446,1.221,1.107l0,0l0.551,2.785
	c0.06,0.324,0.715,0.528,0.48,0.631l-0.365,0.3c-0.557,0.453-1.25,0.737-2.007,0.742c-2.866,0.027-7.465-1.823-8.378-5.172
	L161.053,548.107z"/>
<linearGradient id="SVGID_43_" gradientUnits="userSpaceOnUse" x1="-792.8881" y1="226.1128" x2="-793.5001" y2="221.0134" gradientTransform="matrix(-1.0652 0.0503 0.0537 0.9987 -695.2738 367.4811)">
	<stop  offset="0" style="stop-color:#7E8B55"/>
	<stop  offset="1" style="stop-color:#000000"/>
</linearGradient>
<path fill="url(#SVGID_43_)" d="M162.006,553.708L162.006,553.708c1.424-0.065,2.524-1.181,2.462-2.497l-0.06-1.08
	c-0.031-0.485-0.101-0.893-0.288-1.367c-0.428-1.081-1.123-1.615-2.156-1.665l0,0l0,0c-1.819,0.288-3.235,1.882-3.16,3.582
	l0.014,0.384C158.93,552.622,160.357,553.786,162.006,553.708z"/>
<linearGradient id="SVGID_44_" gradientUnits="userSpaceOnUse" x1="-699.2432" y1="1255.4905" x2="-698.6442" y2="1246.4946" gradientTransform="matrix(-0.8121 0.6482 0.9111 1.0033 -1566.0603 -249.9019)">
	<stop  offset="0" style="stop-color:#75564A"/>
	<stop  offset="0.7109" style="stop-color:#161434"/>
	<stop  offset="1" style="stop-color:#000C2A"/>
</linearGradient>
<path fill="url(#SVGID_44_)" d="M147.594,568.714L147.594,568.714c6.063-4.719,6.882-12.902,1.85-18.308l-5.462-5.872l-10.955,8.539
	L147.594,568.714z"/>
<linearGradient id="SVGID_45_" gradientUnits="userSpaceOnUse" x1="965.4044" y1="615.0934" x2="966.8829" y2="592.8846" gradientTransform="matrix(1.5036 -0.1585 0.1569 1.308 -1425.7721 -47.0486)">
	<stop  offset="0" style="stop-color:#75564A"/>
	<stop  offset="0.7109" style="stop-color:#161434"/>
	<stop  offset="1" style="stop-color:#000C2A"/>
</linearGradient>
<path fill="url(#SVGID_45_)" d="M138.322,604.196l-14.753,1.556c-7.538,0.795-14.336-4.29-15.183-11.357l-3.869-32.255l14.753-1.556
	c7.538-0.795,14.336,4.29,15.183,11.357L138.322,604.196z"/>
<linearGradient id="SVGID_46_" gradientUnits="userSpaceOnUse" x1="936.4216" y1="1006.8149" x2="917.291" y2="963.8849" gradientTransform="matrix(0.7277 -0.7311 0.7798 0.6823 -1325.3414 565.9927)">
	<stop  offset="0" style="stop-color:#75564A"/>
	<stop  offset="1" style="stop-color:#000C2A"/>
</linearGradient>
<path fill="url(#SVGID_46_)" d="M162.051,593.557l-0.046,0.047c-5.35,5.375-14.334,5.665-20.066,0.65l-35.091-30.703
	c-7.505-6.566-7.911-17.593-0.907-24.629l6.724-6.755l48.694,42.606C167.083,579.78,167.393,588.19,162.051,593.557z"/>
<linearGradient id="SVGID_47_" gradientUnits="userSpaceOnUse" x1="487.6789" y1="-252.9574" x2="488.3624" y2="-263.225" gradientTransform="matrix(-3.2083 -0.2175 -1.2138 3.231 1370.8629 1472.6542)">
	<stop  offset="0" style="stop-color:#75564A"/>
	<stop  offset="0.7109" style="stop-color:#161434"/>
	<stop  offset="1" style="stop-color:#000C2A"/>
</linearGradient>
<path fill="url(#SVGID_47_)" d="M117.472,577.17l0.806,0.013l21.618-57.51l-11.975-0.823c-11.962-0.823-23.342,6.278-27.406,17.101
	l-2.664,7.093C91.243,560.722,100.005,575.997,117.472,577.17z"/>
<linearGradient id="SVGID_48_" gradientUnits="userSpaceOnUse" x1="-789.7895" y1="219.4419" x2="-790.0875" y2="216.9589" gradientTransform="matrix(-1.0652 0.0503 0.0537 0.9987 -695.2738 367.4811)">
	<stop  offset="0" style="stop-color:#4A254A"/>
	<stop  offset="0.7109" style="stop-color:#161434"/>
	<stop  offset="1" style="stop-color:#000C2A"/>
</linearGradient>
<path fill="url(#SVGID_48_)" d="M152.435,546.686l11.073-0.513l0,0c-0.072-1.226-1.192-2.195-2.5-2.128l-8.694,0.418
	L152.435,546.686z"/>
<linearGradient id="SVGID_49_" gradientUnits="userSpaceOnUse" x1="1191.7001" y1="713.7625" x2="1188.6029" y2="686.5709" gradientTransform="matrix(0.9998 -0.3483 0.3714 0.9374 -1311.1527 282.6088)">
	<stop  offset="0" style="stop-color:#75564A"/>
	<stop  offset="0.7109" style="stop-color:#161434"/>
	<stop  offset="1" style="stop-color:#000C2A"/>
</linearGradient>
<path fill="url(#SVGID_49_)" d="M132.672,556.144l26.707-9.302c5.497-1.915,8.297-7.644,6.255-12.798l-4.466-11.271
	c-3.241-8.179-12.941-12.347-21.665-9.308l-17.077,5.948c-2.091,0.728-3.157,2.908-2.38,4.869L132.672,556.144z"/>
<linearGradient id="SVGID_50_" gradientUnits="userSpaceOnUse" x1="668.2986" y1="655.2087" x2="772.8139" y2="655.2087" gradientTransform="matrix(-1 0 0 1 886.0546 0)">
	<stop  offset="0" style="stop-color:#007274"/>
	<stop  offset="0.9678" style="stop-color:#2AC5FF"/>
</linearGradient>
<path fill="url(#SVGID_50_)" d="M208.001,592.695l9.755,16.722l-19.51,20.903c-26.052,20.903-19.51,15.329-19.51,15.329
	l13.498,74.033c-70.43,13.76-78.994-16.196-78.994-16.196l17.848-78.609c-2.771-14.067,0-29.895,0-29.895
	c21.652,6.073,35.754-7.862,35.754-7.862l13.136,24.333L208.001,592.695z"/>
<linearGradient id="SVGID_51_" gradientUnits="userSpaceOnUse" x1="705.1226" y1="631.5822" x2="729.3221" y2="631.5822" gradientTransform="matrix(-1 0 0 1 886.0546 0)">
	<stop  offset="0" style="stop-color:#000E3F"/>
	<stop  offset="0.9678" style="stop-color:#2A90FF"/>
</linearGradient>
<path fill="url(#SVGID_51_)" d="M167.1,623.517c6.062,16.558,11.637,22.132,11.637,22.132l2.195,12.039
	c-21.705-19.007-24.199-34.832-24.199-34.832l9.57-10.827l9.648-6.553l4.03,5.978C164.802,614.991,167.1,623.517,167.1,623.517z"/>
<linearGradient id="SVGID_52_" gradientUnits="userSpaceOnUse" x1="698.3929" y1="565.1887" x2="558.7511" y2="477.314" gradientTransform="matrix(-1 0 0 1 886.0546 0)">
	<stop  offset="0" style="stop-color:#310095"/>
	<stop  offset="0.9678" style="stop-color:#2E2EFF"/>
</linearGradient>
<path fill="url(#SVGID_52_)" d="M297.881,478.499l-10.448,26.15l-130.7,118.207c-21.195,4.677-23.33-17.023-23.33-17.023
	c-2.046-8.958,16.991-22.666,16.991-22.666l109.169-101.429l32.409-9.702C295.869,470.869,299.391,474.721,297.881,478.499z"/>
<linearGradient id="SVGID_53_" gradientUnits="userSpaceOnUse" x1="655.5397" y1="578.7941" x2="688.1635" y2="555.2504" gradientTransform="matrix(-1 0 0 1 886.0546 0)">
	<stop  offset="0" style="stop-color:#FFAF99"/>
	<stop  offset="0.4586" style="stop-color:#FFD9AA"/>
</linearGradient>
<path fill="url(#SVGID_53_)" d="M228.498,557.856l-5.53,47.977l-9.418,6.196c-3.166-5.014-5.504-10.436-6.647-16.071
	c-0.09-0.443-0.203-0.86-0.323-1.27l0.983-0.6l11.456-40.112c-5.442-11.449,1.849-14.028,1.849-14.028l2.496,4.587v-10.227
	l3.921-0.801c4.289-0.876,8.134,2.746,7.573,7.087C232.888,555.81,228.498,557.856,228.498,557.856z"/>
<linearGradient id="SVGID_54_" gradientUnits="userSpaceOnUse" x1="680.3027" y1="539.7649" x2="698.2051" y2="539.7649" gradientTransform="matrix(-1 0 0 1 886.0546 0)">
	<stop  offset="0" style="stop-color:#FFAF99"/>
	<stop  offset="0.4586" style="stop-color:#FFD9AA"/>
</linearGradient>
<polygon fill="url(#SVGID_54_)" points="205.752,533.033 199.64,531.379 187.85,548.151 "/>
</svg>
