<?xml version="1.0" encoding="utf-8"?>
<!-- Generator: Adobe Illustrator 25.2.0, SVG Export Plug-In . SVG Version: 6.00 Build 0)  -->
<svg version="1.1" xmlns="http://www.w3.org/2000/svg" xmlns:xlink="http://www.w3.org/1999/xlink" x="0px" y="0px"
	 viewBox="0 0 1200 900" enable-background="new 0 0 1200 900" xml:space="preserve">
<g id="location-art-illustration">
	<linearGradient id="SVGID_1_" gradientUnits="userSpaceOnUse" x1="44.3532" y1="553.9442" x2="1136.8065" y2="553.9442">
		<stop  offset="0" style="stop-color:#7E92A2"/>
		<stop  offset="0.9678" style="stop-color:#3163A4"/>
	</linearGradient>
	<path fill="url(#SVGID_1_)" d="M44.353,466.485v23.646c0,8.246,4.401,15.864,11.544,19.984l663.465,382.663
		c7.127,4.11,15.903,4.115,23.034,0.011l382.848-220.333c8.026-4.619,12.513-13.591,11.393-22.784l-3.857-31.673
		c-0.874-7.176-5.06-13.527-11.31-17.159L457.705,215.148c-7.324-4.256-16.391-4.155-23.619,0.261L55.395,446.799
		C48.536,450.989,44.353,458.447,44.353,466.485z"/>
	<linearGradient id="SVGID_2_" gradientUnits="userSpaceOnUse" x1="44.3532" y1="529.2402" x2="1131.3931" y2="529.2402">
		<stop  offset="0" style="stop-color:#CFDDCF"/>
		<stop  offset="0.9678" style="stop-color:#C4E2FF"/>
	</linearGradient>
	<path fill="url(#SVGID_2_)" d="M460.214,206.533l664.131,387.5c9.343,5.451,9.411,18.928,0.123,24.473L733.597,851.874
		c-4.432,2.646-9.951,2.681-14.416,0.09L51.431,464.493c-9.391-5.449-9.448-18.991-0.104-24.519l394.49-233.397
		C450.253,203.953,455.762,203.936,460.214,206.533z"/>
	<linearGradient id="SVGID_3_" gradientUnits="userSpaceOnUse" x1="100.4973" y1="520.0917" x2="1056.8705" y2="520.0917">
		<stop  offset="0" style="stop-color:#00AEE9"/>
		<stop  offset="0.9678" style="stop-color:#007CCC"/>
	</linearGradient>
	<path fill="url(#SVGID_3_)" d="M464.849,239.29l588.577,341.44c4.566,2.649,4.599,9.231,0.06,11.925L702.744,800.858
		c-2.149,1.276-4.819,1.292-6.984,0.043L103.956,459.476c-4.589-2.648-4.617-9.261-0.05-11.947l353.969-208.217
		C460.025,238.046,462.69,238.038,464.849,239.29z"/>
</g>
<g id="Layer_7">
	<polygon fill="#FFFFFF" points="232.261,372.025 346.56,471.846 524.576,445.227 574.487,481.828 611.089,538.394 611.089,625.208 
		677.637,676.482 794.096,683.137 844.007,716.411 855.016,710.469 799.087,669.827 687.619,664.836 617.744,616.588 
		617.744,536.731 578.684,476.811 526.24,436.908 348.224,461.864 239.539,367.744 	"/>
	<polygon fill="#FFFFFF" points="725.884,391.988 694.274,426.926 739.194,485.156 704.256,516.766 739.194,584.978 
		658.258,644.563 644.929,649.747 578.684,675.512 537.705,709.715 546.426,714.747 584.47,678.146 672.646,639.88 744.185,589.969 
		714.081,520.092 747.513,486.819 704.256,428.59 	"/>
	<polyline fill="#FFFFFF" points="341.569,466.855 419.235,560.022 587.727,622.71 749.176,772.977 755.831,769.649 
		590.597,618.252 422.563,553.368 346.032,466.855 343.232,466.855 	"/>
	<polygon fill="#FFFFFF" points="519.768,404.687 423.09,450.218 434.736,533.403 519.768,597.792 522.912,591.633 448.046,531.74 
		433.479,454.733 525.094,407.777 	"/>
	<polygon fill="#FFFFFF" points="525.094,407.777 542.877,389.408 456.364,318.785 532.743,387.521 519.768,404.687 511.6,408.534 	
		"/>
</g>
<g id="Layer_17">
	<polyline fill="#FFCE00" points="464.683,345.405 521.564,377.46 531.43,389.259 514.326,407.25 433.007,443.892 428.081,453.545 
		446.382,453.545 470.034,453.383 502.948,445.227 525.094,441.643 565.088,474.935 622.126,542.077 609.857,617.977 
		620.617,630.385 642.609,649.493 622.735,658.182 639.372,667.024 643.631,664.836 650.096,651.614 617.744,617.505 
		619.407,581.651 577.815,478.969 531.231,436.908 468.01,446.891 443.055,446.891 480.858,430.449 520.357,410.204 
		542.877,389.408 485.92,341.586 466.347,342.077 458,330 	"/>
</g>
<g id="Layer_10" opacity="0.4">
	<linearGradient id="SVGID_4_" gradientUnits="userSpaceOnUse" x1="175.8849" y1="407.2499" x2="446.3821" y2="407.2499">
		<stop  offset="0" style="stop-color:#A2D9E9"/>
		<stop  offset="0.9678" style="stop-color:#2AC5FF"/>
	</linearGradient>
	<polygon fill="url(#SVGID_4_)" points="387.004,356.389 293.655,568.918 175.885,500.973 209.565,385.376 446.382,245.582 	"/>
	<linearGradient id="SVGID_5_" gradientUnits="userSpaceOnUse" x1="344.7949" y1="460.8796" x2="622.1256" y2="460.8796">
		<stop  offset="0" style="stop-color:#A2D9E9"/>
		<stop  offset="0.9678" style="stop-color:#2AC5FF"/>
	</linearGradient>
	<polygon fill="url(#SVGID_5_)" points="435.307,404.687 344.795,598.421 447.85,657.876 622.126,330.528 506.275,263.883 	"/>
	<linearGradient id="SVGID_6_" gradientUnits="userSpaceOnUse" x1="572.8236" y1="605.2368" x2="933.8475" y2="605.2368">
		<stop  offset="0" style="stop-color:#A2D9E9"/>
		<stop  offset="0.9678" style="stop-color:#2AC5FF"/>
	</linearGradient>
	<path fill="url(#SVGID_6_)" d="M755.831,408.625L572.824,729.72l114.796,66.548c7.303,4.503,11.699,8.085,18.301,3.327
		l116.459-69.876l111.468-217.945L755.831,408.625z"/>
</g>
<g id="Layer_5_1_">
	<g id="Layer_12">
		<linearGradient id="SVGID_7_" gradientUnits="userSpaceOnUse" x1="400.5182" y1="341.5864" x2="539.5495" y2="341.5864">
			<stop  offset="0.3255" style="stop-color:#132889"/>
			<stop  offset="1" style="stop-color:#2E2AFF"/>
		</linearGradient>
		<ellipse opacity="0.31" fill="url(#SVGID_7_)" cx="470.034" cy="341.586" rx="69.516" ry="23.816"/>
		<linearGradient id="SVGID_8_" gradientUnits="userSpaceOnUse" x1="573.2803" y1="656.923" x2="706.886" y2="656.923">
			<stop  offset="0.3255" style="stop-color:#132889"/>
			<stop  offset="1" style="stop-color:#D40044"/>
		</linearGradient>
		<ellipse opacity="0.4" fill="url(#SVGID_8_)" cx="640.083" cy="656.923" rx="66.803" ry="22.886"/>
		<linearGradient id="SVGID_9_" gradientUnits="userSpaceOnUse" x1="577.8147" y1="528.4121" x2="702.5925" y2="528.4121">
			<stop  offset="0.3255" style="stop-color:#FFFFFF"/>
			<stop  offset="1" style="stop-color:#FFFFFF"/>
		</linearGradient>
		<ellipse fill="url(#SVGID_9_)" cx="640.204" cy="528.412" rx="62.389" ry="56.566"/>
	</g>
	<linearGradient id="SVGID_10_" gradientUnits="userSpaceOnUse" x1="586.0358" y1="272.5726" x2="584.2704" y2="93.7524">
		<stop  offset="0" style="stop-color:#310095"/>
		<stop  offset="0.9678" style="stop-color:#2E2EFF"/>
	</linearGradient>
	<path display="none" fill="url(#SVGID_10_)" d="M674.829,209.639c0-49.377-40.032-89.406-89.414-89.406
		c-49.382,0-89.414,40.028-89.414,89.406c0,27.049,12.03,51.273,31.012,67.667l58.7,58.694l14.396,0.003L599,326l-1.644-1.644
		l49.265-49.26l-0.16-0.16C663.909,258.62,674.829,235.411,674.829,209.639z M584.882,256.47c-27.337,0-49.497-22.159-49.497-49.492
		c0-27.334,22.161-49.492,49.497-49.492c27.337,0,49.497,22.159,49.497,49.492C634.38,234.312,612.219,256.47,584.882,256.47z"/>
	<g id="Layer_4_1_" display="none">
		<linearGradient id="SVGID_11_" gradientUnits="userSpaceOnUse" x1="595.0469" y1="190.661" x2="592.6996" y2="281.1699">
			<stop  offset="0" style="stop-color:#FFAD15"/>
			<stop  offset="1" style="stop-color:#FFFF36"/>
		</linearGradient>
		<path display="inline" fill="url(#SVGID_11_)" d="M642,275h-97v-49.106c0-11.539,9.354-20.894,20.894-20.894h44.906
			C628.031,205,642,218.969,642,236.201V275z"/>
		<path display="inline" fill="#FFFFFF" d="M605.364,228.018c-0.502-7.209-4.768-12.533-9.537-11.979
			c-4.768,0.555-8.282,6.877-7.78,13.975c0,0.333,0.084,0.776,0.084,1.109l0,0c0.669,3.66,2.928,7.098,2.928,7.098l8.616-7.764
			l1.255-0.111l-7.78,8.097l0.167,3.327l8.449-10.315l0.92-0.111l-6.943,9.982l0.251,3.66l7.027-12.2l0.837-0.111l-5.939,11.757
			l0.502,3.771l4.266-9.538c2.593-5.989,2.677-7.764,2.677-7.764C605.448,230.015,605.448,229.016,605.364,228.018z"/>
		<path display="inline" opacity="0.14" fill="#A85A05" d="M598.989,205.369h-29.655c3.543,11.069,13.886,19.095,26.131,19.095
			c10.138,0,18.764-6.414,22.073-15.403c0.709-1.927-0.721-3.976-2.775-3.976h-10.745
			C602.337,205.269,600.657,205.369,598.989,205.369z"/>
		<linearGradient id="SVGID_12_" gradientUnits="userSpaceOnUse" x1="620" y1="240.7165" x2="625" y2="240.7165">
			<stop  offset="0" style="stop-color:#000000"/>
			<stop  offset="1" style="stop-color:#000000"/>
		</linearGradient>
		<polygon display="inline" opacity="0.13" fill="url(#SVGID_12_)" enable-background="new    " points="620,224.559 625,252 
			620,256.874 		"/>
		<linearGradient id="SVGID_13_" gradientUnits="userSpaceOnUse" x1="560.3182" y1="237.4408" x2="566" y2="237.4408">
			<stop  offset="0" style="stop-color:#000000"/>
			<stop  offset="1" style="stop-color:#000000"/>
		</linearGradient>
		<polygon display="inline" opacity="0.13" fill="url(#SVGID_13_)" enable-background="new    " points="566,225.657 566,249.225 
			560.318,248.039 		"/>
		<linearGradient id="SVGID_14_" gradientUnits="userSpaceOnUse" x1="594.606" y1="214.7096" x2="594.441" y2="194.6423">
			<stop  offset="0" style="stop-color:#000000"/>
			<stop  offset="0.8065" style="stop-color:#000000"/>
		</linearGradient>
		<path display="inline" opacity="0.15" fill="url(#SVGID_14_)" d="M601.402,216h-12.992c-4.644,0-8.409-3.765-8.409-8.409V196h29
			v12.402C609,212.598,605.598,216,601.402,216z"/>
		<linearGradient id="SVGID_15_" gradientUnits="userSpaceOnUse" x1="594.4479" y1="198.5136" x2="594.9873" y2="217.5793">
			<stop  offset="0" style="stop-color:#FF8D66"/>
			<stop  offset="0.1327" style="stop-color:#FF9B77"/>
			<stop  offset="0.6991" style="stop-color:#FFD1BA"/>
			<stop  offset="0.9649" style="stop-color:#FFE7D4"/>
		</linearGradient>
		<path display="inline" fill="url(#SVGID_15_)" d="M601.402,214h-12.992c-4.644,0-8.409-3.765-8.409-8.409V195h29v11.402
			C609,210.598,605.598,214,601.402,214z"/>
	</g>
	<linearGradient id="SVGID_16_" gradientUnits="userSpaceOnUse" x1="597.6141" y1="241.0558" x2="597.1545" y2="194.5002">
		<stop  offset="0" style="stop-color:#310095"/>
		<stop  offset="0.9678" style="stop-color:#000000"/>
	</linearGradient>
	<path display="none" opacity="0.29" fill="url(#SVGID_16_)" d="M595.743,227.385c-20.322,0-38.392-9.945-49.965-25.385H536v55h123
		v-55h-13.292C634.135,217.439,616.064,227.385,595.743,227.385z"/>
	<linearGradient id="SVGID_17_" gradientUnits="userSpaceOnUse" x1="476.7155" y1="182.3076" x2="477.8168" y2="-41.8462">
		<stop  offset="0" style="stop-color:#FFFFFF"/>
		<stop  offset="0.9678" style="stop-color:#FFFFFF"/>
	</linearGradient>
	<path fill="url(#SVGID_17_)" d="M365.219,46.327c2.719-2.253-2.46,135.909-2.46,135.909s49.199,33.091,48.769,32.404
		c-0.43-0.687,44.79,38.638,44.79,38.638l30.184,44.888l39.255-77.843l64.792-12.382l-6.932-106.919l-9.178-62.523L463.422,27.134
		L365.219,46.327z"/>
	<linearGradient id="SVGID_18_" gradientUnits="userSpaceOnUse" x1="601.0507" y1="243.6116" x2="601.9294" y2="64.7848">
		<stop  offset="0" style="stop-color:#733FFF"/>
		<stop  offset="0.9678" style="stop-color:#2A7CFF"/>
	</linearGradient>
	<path display="none" fill="url(#SVGID_18_)" d="M690.634,209.285c0-49.382-40.032-89.414-89.414-89.414
		c-49.382,0-89.414,40.032-89.414,89.414c0,27.051,12.03,51.278,31.012,67.674l58.291,59.044l61.319-61.254l-0.16-0.16
		C679.714,258.271,690.634,235.059,690.634,209.285z M600.687,256.121c-27.337,0-49.497-22.161-49.497-49.497
		c0-27.337,22.161-49.497,49.497-49.497c27.337,0,49.497,22.161,49.497,49.497C650.184,233.961,628.024,256.121,600.687,256.121z"/>
	<linearGradient id="SVGID_19_" gradientUnits="userSpaceOnUse" x1="597.2855" y1="428.1873" x2="704.9771" y2="428.1873">
		<stop  offset="0" style="stop-color:#8D0080"/>
		<stop  offset="0.9678" style="stop-color:#7F002A"/>
	</linearGradient>
	<path display="none" fill="url(#SVGID_19_)" d="M704.977,417.059c0-29.735-24.108-53.84-53.846-53.84s-53.846,24.105-53.846,53.84
		c0,16.289,7.244,30.877,18.675,40.749l35.349,35.346l8.669,0.002l-0.667-6.024l-0.99-0.99l29.667-29.664l-0.097-0.097
		C698.401,446.556,704.977,432.579,704.977,417.059z M650.811,445.261c-16.462,0-29.807-13.344-29.807-29.805
		c0-16.461,13.345-29.805,29.807-29.805s29.807,13.344,29.807,29.805C680.618,431.917,667.273,445.261,650.811,445.261z"/>
	<linearGradient id="SVGID_20_" gradientUnits="userSpaceOnUse" x1="606.201" y1="428.0781" x2="713.8926" y2="428.0781">
		<stop  offset="0" style="stop-color:#E00080"/>
		<stop  offset="0.9678" style="stop-color:#A41586"/>
	</linearGradient>
	<path display="none" fill="url(#SVGID_20_)" d="M713.893,416.846c0-29.738-24.108-53.846-53.846-53.846
		s-53.846,24.108-53.846,53.846c0,16.29,7.244,30.88,18.675,40.753l35.103,35.557l36.926-36.888l-0.097-0.097
		C707.316,446.345,713.893,432.367,713.893,416.846z M659.726,445.051c-16.462,0-29.807-13.345-29.807-29.807
		c0-16.462,13.345-29.807,29.807-29.807s29.807,13.345,29.807,29.807C689.534,431.705,676.189,445.051,659.726,445.051z"/>
	<linearGradient id="SVGID_21_" gradientUnits="userSpaceOnUse" x1="455.9247" y1="201.8769" x2="457.2822" y2="-74.4259">
		<stop  offset="0" style="stop-color:#310095"/>
		<stop  offset="0.9678" style="stop-color:#2E2EFF"/>
	</linearGradient>
	<path fill="url(#SVGID_21_)" d="M547.575,11.134H365.059c-19.905,0-36.041,14.051-36.041,31.385v158.937
		c0,17.333,16.136,31.385,36.041,31.385h42.244L463,342l23.013,2.778l-0.958-32.891l-9.417-1.168l32.265-77.879h39.672
		c19.905,0,36.041-14.051,36.041-31.385V42.519C583.616,25.186,567.48,11.134,547.575,11.134z M541.195,174.268
		c0,11.64-10.836,21.076-24.202,21.076h-26.641l-31.18,75.26l-36.376-75.26h-28.368c-13.367,0-24.202-9.436-24.202-21.076V67.537
		c0-11.64,10.836-21.076,24.202-21.076h122.565c13.367,0,24.202,9.436,24.202,21.076V174.268z"/>
	<linearGradient id="SVGID_22_" gradientUnits="userSpaceOnUse" x1="480.465" y1="201.8885" x2="481.8236" y2="-74.6252">
		<stop  offset="0" style="stop-color:#733FFF"/>
		<stop  offset="0.9678" style="stop-color:#2A7CFF"/>
	</linearGradient>
	<path fill="url(#SVGID_22_)" d="M572.116,11H389.6c-19.905,0-36.041,14.051-36.041,31.385v158.937
		c0,17.333,16.136,31.385,36.041,31.385h42.244l54.169,112.071l46.431-112.071h39.672c19.905,0,36.041-14.051,36.041-31.385V42.385
		C608.157,25.051,592.021,11,572.116,11z M565.736,174.134c0,11.64-10.836,21.076-24.202,21.076h-26.641l-31.18,75.26l-36.376-75.26
		h-28.368c-13.367,0-24.202-9.436-24.202-21.076V67.403c0-11.64,10.836-21.076,24.202-21.076h122.565
		c13.367,0,24.202,9.436,24.202,21.076V174.134z"/>
</g>
<g id="Layer_2">
	<linearGradient id="SVGID_23_" gradientUnits="userSpaceOnUse" x1="425.4483" y1="147.9032" x2="449.9994" y2="147.9378">
		<stop  offset="0" style="stop-color:#2A1800"/>
		<stop  offset="0.3201" style="stop-color:#170D00"/>
		<stop  offset="0.7083" style="stop-color:#060300"/>
		<stop  offset="1" style="stop-color:#000000"/>
	</linearGradient>
	<path fill="url(#SVGID_23_)" d="M437.728,164.991h-8.603c-8.823,0-15.976-7.153-15.976-15.976v-18.178h24.579V164.991z"/>
	
		<linearGradient id="SVGID_24_" gradientUnits="userSpaceOnUse" x1="466.3023" y1="209.0708" x2="467.0561" y2="123.0045" gradientTransform="matrix(0.9918 0.1277 -0.1277 0.9918 27.0255 -74.4454)">
		<stop  offset="0" style="stop-color:#FFAF99"/>
		<stop  offset="0.2083" style="stop-color:#FFCEBA"/>
		<stop  offset="0.4023" style="stop-color:#FFE7D4"/>
	</linearGradient>
	<path fill="url(#SVGID_24_)" d="M426.538,129.072c-9.105,26.883,29.181,59.139,29.181,59.139c11.868,7.866,24.401-0.62,24.401-0.62
		c34.073-20.303,34.978-44.875,34.978-44.875c-0.064-25.819-18.491-40.535-18.491-40.535l-40.662-5.234l-24.629,12.541
		L426.538,129.072z"/>
	<linearGradient id="SVGID_25_" gradientUnits="userSpaceOnUse" x1="596.1253" y1="249.8283" x2="596.6235" y2="192.9408">
		<stop  offset="0" style="stop-color:#FFAF99"/>
		<stop  offset="0.214" style="stop-color:#FFD2BB"/>
		<stop  offset="0.4023" style="stop-color:#FFECD4"/>
	</linearGradient>
	<path display="none" fill="url(#SVGID_25_)" d="M594.42,249L594.42,249c-16.193,0-29.321-13.127-29.321-29.321v-31.724h62.894
		v27.471C627.993,233.968,612.962,249,594.42,249z"/>
	
		<linearGradient id="SVGID_26_" gradientUnits="userSpaceOnUse" x1="612.6877" y1="-174.6887" x2="646.6564" y2="-174.6887" gradientTransform="matrix(0.8298 -0.0692 0.0801 0.9606 -11.0273 353.7012)">
		<stop  offset="0" style="stop-color:#000000"/>
		<stop  offset="1" style="stop-color:#000C2A"/>
	</linearGradient>
	<path fill="url(#SVGID_26_)" d="M490.913,152.527l-6.714,0.642v-7.882c-0.639-7.717,3.765-11.93,11.482-12.569l15.09-1.278l0,0
		c0.737,9.044-7.127,18.826-17.007,20.939C492.83,152.576,491.847,152.625,490.913,152.527z"/>
	
		<linearGradient id="SVGID_27_" gradientUnits="userSpaceOnUse" x1="643.0742" y1="-0.0364" x2="669.6523" y2="-0.0364" gradientTransform="matrix(0.9537 -0.3006 0.3006 0.9537 -128.3486 340.7656)">
		<stop  offset="0" style="stop-color:#FFFFFF"/>
		<stop  offset="0" style="stop-color:#FFFFFF"/>
	</linearGradient>
	<path fill="url(#SVGID_27_)" d="M489.782,138.862c-1.229,0.393-4.516,0.862-4.27,2.484v0c-0.853,2.558-0.853,5.324,0,7.882v0
		c0.147,0.786,2.697,1.677,3.287,1.726l1.032,0.393c1.573,0.59,3.293,0.688,4.915,0.098c6.144-2.212,14.402-10.077,13.517-18.433
		L489.782,138.862z"/>
	
		<linearGradient id="SVGID_28_" gradientUnits="userSpaceOnUse" x1="488.7401" y1="92.7735" x2="484.4982" y2="81.0335" gradientTransform="matrix(0.9624 0.2715 -0.2715 0.9624 48.3242 -73.0141)">
		<stop  offset="0" style="stop-color:#D49400"/>
		<stop  offset="0.0171" style="stop-color:#C78B00"/>
		<stop  offset="0.1051" style="stop-color:#8B6100"/>
		<stop  offset="0.1899" style="stop-color:#5A3F00"/>
		<stop  offset="0.2691" style="stop-color:#332300"/>
		<stop  offset="0.3417" style="stop-color:#171000"/>
		<stop  offset="0.4052" style="stop-color:#060400"/>
		<stop  offset="0.4528" style="stop-color:#000000"/>
		<stop  offset="1" style="stop-color:#000000"/>
	</linearGradient>
	<path fill="url(#SVGID_28_)" d="M490.699,149.581L490.699,149.581c-3.129-0.876-4.966-4.079-4.118-7.167l0.717-2.528
		c0.332-1.134,0.707-2.064,1.381-3.092c1.536-2.343,3.37-3.257,5.69-2.852l0,0l0,0c3.884,1.606,6.168,6.101,5.081,10.091
		l-0.238,0.902C498.122,148.57,494.32,150.604,490.699,149.581z"/>
	
		<linearGradient id="SVGID_29_" gradientUnits="userSpaceOnUse" x1="957.7788" y1="-150.8728" x2="991.7476" y2="-150.8728" gradientTransform="matrix(-0.8298 -0.0692 -0.0801 0.9606 1240.103 353.7012)">
		<stop  offset="0" style="stop-color:#000000"/>
		<stop  offset="1" style="stop-color:#000C2A"/>
	</linearGradient>
	<path fill="url(#SVGID_29_)" d="M447.048,151.389c-9.88-2.114-17.745-11.895-17.007-20.94l0,0l15.09,1.278
		c7.717,0.639,12.121,4.852,11.482,12.569v7.882l-6.714-0.642C448.965,151.634,447.982,151.585,447.048,151.389z"/>
	
		<linearGradient id="SVGID_30_" gradientUnits="userSpaceOnUse" x1="918.3154" y1="85.6786" x2="944.8934" y2="85.6786" gradientTransform="matrix(-0.9537 -0.3006 -0.3006 0.9537 1357.4243 340.7656)">
		<stop  offset="0" style="stop-color:#FFFFFF"/>
		<stop  offset="0" style="stop-color:#FFFFFF"/>
	</linearGradient>
	<path fill="url(#SVGID_30_)" d="M432.548,132.022c-0.885,8.356,7.373,16.221,13.517,18.433c1.622,0.59,3.342,0.492,4.915-0.098
		l1.032-0.393c0.59-0.049,3.139-0.94,3.287-1.726l0,0c0.853-2.558,0.853-5.324,0-7.882l0,0c0.246-1.622-3.041-2.091-4.27-2.484
		L432.548,132.022z"/>
	
		<linearGradient id="SVGID_31_" gradientUnits="userSpaceOnUse" x1="765.9152" y1="13.5352" x2="761.6733" y2="1.7952" gradientTransform="matrix(-0.9624 0.2715 0.2715 0.9624 1180.7515 -73.0141)">
		<stop  offset="0" style="stop-color:#D49400"/>
		<stop  offset="0.0171" style="stop-color:#C78B00"/>
		<stop  offset="0.1051" style="stop-color:#8B6100"/>
		<stop  offset="0.1899" style="stop-color:#5A3F00"/>
		<stop  offset="0.2691" style="stop-color:#332300"/>
		<stop  offset="0.3417" style="stop-color:#171000"/>
		<stop  offset="0.4052" style="stop-color:#060400"/>
		<stop  offset="0.4528" style="stop-color:#000000"/>
		<stop  offset="1" style="stop-color:#000000"/>
	</linearGradient>
	<path fill="url(#SVGID_31_)" d="M441.601,143.944l-0.238-0.902c-1.087-3.989,1.197-8.484,5.081-10.091l0,0l0,0
		c2.321-0.405,4.154,0.509,5.69,2.852c0.674,1.028,1.048,1.958,1.381,3.092l0.717,2.528c0.849,3.088-0.989,6.291-4.118,7.167l0,0
		C446.492,149.612,442.691,147.579,441.601,143.944z"/>
	
		<linearGradient id="SVGID_32_" gradientUnits="userSpaceOnUse" x1="389.4501" y1="213.17" x2="399.3654" y2="208.8084" gradientTransform="matrix(0.9597 0.2811 -0.2811 0.9597 149.6795 -160.237)">
		<stop  offset="0" style="stop-color:#FFAF99"/>
		<stop  offset="0.5177" style="stop-color:#FFCEBA"/>
		<stop  offset="1" style="stop-color:#FFE7D4"/>
	</linearGradient>
	<path fill="url(#SVGID_32_)" d="M469.974,165.257l-3.365-0.986c-2.131-0.624-3.353-2.858-2.729-4.989l5.516-18.833l0,0
		l4.725,20.913C474.675,163.817,472.389,165.964,469.974,165.257z"/>
	<g>
		<defs>
			<path id="SVGID_33_" d="M426.338,128.997c-9.105,26.883,29.181,59.139,29.181,59.139c11.868,7.866,24.401-0.62,24.401-0.62
				c34.073-20.303,34.978-44.875,34.978-44.875c-0.064-25.819-18.491-40.535-18.491-40.535l-40.662-5.234l-24.629,12.541
				L426.338,128.997z"/>
		</defs>
		<clipPath id="SVGID_34_">
			<use xlink:href="#SVGID_33_"  overflow="visible"/>
		</clipPath>
		<g opacity="0.43" clip-path="url(#SVGID_34_)">
			
				<linearGradient id="SVGID_35_" gradientUnits="userSpaceOnUse" x1="650.2465" y1="31.9485" x2="675.3867" y2="12.617" gradientTransform="matrix(0.9537 -0.3006 0.3006 0.9537 -128.3486 340.7656)">
				<stop  offset="0" style="stop-color:#FF726A;stop-opacity:0.4"/>
				<stop  offset="0.1881" style="stop-color:#F9504B;stop-opacity:0.4"/>
				<stop  offset="0.42" style="stop-color:#F22E2A;stop-opacity:0.4"/>
				<stop  offset="0.6393" style="stop-color:#EE1413;stop-opacity:0.4"/>
				<stop  offset="0.8386" style="stop-color:#EB0505;stop-opacity:0.4"/>
				<stop  offset="1" style="stop-color:#EA0000;stop-opacity:0.4"/>
			</linearGradient>
			<path fill="url(#SVGID_35_)" d="M524.191,160.734c2.949,8.955-1.671,18.288-10.273,20.88c-8.602,2.592-17.941-2.545-20.89-11.453
				c-2.949-8.955,1.671-18.288,10.273-20.88C511.903,146.688,521.242,151.826,524.191,160.734z"/>
			
				<linearGradient id="SVGID_36_" gradientUnits="userSpaceOnUse" x1="925.4754" y1="117.7023" x2="950.6156" y2="98.3708" gradientTransform="matrix(-0.9537 -0.3006 -0.3006 0.9537 1357.4243 340.7656)">
				<stop  offset="0" style="stop-color:#FF726A;stop-opacity:0.4"/>
				<stop  offset="0.1881" style="stop-color:#F9504B;stop-opacity:0.4"/>
				<stop  offset="0.42" style="stop-color:#F22E2A;stop-opacity:0.4"/>
				<stop  offset="0.6393" style="stop-color:#EE1413;stop-opacity:0.4"/>
				<stop  offset="0.8386" style="stop-color:#EB0505;stop-opacity:0.4"/>
				<stop  offset="1" style="stop-color:#EA0000;stop-opacity:0.4"/>
			</linearGradient>
			<path fill="url(#SVGID_36_)" d="M437.512,148.33c8.602,2.592,13.222,11.925,10.273,20.88
				c-2.949,8.908-12.288,14.046-20.89,11.454c-8.602-2.592-13.222-11.925-10.273-20.88
				C419.571,150.876,428.91,145.738,437.512,148.33z"/>
		</g>
	</g>
	<linearGradient id="SVGID_37_" gradientUnits="userSpaceOnUse" x1="422.4597" y1="118.0168" x2="514.4118" y2="118.0168">
		<stop  offset="0" style="stop-color:#000000"/>
		<stop  offset="1" style="stop-color:#000000"/>
	</linearGradient>
	<path opacity="0.31" fill="url(#SVGID_37_)" d="M503.034,137.406h-65.669c-8.232,0-14.906-6.673-14.906-14.906V98.628h91.952v27.4
		C514.412,132.312,509.318,137.406,503.034,137.406z"/>
	<linearGradient id="SVGID_38_" gradientUnits="userSpaceOnUse" x1="417.2053" y1="103.9087" x2="523.6071" y2="103.9087">
		<stop  offset="0" style="stop-color:#000000"/>
		<stop  offset="1" style="stop-color:#000000"/>
	</linearGradient>
	<path fill="url(#SVGID_38_)" d="M523.607,128.21H417.205v-21.528c0-14.953,12.122-27.075,27.075-27.075h50.113
		c16.134,0,29.214,13.079,29.214,29.214V128.21z"/>
	<g id="Layer_3">
		
			<linearGradient id="SVGID_39_" gradientUnits="userSpaceOnUse" x1="298.1168" y1="324.0504" x2="289.1959" y2="299.3601" gradientTransform="matrix(0.8468 0.5319 -0.7502 1.1943 411.3428 -405.2234)">
			<stop  offset="0" style="stop-color:#2A1800"/>
			<stop  offset="0.3201" style="stop-color:#170D00"/>
			<stop  offset="0.7083" style="stop-color:#060300"/>
			<stop  offset="1" style="stop-color:#000000"/>
		</linearGradient>
		<path fill="url(#SVGID_39_)" d="M421.081,142.71l-3.391-1.791c-8.357-4.414-10.876-13.687-5.626-20.713l16.283-21.794
			l18.522,9.782L421.081,142.71z"/>
		<linearGradient id="SVGID_40_" gradientUnits="userSpaceOnUse" x1="500.4737" y1="134.7481" x2="489.0417" y2="103.1078">
			<stop  offset="0" style="stop-color:#2A1800"/>
			<stop  offset="0.3201" style="stop-color:#170D00"/>
			<stop  offset="0.7083" style="stop-color:#060300"/>
			<stop  offset="1" style="stop-color:#000000"/>
		</linearGradient>
		<path fill="url(#SVGID_40_)" d="M510.471,133.465h-26.467c-4.971,0-9-4.029-9-9v-23.84h35.467V133.465z"/>
		<linearGradient id="SVGID_41_" gradientUnits="userSpaceOnUse" x1="434.2367" y1="134.4023" x2="436.816" y2="111.0838">
			<stop  offset="0" style="stop-color:#2A1800"/>
			<stop  offset="0.3201" style="stop-color:#170D00"/>
			<stop  offset="0.7083" style="stop-color:#060300"/>
			<stop  offset="1" style="stop-color:#000000"/>
		</linearGradient>
		<path fill="url(#SVGID_41_)" d="M435.512,140.353H423.03v-35.467h26.482v21.467C449.512,134.085,443.244,140.353,435.512,140.353z
			"/>
		<linearGradient id="SVGID_42_" gradientUnits="userSpaceOnUse" x1="473.1689" y1="137.502" x2="461.6096" y2="105.5095">
			<stop  offset="0" style="stop-color:#513500"/>
			<stop  offset="0.258" style="stop-color:#322100"/>
			<stop  offset="0.5501" style="stop-color:#170F00"/>
			<stop  offset="0.8073" style="stop-color:#060400"/>
			<stop  offset="1" style="stop-color:#000000"/>
		</linearGradient>
		<path fill="url(#SVGID_42_)" d="M476.317,138.719h-11.753c-5.842,0-10.579-4.736-10.579-10.579v-27.516h22.331V138.719z"/>
		<linearGradient id="SVGID_43_" gradientUnits="userSpaceOnUse" x1="517.0453" y1="129.1534" x2="502.8994" y2="90.0021">
			<stop  offset="0" style="stop-color:#2A1800"/>
			<stop  offset="0.3201" style="stop-color:#170D00"/>
			<stop  offset="0.7083" style="stop-color:#060300"/>
			<stop  offset="1" style="stop-color:#000000"/>
		</linearGradient>
		<path fill="url(#SVGID_43_)" d="M517.656,157.003L511,157l0.891-53.855h5.764c4.797,0,8.685,3.888,8.685,8.685v36.487
			C526.341,153.114,522.452,157.003,517.656,157.003z"/>
	</g>
	
		<linearGradient id="SVGID_44_" gradientUnits="userSpaceOnUse" x1="538.1462" y1="3.0064" x2="546.7019" y2="3.0064" gradientTransform="matrix(1.519 -0.1257 0.0544 0.658 -354.1906 235.6923)">
		<stop  offset="0" style="stop-color:#7F0003"/>
		<stop  offset="1" style="stop-color:#880001"/>
	</linearGradient>
	<path opacity="0.6" fill="url(#SVGID_44_)" enable-background="new    " d="M463.181,166.935
		c5.676,12.396,13.155,0.847,13.155,0.847C467.552,173.75,463.181,166.935,463.181,166.935z"/>
</g>
<g id="Layer_11">
	<linearGradient id="SVGID_45_" gradientUnits="userSpaceOnUse" x1="472.8732" y1="43.008" x2="471.2018" y2="78.3617">
		<stop  offset="0" style="stop-color:#3FB1FF"/>
		<stop  offset="1" style="stop-color:#2E2AFF"/>
	</linearGradient>
	<path fill="url(#SVGID_45_)" d="M513.487,113.656h-86.949c-5.676,0-10.278-4.602-10.278-10.278v0
		c0-22.781,18.468-41.249,41.249-41.249h25.007c22.781,0,41.249,18.468,41.249,41.249v0
		C524.646,108.331,509.746,113.802,513.487,113.656z"/>
	<linearGradient id="SVGID_46_" gradientUnits="userSpaceOnUse" x1="470.5587" y1="115.375" x2="429.114" y2="112.003">
		<stop  offset="0" style="stop-color:#3F88FF"/>
		<stop  offset="1" style="stop-color:#3F56FF"/>
	</linearGradient>
	<path fill="url(#SVGID_46_)" d="M417,107c19.639,39.188,89,11,89,11c7.22-2.434,18-12,18-12L417,107z"/>
	<path fill="#FFFFFF" d="M481.233,82.582c-0.696-6.564-6.614-11.412-13.227-10.907c-6.614,0.505-11.487,6.261-10.791,12.725
		c0,0.303,0.116,0.707,0.116,1.01l0,0c0.928,3.333,4.061,6.463,4.061,6.463l11.951-7.069l1.74-0.101l-10.79,7.372l0.232,3.03
		l11.719-9.392l1.276-0.101l-9.63,9.089l0.348,3.333l9.746-11.109l1.16-0.101l-8.238,10.705l0.696,3.434l5.917-8.685
		c3.597-5.453,3.713-7.069,3.713-7.069C481.349,84.4,481.349,83.491,481.233,82.582z"/>
</g>
<g id="Layer_14">
	<linearGradient id="SVGID_47_" gradientUnits="userSpaceOnUse" x1="604.434" y1="511.0807" x2="674.3096" y2="511.0807">
		<stop  offset="0" style="stop-color:#4A254A"/>
		<stop  offset="0.7109" style="stop-color:#161434"/>
		<stop  offset="1" style="stop-color:#000C2A"/>
	</linearGradient>
	<polygon fill="url(#SVGID_47_)" points="604.434,523.421 638.161,498.741 674.31,523.421 	"/>
	<linearGradient id="SVGID_48_" gradientUnits="userSpaceOnUse" x1="617.7437" y1="538.3943" x2="662.6636" y2="538.3943">
		<stop  offset="0" style="stop-color:#4A254A"/>
		<stop  offset="0.7109" style="stop-color:#161434"/>
		<stop  offset="1" style="stop-color:#000C2A"/>
	</linearGradient>
	<polygon fill="url(#SVGID_48_)" points="617.744,518.43 617.744,558.359 632.717,558.359 632.717,543.385 647.69,543.385 
		647.69,558.359 662.664,558.359 662.664,518.43 	"/>
</g>
<g id="Layer_15">
	<linearGradient id="SVGID_49_" gradientUnits="userSpaceOnUse" x1="597.7988" y1="430.0332" x2="705.4904" y2="430.0332">
		<stop  offset="0" style="stop-color:#8D0080"/>
		<stop  offset="0.9678" style="stop-color:#7F002A"/>
	</linearGradient>
	<path display="none" fill="url(#SVGID_49_)" d="M705.49,418.905c0-29.735-24.108-53.841-53.846-53.841
		c-29.738,0-53.846,24.105-53.846,53.841c0,16.289,7.244,30.877,18.675,40.749L651.823,495l8.669,0.002l-0.667-6.024l-0.99-0.99
		l29.667-29.664l-0.097-0.097C698.914,448.401,705.49,434.425,705.49,418.905z M651.324,447.107
		c-16.462,0-29.808-13.344-29.808-29.805c0-16.461,13.345-29.805,29.808-29.805c16.462,0,29.807,13.344,29.807,29.805
		C681.132,433.763,667.786,447.107,651.324,447.107z"/>
	<linearGradient id="SVGID_50_" gradientUnits="userSpaceOnUse" x1="586.3953" y1="601.6151" x2="669.7819" y2="601.6151">
		<stop  offset="0" style="stop-color:#8D0080"/>
		<stop  offset="0.9678" style="stop-color:#7F002A"/>
	</linearGradient>
	<polygon fill="url(#SVGID_50_)" points="660.5,596.131 592.522,619.916 586.395,613.847 604.434,606.606 669.318,583.314 
		669.782,593.132 	"/>
	<linearGradient id="SVGID_51_" gradientUnits="userSpaceOnUse" x1="543.3038" y1="552.1625" x2="722.4708" y2="552.1625">
		<stop  offset="0" style="stop-color:#8D0080"/>
		<stop  offset="0.9678" style="stop-color:#7F002A"/>
	</linearGradient>
	<path fill="url(#SVGID_51_)" d="M722.471,533.475c0-49.476-40.108-89.584-89.583-89.584c-49.476,0-89.583,40.108-89.583,89.584
		c0,27.102,12.052,51.375,31.07,67.802l5.506,5.578l2.926,3.079l3.327-1.664l4.991-3.327l79.858-24.956l-15.735,10.567
		l-67.978,23.785l6.238,6.318l0,0l0.002,0.002l2.85,2.887l0.036-0.016l1.384-0.287l9.324-1.945l-1.117-2.073l56.61-25.412
		l21.695-8.835l-77.234,49.406v0l9.347,9.468l11.32-2.308l2.496-3.354l-2.659-3.445l45.985-37.536l19.062-8.904l-67.905,63.954
		l8.069,8.173l3.27-0.588l7.474-1.66l-2.823-5.664l53.513-53.457l-0.161-0.161C711.53,582.554,722.471,559.298,722.471,533.475z
		 M632.354,580.4c-27.388,0-49.591-22.203-49.591-49.591c0-27.388,22.203-49.591,49.591-49.591
		c27.388,0,49.591,22.203,49.591,49.591C681.945,558.197,659.742,580.4,632.354,580.4z"/>
	<linearGradient id="SVGID_52_" gradientUnits="userSpaceOnUse" x1="554.0476" y1="549.9138" x2="733.2146" y2="549.9138">
		<stop  offset="0" style="stop-color:#E00080"/>
		<stop  offset="0.9678" style="stop-color:#A41586"/>
	</linearGradient>
	<path fill="url(#SVGID_52_)" d="M733.215,531.227c0-49.476-40.108-89.584-89.583-89.584c-49.476,0-89.584,40.108-89.584,89.584
		c0,27.102,12.052,51.374,31.07,67.802l5.506,5.578l68.883-19.628l6.484,3.327l-64.884,23.292l5.997,9.701l66.237-29.734
		l2.633,1.732l-58.171,38.839v0l9.347,9.468l57.142-46.644l5.828,2.202l-54.671,52.849l8.069,8.173l61.435-61.37l-0.161-0.161
		C722.274,580.305,733.215,557.05,733.215,531.227z M643.098,578.151c-27.388,0-49.591-22.203-49.591-49.591
		c0-27.388,22.203-49.591,49.591-49.591c27.388,0,49.591,22.203,49.591,49.591C692.689,555.949,670.486,578.151,643.098,578.151z"/>
</g>
</svg>
