<?xml version="1.0" encoding="utf-8"?>
<svg version="1.1" xmlns="http://www.w3.org/2000/svg" xmlns:xlink="http://www.w3.org/1999/xlink" x="0px" y="0px"
	 viewBox="0 0 1200 900" enable-background="new 0 0 1200 900" xml:space="preserve">
<g id="management-art-illustration" display="none">
	
		<image display="inline" overflow="visible" width="854" height="740" xlink:href="75116FED.jpg"  transform="matrix(1 0 0 1 173 80.5)">
	</image>
</g>
<g id="Layer_7_2_">
	<path fill="none" stroke="#FCC103" stroke-width="6" stroke-miterlimit="10" stroke-dasharray="12" d="M742.954,324.537
		c286.979-171.407,314.799,186.755,297.648,242.256"/>
	
		<circle fill="none" stroke="#FCC103" stroke-width="9" stroke-miterlimit="10" stroke-dasharray="12" cx="323.292" cy="583.747" r="89.224"/>
</g>
<g id="Layer_6" display="none">
	<g id="Layer_1_1_" display="inline">
		
			<linearGradient id="SVGID_1_" gradientUnits="userSpaceOnUse" x1="29.5303" y1="140.8761" x2="384" y2="140.8761" gradientTransform="matrix(1 0 0 -1 0 902)">
			<stop  offset="0" style="stop-color:#7E92A2"/>
			<stop  offset="0.9678" style="stop-color:#3163A4"/>
		</linearGradient>
		<path fill="url(#SVGID_1_)" d="M29.53,732.746v7.672c0,2.676,1.428,5.147,3.746,6.484l215.275,124.163
			c2.313,1.334,5.16,1.335,7.474,0.004l124.223-71.492c2.604-1.499,4.06-4.41,3.697-7.393l-1.251-10.277
			c-0.284-2.328-1.642-4.389-3.67-5.568L163.651,651.194c-2.376-1.381-5.318-1.348-7.664,0.085L33.113,726.358
			C30.888,727.718,29.53,730.138,29.53,732.746z"/>
		
			<linearGradient id="SVGID_2_" gradientUnits="userSpaceOnUse" x1="29.5303" y1="148.8919" x2="382.2434" y2="148.8919" gradientTransform="matrix(1 0 0 -1 0 902)">
			<stop  offset="0" style="stop-color:#CFDDCF"/>
			<stop  offset="0.9678" style="stop-color:#C4E2FF"/>
		</linearGradient>
		<path fill="url(#SVGID_2_)" d="M164.465,648.399l215.491,125.733c3.032,1.769,3.054,6.142,0.04,7.941L253.17,857.793
			c-1.438,0.859-3.229,0.87-4.678,0.029L31.827,732.099c-3.047-1.768-3.066-6.162-0.034-7.956l128.001-75.731
			C161.233,647.562,163.021,647.556,164.465,648.399z"/>
		
			<linearGradient id="SVGID_3_" gradientUnits="userSpaceOnUse" x1="47.7475" y1="151.8604" x2="358.063" y2="151.8604" gradientTransform="matrix(1 0 0 -1 0 902)">
			<stop  offset="0" style="stop-color:#00AEE9"/>
			<stop  offset="0.9678" style="stop-color:#007CCC"/>
		</linearGradient>
		<path fill="url(#SVGID_3_)" d="M165.969,659.028l190.976,110.787c1.482,0.859,1.492,2.995,0.02,3.869L243.159,841.24
			c-0.697,0.414-1.564,0.419-2.266,0.014L48.87,730.472c-1.489-0.859-1.498-3.005-0.016-3.876l114.853-67.56
			C164.404,658.624,165.269,658.621,165.969,659.028z"/>
	</g>
	<g id="Layer_7_1_" display="inline">
		<polygon fill="#FFFFFF" points="90.501,702.096 127.588,734.485 185.349,725.848 201.543,737.724 213.42,756.078 213.42,784.247 
			235.013,800.884 272.8,803.043 288.995,813.84 292.567,811.912 274.42,798.724 238.252,797.105 215.579,781.45 215.579,755.539 
			202.905,736.096 185.889,723.149 128.128,731.246 92.862,700.707 		"/>
		<polygon fill="#FFFFFF" points="250.667,708.574 240.411,719.91 254.986,738.804 243.65,749.061 254.986,771.193 228.725,790.527 
			224.4,792.209 202.905,800.569 189.609,811.667 192.438,813.3 204.783,801.424 233.393,789.008 256.606,772.813 246.838,750.14 
			257.685,739.344 243.65,720.45 		"/>
		<polyline fill="#FFFFFF" points="125.968,732.866 151.169,763.096 205.839,783.436 258.225,832.194 260.384,831.114 
			206.771,781.99 152.248,760.937 127.416,732.866 126.508,732.866 		"/>
		<polygon fill="#FFFFFF" points="183.789,712.694 152.419,727.468 156.198,754.459 183.789,775.351 184.809,773.353 
			160.517,753.919 155.79,728.933 185.517,713.697 		"/>
		<polygon fill="#FFFFFF" points="185.517,713.697 191.287,707.737 163.216,684.821 187.999,707.124 183.789,712.694 
			181.138,713.942 		"/>
	</g>
	<g id="Layer_17" display="inline">
		<polyline fill="#FFCE00" points="165.915,693.459 184.371,703.86 187.573,707.688 182.023,713.526 155.637,725.415 
			154.039,728.547 159.977,728.547 167.651,728.495 178.331,725.848 185.517,724.685 198.494,735.488 217.001,757.273 
			213.02,781.901 216.511,785.927 223.647,792.127 217.199,794.946 222.597,797.815 223.979,797.105 226.076,792.815 
			215.579,781.747 216.119,770.114 202.623,736.797 187.508,723.149 166.995,726.388 158.898,726.388 171.164,721.053 
			183.98,714.484 191.287,707.737 172.806,692.22 166.455,692.379 163.747,688.46 		"/>
	</g>
	<g id="Layer_10" display="inline" opacity="0.4">
		
			<linearGradient id="SVGID_4_" gradientUnits="userSpaceOnUse" x1="72.2086" y1="188.4742" x2="159.9771" y2="188.4742" gradientTransform="matrix(1 0 0 -1 0 902)">
			<stop  offset="0" style="stop-color:#A2D9E9"/>
			<stop  offset="0.9678" style="stop-color:#2AC5FF"/>
		</linearGradient>
		<polygon fill="url(#SVGID_4_)" points="140.711,697.023 110.422,765.982 72.209,743.936 83.137,706.428 159.977,661.069 		"/>
		
			<linearGradient id="SVGID_5_" gradientUnits="userSpaceOnUse" x1="127.015" y1="171.073" x2="217.0009" y2="171.073" gradientTransform="matrix(1 0 0 -1 0 902)">
			<stop  offset="0" style="stop-color:#A2D9E9"/>
			<stop  offset="0.9678" style="stop-color:#2AC5FF"/>
		</linearGradient>
		<polygon fill="url(#SVGID_5_)" points="156.384,712.694 127.015,775.555 160.453,794.847 217.001,688.632 179.411,667.007 		"/>
		
			<linearGradient id="SVGID_6_" gradientUnits="userSpaceOnUse" x1="201.0038" y1="124.2333" x2="318.1457" y2="124.2333" gradientTransform="matrix(1 0 0 -1 0 902)">
			<stop  offset="0" style="stop-color:#A2D9E9"/>
			<stop  offset="0.9678" style="stop-color:#2AC5FF"/>
		</linearGradient>
		<path fill="url(#SVGID_6_)" d="M260.384,713.972l-59.381,104.186l37.248,21.593c2.37,1.461,3.796,2.623,5.938,1.08l37.788-22.673
			l36.168-70.717L260.384,713.972z"/>
	</g>
	<g id="Layer_5_1_" display="inline">
		<g id="Layer_12">
			
				<linearGradient id="SVGID_7_" gradientUnits="userSpaceOnUse" x1="145.0955" y1="209.7803" x2="190.2074" y2="209.7803" gradientTransform="matrix(1 0 0 -1 0 902)">
				<stop  offset="0.3255" style="stop-color:#132889"/>
				<stop  offset="1" style="stop-color:#2E2AFF"/>
			</linearGradient>
			<ellipse opacity="0.31" fill="url(#SVGID_7_)" enable-background="new    " cx="167.651" cy="692.22" rx="22.556" ry="7.728"/>
			
				<linearGradient id="SVGID_8_" gradientUnits="userSpaceOnUse" x1="201.1518" y1="107.4625" x2="244.5031" y2="107.4625" gradientTransform="matrix(1 0 0 -1 0 902)">
				<stop  offset="0.3255" style="stop-color:#132889"/>
				<stop  offset="1" style="stop-color:#D40044"/>
			</linearGradient>
			<ellipse opacity="0.4" fill="url(#SVGID_8_)" enable-background="new    " cx="222.827" cy="794.537" rx="21.676" ry="7.426"/>
			
				<linearGradient id="SVGID_9_" gradientUnits="userSpaceOnUse" x1="202.6233" y1="149.1606" x2="243.1101" y2="149.1606" gradientTransform="matrix(1 0 0 -1 0 902)">
				<stop  offset="0.3255" style="stop-color:#FFFFFF"/>
				<stop  offset="1" style="stop-color:#FFFFFF"/>
			</linearGradient>
			<ellipse fill="url(#SVGID_9_)" cx="222.867" cy="752.839" rx="20.243" ry="18.354"/>
		</g>
		
			<linearGradient id="SVGID_10_" gradientUnits="userSpaceOnUse" x1="205.2908" y1="232.1731" x2="204.718" y2="290.1951" gradientTransform="matrix(1 0 0 -1 0 902)">
			<stop  offset="0" style="stop-color:#310095"/>
			<stop  offset="0.9678" style="stop-color:#2E2EFF"/>
		</linearGradient>
		<path display="none" fill="url(#SVGID_10_)" d="M234.102,649.407c0-16.021-12.989-29.01-29.012-29.01s-29.012,12.988-29.012,29.01
			c0,8.777,3.903,16.637,10.062,21.956l19.046,19.044l4.671,0.001l-0.36-3.246l-0.533-0.533l15.985-15.983l-0.052-0.052
			C230.558,665.3,234.102,657.769,234.102,649.407z M204.916,664.602c-8.87,0-16.06-7.19-16.06-16.059
			c0-8.869,7.191-16.059,16.06-16.059c8.87,0,16.06,7.19,16.06,16.059C220.977,657.412,213.786,664.602,204.916,664.602z"/>
		<g id="Layer_4_1_" display="none">
			
				<linearGradient id="SVGID_11_" gradientUnits="userSpaceOnUse" x1="208.2145" y1="258.7511" x2="207.4529" y2="229.3836" gradientTransform="matrix(1 0 0 -1 0 902)">
				<stop  offset="0" style="stop-color:#FFAD15"/>
				<stop  offset="1" style="stop-color:#FFFF36"/>
			</linearGradient>
			<path display="inline" fill="url(#SVGID_11_)" d="M223.449,670.615h-31.474v-15.933c0-3.744,3.035-6.78,6.779-6.78h14.571
				c5.591,0,10.124,4.533,10.124,10.124V670.615z"/>
			<path display="inline" fill="#FFFFFF" d="M211.562,655.37c-0.163-2.339-1.547-4.067-3.094-3.887
				c-1.547,0.18-2.687,2.231-2.524,4.534c0,0.108,0.027,0.252,0.027,0.36l0,0c0.217,1.188,0.95,2.303,0.95,2.303l2.796-2.519
				l0.407-0.036l-2.524,2.627l0.054,1.08l2.741-3.347l0.299-0.036l-2.253,3.239l0.081,1.188l2.28-3.958l0.272-0.036l-1.927,3.815
				l0.163,1.224l1.384-3.095c0.841-1.943,0.869-2.519,0.869-2.519C211.589,656.018,211.589,655.694,211.562,655.37z"/>
			<path display="inline" opacity="0.14" fill="#A85A05" enable-background="new    " d="M209.494,648.021h-9.622
				c1.15,3.592,4.506,6.196,8.479,6.196c3.289,0,6.088-2.081,7.162-4.998c0.23-0.625-0.234-1.29-0.9-1.29h-3.486
				C210.58,647.989,210.035,648.021,209.494,648.021z"/>
			
				<linearGradient id="SVGID_12_" gradientUnits="userSpaceOnUse" x1="216.3111" y1="242.5095" x2="217.9335" y2="242.5095" gradientTransform="matrix(1 0 0 -1 0 902)">
				<stop  offset="0" style="stop-color:#000000"/>
				<stop  offset="1" style="stop-color:#000000"/>
			</linearGradient>
			<polygon display="inline" opacity="0.13" fill="url(#SVGID_12_)" enable-background="new    " points="216.311,654.248 
				217.933,663.152 216.311,664.733 			"/>
			
				<linearGradient id="SVGID_13_" gradientUnits="userSpaceOnUse" x1="196.946" y1="243.5723" x2="198.7897" y2="243.5723" gradientTransform="matrix(1 0 0 -1 0 902)">
				<stop  offset="0" style="stop-color:#000000"/>
				<stop  offset="1" style="stop-color:#000000"/>
			</linearGradient>
			<polygon display="inline" opacity="0.13" fill="url(#SVGID_13_)" enable-background="new    " points="198.79,654.604 
				198.79,662.251 196.946,661.866 			"/>
			
				<linearGradient id="SVGID_14_" gradientUnits="userSpaceOnUse" x1="208.0718" y1="250.948" x2="208.0183" y2="257.4593" gradientTransform="matrix(1 0 0 -1 0 902)">
				<stop  offset="0" style="stop-color:#000000"/>
				<stop  offset="0.8065" style="stop-color:#000000"/>
			</linearGradient>
			<path display="inline" opacity="0.15" fill="url(#SVGID_14_)" enable-background="new    " d="M210.277,651.471h-4.216
				c-1.507,0-2.728-1.222-2.728-2.729v-3.761h9.41v4.024C212.742,650.367,211.638,651.471,210.277,651.471z"/>
			
				<linearGradient id="SVGID_15_" gradientUnits="userSpaceOnUse" x1="208.0205" y1="256.2032" x2="208.1955" y2="250.0169" gradientTransform="matrix(1 0 0 -1 0 902)">
				<stop  offset="0" style="stop-color:#FF8D66"/>
				<stop  offset="0.1327" style="stop-color:#FF9B77"/>
				<stop  offset="0.6991" style="stop-color:#FFD1BA"/>
				<stop  offset="0.9649" style="stop-color:#FFE7D4"/>
			</linearGradient>
			<path display="inline" fill="url(#SVGID_15_)" d="M210.277,650.822h-4.216c-1.507,0-2.728-1.222-2.728-2.729v-3.436h9.41v3.7
				C212.742,649.718,211.638,650.822,210.277,650.822z"/>
		</g>
		
			<linearGradient id="SVGID_16_" gradientUnits="userSpaceOnUse" x1="209.0475" y1="242.3994" x2="208.8984" y2="257.5054" gradientTransform="matrix(1 0 0 -1 0 902)">
			<stop  offset="0" style="stop-color:#310095"/>
			<stop  offset="0.9678" style="stop-color:#000000"/>
		</linearGradient>
		<path display="none" opacity="0.29" fill="url(#SVGID_16_)" enable-background="new    " d="M208.44,655.165
			c-6.594,0-12.457-3.227-16.212-8.237h-3.173v17.846h39.91v-17.846h-4.313C220.897,651.938,215.034,655.165,208.44,655.165z"/>
		
			<linearGradient id="SVGID_17_" gradientUnits="userSpaceOnUse" x1="169.8198" y1="261.4615" x2="170.1772" y2="334.193" gradientTransform="matrix(1 0 0 -1 0 902)">
			<stop  offset="0" style="stop-color:#FFFFFF"/>
			<stop  offset="0.9678" style="stop-color:#FFFFFF"/>
		</linearGradient>
		<path fill="url(#SVGID_17_)" d="M133.642,596.417c0.882-0.731-0.798,44.099-0.798,44.099s15.964,10.737,15.824,10.514
			s14.533,12.537,14.533,12.537l9.794,14.565l12.737-25.258l21.023-4.018l-2.249-34.692l-2.978-20.287l-36.022-3.688
			L133.642,596.417z"/>
		
			<linearGradient id="SVGID_18_" gradientUnits="userSpaceOnUse" x1="210.1628" y1="241.5701" x2="210.4479" y2="299.5943" gradientTransform="matrix(1 0 0 -1 0 902)">
			<stop  offset="0" style="stop-color:#733FFF"/>
			<stop  offset="0.9678" style="stop-color:#2A7CFF"/>
		</linearGradient>
		<path display="none" fill="url(#SVGID_18_)" d="M239.23,649.292c0-16.023-12.989-29.012-29.012-29.012
			s-29.012,12.989-29.012,29.012c0,8.777,3.903,16.638,10.062,21.958l18.914,19.158l19.896-19.875l-0.052-0.052
			C235.687,665.186,239.23,657.655,239.23,649.292z M210.045,664.489c-8.87,0-16.06-7.191-16.06-16.06
			c0-8.87,7.191-16.06,16.06-16.06c8.87,0,16.06,7.191,16.06,16.06C226.105,657.299,218.915,664.489,210.045,664.489z"/>
		
			<linearGradient id="SVGID_19_" gradientUnits="userSpaceOnUse" x1="208.9407" y1="181.6806" x2="243.8837" y2="181.6806" gradientTransform="matrix(1 0 0 -1 0 902)">
			<stop  offset="0" style="stop-color:#8D0080"/>
			<stop  offset="0.9678" style="stop-color:#7F002A"/>
		</linearGradient>
		<path display="none" fill="url(#SVGID_19_)" d="M243.884,716.709c0-9.648-7.822-17.47-17.471-17.47
			c-9.649,0-17.471,7.821-17.471,17.47c0,5.285,2.35,10.019,6.059,13.222l11.47,11.469l2.813,0.001l-0.216-1.955l-0.321-0.321
			l9.626-9.625l-0.031-0.031C241.75,726.279,243.884,721.744,243.884,716.709z M226.308,725.859c-5.341,0-9.672-4.33-9.672-9.671
			s4.33-9.671,9.672-9.671s9.672,4.33,9.672,9.671S231.65,725.859,226.308,725.859z"/>
		
			<linearGradient id="SVGID_20_" gradientUnits="userSpaceOnUse" x1="211.8337" y1="181.7161" x2="246.7767" y2="181.7161" gradientTransform="matrix(1 0 0 -1 0 902)">
			<stop  offset="0" style="stop-color:#E00080"/>
			<stop  offset="0.9678" style="stop-color:#A41586"/>
		</linearGradient>
		<path display="none" fill="url(#SVGID_20_)" d="M246.777,716.639c0-9.649-7.822-17.471-17.471-17.471
			c-9.649,0-17.471,7.822-17.471,17.471c0,5.286,2.35,10.02,6.059,13.223l11.39,11.537l11.981-11.969l-0.031-0.031
			C244.643,726.211,246.777,721.676,246.777,716.639z M229.201,725.791c-5.341,0-9.672-4.33-9.672-9.672s4.33-9.672,9.672-9.672
			c5.341,0,9.672,4.33,9.672,9.672C238.873,721.461,234.543,725.791,229.201,725.791z"/>
		
			<linearGradient id="SVGID_21_" gradientUnits="userSpaceOnUse" x1="163.0733" y1="255.1118" x2="163.5138" y2="344.7641" gradientTransform="matrix(1 0 0 -1 0 902)">
			<stop  offset="0" style="stop-color:#310095"/>
			<stop  offset="0.9678" style="stop-color:#2E2EFF"/>
		</linearGradient>
		<path fill="url(#SVGID_21_)" d="M192.811,584.998H133.59c-6.459,0-11.694,4.559-11.694,10.183v51.57
			c0,5.624,5.236,10.184,11.694,10.184h13.707l18.072,35.419l7.467,0.901l-0.311-10.672l-3.056-0.379l10.469-25.269h12.872
			c6.459,0,11.694-4.559,11.694-10.184v-51.57C204.506,589.557,199.27,584.998,192.811,584.998z M190.741,637.93
			c0,3.777-3.516,6.839-7.853,6.839h-8.644l-10.117,24.42l-11.803-24.42h-9.205c-4.337,0-7.853-3.062-7.853-6.839v-34.631
			c0-3.777,3.516-6.839,7.853-6.839h39.769c4.337,0,7.853,3.062,7.853,6.839V637.93z"/>
		
			<linearGradient id="SVGID_22_" gradientUnits="userSpaceOnUse" x1="171.0359" y1="255.1081" x2="171.4768" y2="344.8288" gradientTransform="matrix(1 0 0 -1 0 902)">
			<stop  offset="0" style="stop-color:#733FFF"/>
			<stop  offset="0.9678" style="stop-color:#2A7CFF"/>
		</linearGradient>
		<path fill="url(#SVGID_22_)" d="M200.774,584.954h-59.221c-6.459,0-11.694,4.559-11.694,10.184v51.57
			c0,5.624,5.236,10.183,11.694,10.183h13.707l17.576,36.364l15.066-36.364h12.872c6.459,0,11.694-4.559,11.694-10.183v-51.57
			C212.468,589.513,207.233,584.954,200.774,584.954z M198.704,637.886c0,3.777-3.516,6.839-7.853,6.839h-8.644l-10.117,24.42
			l-11.803-24.42h-9.205c-4.337,0-7.853-3.062-7.853-6.839v-34.631c0-3.777,3.516-6.839,7.853-6.839h39.769
			c4.337,0,7.853,3.062,7.853,6.839V637.886z"/>
	</g>
	<g id="Layer_2_4_" display="inline">
		
			<linearGradient id="SVGID_23_" gradientUnits="userSpaceOnUse" x1="153.1796" y1="272.6169" x2="161.1457" y2="272.6057" gradientTransform="matrix(1 0 0 -1 0 902)">
			<stop  offset="0" style="stop-color:#2A1800"/>
			<stop  offset="0.3201" style="stop-color:#170D00"/>
			<stop  offset="0.7083" style="stop-color:#060300"/>
			<stop  offset="1" style="stop-color:#000000"/>
		</linearGradient>
		<path fill="url(#SVGID_23_)" d="M157.169,634.92h-2.791c-2.863,0-5.184-2.321-5.184-5.184v-5.898h7.975V634.92z"/>
		
			<linearGradient id="SVGID_24_" gradientUnits="userSpaceOnUse" x1="228.7609" y1="207.1174" x2="229.0055" y2="235.0434" gradientTransform="matrix(0.9918 0.1277 0.1277 -0.9918 -88.024 820.0387)">
			<stop  offset="0" style="stop-color:#FFAF99"/>
			<stop  offset="0.2083" style="stop-color:#FFCEBA"/>
			<stop  offset="0.4023" style="stop-color:#FFE7D4"/>
		</linearGradient>
		<path fill="url(#SVGID_24_)" d="M153.538,623.265c-2.954,8.723,9.468,19.189,9.468,19.189c3.851,2.552,7.917-0.201,7.917-0.201
			c11.056-6.588,11.349-14.561,11.349-14.561c-0.021-8.378-6-13.152-6-13.152l-13.194-1.698l-7.991,4.069L153.538,623.265z"/>
		
			<linearGradient id="SVGID_25_" gradientUnits="userSpaceOnUse" x1="208.5644" y1="239.553" x2="208.726" y2="258.0114" gradientTransform="matrix(1 0 0 -1 0 902)">
			<stop  offset="0" style="stop-color:#FFAF99"/>
			<stop  offset="0.214" style="stop-color:#FFD2BB"/>
			<stop  offset="0.4023" style="stop-color:#FFECD4"/>
		</linearGradient>
		<path display="none" fill="url(#SVGID_25_)" d="M208.011,662.178L208.011,662.178c-5.254,0-9.514-4.259-9.514-9.514v-10.294
			h20.407v8.914C218.905,657.301,214.027,662.178,208.011,662.178z"/>
		
			<linearGradient id="SVGID_26_" gradientUnits="userSpaceOnUse" x1="191.5628" y1="602.8131" x2="202.5849" y2="602.8131" gradientTransform="matrix(0.8298 -0.0692 -0.0801 -0.9606 61.313 1220.271)">
			<stop  offset="0" style="stop-color:#000000"/>
			<stop  offset="1" style="stop-color:#000C2A"/>
		</linearGradient>
		<path fill="url(#SVGID_26_)" d="M174.426,630.876l-2.178,0.208v-2.557c-0.207-2.504,1.222-3.871,3.726-4.078l4.896-0.415l0,0
			c0.239,2.935-2.312,6.109-5.518,6.794C175.048,630.891,174.729,630.907,174.426,630.876z"/>
		
			<linearGradient id="SVGID_27_" gradientUnits="userSpaceOnUse" x1="200.5647" y1="536.6897" x2="209.1884" y2="536.6897" gradientTransform="matrix(0.9537 -0.3006 -0.3006 -0.9537 142.5383 1201.3499)">
			<stop  offset="0" style="stop-color:#FFFFFF"/>
			<stop  offset="0" style="stop-color:#FFFFFF"/>
		</linearGradient>
		<path fill="url(#SVGID_27_)" d="M174.059,626.442c-0.399,0.128-1.465,0.28-1.385,0.806l0,0c-0.277,0.83-0.277,1.727,0,2.557l0,0
			c0.048,0.255,0.875,0.544,1.067,0.56l0.335,0.128c0.51,0.191,1.068,0.223,1.595,0.032c1.994-0.718,4.673-3.27,4.386-5.981
			L174.059,626.442z"/>
		
			<linearGradient id="SVGID_28_" gradientUnits="userSpaceOnUse" x1="312.7441" y1="259.7953" x2="311.3678" y2="263.6046" gradientTransform="matrix(0.9624 0.2715 0.2715 -0.9624 -196.2597 794.8368)">
			<stop  offset="0" style="stop-color:#D49400"/>
			<stop  offset="0.0171" style="stop-color:#C78B00"/>
			<stop  offset="0.1051" style="stop-color:#8B6100"/>
			<stop  offset="0.1899" style="stop-color:#5A3F00"/>
			<stop  offset="0.2691" style="stop-color:#332300"/>
			<stop  offset="0.3417" style="stop-color:#171000"/>
			<stop  offset="0.4052" style="stop-color:#060400"/>
			<stop  offset="0.4528" style="stop-color:#000000"/>
			<stop  offset="1" style="stop-color:#000000"/>
		</linearGradient>
		<path fill="url(#SVGID_28_)" d="M174.357,629.92L174.357,629.92c-1.015-0.284-1.611-1.323-1.336-2.325l0.233-0.82
			c0.108-0.368,0.229-0.67,0.448-1.003c0.498-0.76,1.093-1.057,1.846-0.925l0,0l0,0c1.26,0.521,2.001,1.98,1.649,3.274l-0.077,0.293
			C176.765,629.592,175.532,630.252,174.357,629.92z"/>
		
			<linearGradient id="SVGID_29_" gradientUnits="userSpaceOnUse" x1="1263.3556" y1="525.9377" x2="1274.3777" y2="525.9377" gradientTransform="matrix(-0.8298 -0.0692 0.0801 -0.9606 1169.7627 1220.271)">
			<stop  offset="0" style="stop-color:#000000"/>
			<stop  offset="1" style="stop-color:#000C2A"/>
		</linearGradient>
		<path fill="url(#SVGID_29_)" d="M160.193,630.506c-3.206-0.686-5.758-3.86-5.518-6.794l0,0l4.896,0.415
			c2.504,0.207,3.933,1.574,3.726,4.078v2.557l-2.178-0.208C160.815,630.586,160.496,630.57,160.193,630.506z"/>
		
			<linearGradient id="SVGID_30_" gradientUnits="userSpaceOnUse" x1="1054.8118" y1="267.7735" x2="1063.4355" y2="267.7735" gradientTransform="matrix(-0.9537 -0.3006 0.3006 -0.9537 1088.5375 1201.3499)">
			<stop  offset="0" style="stop-color:#FFFFFF"/>
			<stop  offset="0" style="stop-color:#FFFFFF"/>
		</linearGradient>
		<path fill="url(#SVGID_30_)" d="M155.488,624.222c-0.287,2.711,2.392,5.263,4.386,5.981c0.526,0.191,1.084,0.16,1.595-0.032
			l0.335-0.128c0.191-0.016,1.019-0.305,1.067-0.56l0,0c0.277-0.83,0.277-1.727,0-2.557l0,0c0.08-0.526-0.987-0.678-1.385-0.806
			L155.488,624.222z"/>
		
			<linearGradient id="SVGID_31_" gradientUnits="userSpaceOnUse" x1="1174.578" y1="503.2638" x2="1173.2015" y2="507.0731" gradientTransform="matrix(-0.9624 0.2715 -0.2715 -0.9624 1427.3353 794.8368)">
			<stop  offset="0" style="stop-color:#D49400"/>
			<stop  offset="0.0171" style="stop-color:#C78B00"/>
			<stop  offset="0.1051" style="stop-color:#8B6100"/>
			<stop  offset="0.1899" style="stop-color:#5A3F00"/>
			<stop  offset="0.2691" style="stop-color:#332300"/>
			<stop  offset="0.3417" style="stop-color:#171000"/>
			<stop  offset="0.4052" style="stop-color:#060400"/>
			<stop  offset="0.4528" style="stop-color:#000000"/>
			<stop  offset="1" style="stop-color:#000000"/>
		</linearGradient>
		<path fill="url(#SVGID_31_)" d="M158.426,628.091l-0.077-0.293c-0.353-1.294,0.388-2.753,1.649-3.274l0,0l0,0
			c0.753-0.131,1.348,0.165,1.846,0.925c0.219,0.334,0.34,0.635,0.448,1.003l0.233,0.82c0.275,1.002-0.321,2.041-1.336,2.326l0,0
			C160.013,629.93,158.779,629.27,158.426,628.091z"/>
		
			<linearGradient id="SVGID_32_" gradientUnits="userSpaceOnUse" x1="237.4636" y1="146.5395" x2="240.6808" y2="147.9547" gradientTransform="matrix(0.9597 0.2811 0.2811 -0.9597 -103.5513 705.1716)">
			<stop  offset="0" style="stop-color:#FFAF99"/>
			<stop  offset="0.5177" style="stop-color:#FFCEBA"/>
			<stop  offset="1" style="stop-color:#FFE7D4"/>
		</linearGradient>
		<path fill="url(#SVGID_32_)" d="M167.632,635.006l-1.092-0.32c-0.691-0.203-1.088-0.927-0.885-1.619l1.79-6.111l0,0l1.533,6.786
			C169.157,634.539,168.416,635.235,167.632,635.006z"/>
		<g>
			<g>
				<defs>
					<path id="SVGID_33_" d="M153.473,623.241c-2.954,8.723,9.468,19.189,9.468,19.189c3.851,2.552,7.917-0.201,7.917-0.201
						c11.056-6.588,11.349-14.561,11.349-14.561c-0.021-8.378-6-13.152-6-13.152l-13.194-1.698l-7.991,4.069L153.473,623.241z"/>
				</defs>
				<clipPath id="SVGID_34_">
					<use xlink:href="#SVGID_33_"  overflow="visible"/>
				</clipPath>
				<g opacity="0.43" clip-path="url(#SVGID_34_)">
					
						<linearGradient id="SVGID_35_" gradientUnits="userSpaceOnUse" x1="202.892" y1="526.3113" x2="211.0493" y2="532.5838" gradientTransform="matrix(0.9537 -0.3006 -0.3006 -0.9537 142.5383 1201.3499)">
						<stop  offset="0" style="stop-color:#FF726A;stop-opacity:0.4"/>
						<stop  offset="0.1881" style="stop-color:#F9504B;stop-opacity:0.4"/>
						<stop  offset="0.42" style="stop-color:#F22E2A;stop-opacity:0.4"/>
						<stop  offset="0.6393" style="stop-color:#EE1413;stop-opacity:0.4"/>
						<stop  offset="0.8386" style="stop-color:#EB0505;stop-opacity:0.4"/>
						<stop  offset="1" style="stop-color:#EA0000;stop-opacity:0.4"/>
					</linearGradient>
					<path fill="url(#SVGID_35_)" d="M185.224,633.538c0.957,2.906-0.542,5.934-3.333,6.775c-2.791,0.841-5.821-0.826-6.778-3.716
						c-0.957-2.906,0.542-5.934,3.333-6.775C181.237,628.981,184.267,630.648,185.224,633.538z"/>
					
						<linearGradient id="SVGID_36_" gradientUnits="userSpaceOnUse" x1="1057.1348" y1="257.383" x2="1065.292" y2="263.6555" gradientTransform="matrix(-0.9537 -0.3006 0.3006 -0.9537 1088.5375 1201.3499)">
						<stop  offset="0" style="stop-color:#FF726A;stop-opacity:0.4"/>
						<stop  offset="0.1881" style="stop-color:#F9504B;stop-opacity:0.4"/>
						<stop  offset="0.42" style="stop-color:#F22E2A;stop-opacity:0.4"/>
						<stop  offset="0.6393" style="stop-color:#EE1413;stop-opacity:0.4"/>
						<stop  offset="0.8386" style="stop-color:#EB0505;stop-opacity:0.4"/>
						<stop  offset="1" style="stop-color:#EA0000;stop-opacity:0.4"/>
					</linearGradient>
					<path fill="url(#SVGID_36_)" d="M157.099,629.514c2.791,0.841,4.29,3.869,3.333,6.775c-0.957,2.89-3.987,4.557-6.778,3.716
						c-2.791-0.841-4.29-3.869-3.333-6.775C151.278,630.34,154.308,628.673,157.099,629.514z"/>
				</g>
			</g>
		</g>
		
			<linearGradient id="SVGID_37_" gradientUnits="userSpaceOnUse" x1="152.2147" y1="282.322" x2="182.0505" y2="282.322" gradientTransform="matrix(1 0 0 -1 0 902)">
			<stop  offset="0" style="stop-color:#000000"/>
			<stop  offset="1" style="stop-color:#000000"/>
		</linearGradient>
		<path opacity="0.31" fill="url(#SVGID_37_)" enable-background="new    " d="M178.359,625.969h-21.308
			c-2.671,0-4.837-2.165-4.837-4.837v-7.746h29.836v8.891C182.051,624.316,180.398,625.969,178.359,625.969z"/>
		
			<linearGradient id="SVGID_38_" gradientUnits="userSpaceOnUse" x1="150.51" y1="286.8997" x2="185.0343" y2="286.8997" gradientTransform="matrix(1 0 0 -1 0 902)">
			<stop  offset="0" style="stop-color:#000000"/>
			<stop  offset="1" style="stop-color:#000000"/>
		</linearGradient>
		<path fill="url(#SVGID_38_)" d="M185.034,622.985H150.51V616c0-4.852,3.933-8.785,8.785-8.785h16.26
			c5.235,0,9.479,4.244,9.479,9.479V622.985z"/>
		<g id="Layer_3_1_">
			
				<linearGradient id="SVGID_39_" gradientUnits="userSpaceOnUse" x1="328.7216" y1="183.5629" x2="325.827" y2="191.5742" gradientTransform="matrix(0.8468 0.5319 0.7502 -1.1943 -264.4342 671.3091)">
				<stop  offset="0" style="stop-color:#2A1800"/>
				<stop  offset="0.3201" style="stop-color:#170D00"/>
				<stop  offset="0.7083" style="stop-color:#060300"/>
				<stop  offset="1" style="stop-color:#000000"/>
			</linearGradient>
			<path fill="url(#SVGID_39_)" d="M151.768,627.69l-1.1-0.581c-2.712-1.432-3.529-4.441-1.825-6.721l5.283-7.072l6.01,3.174
				L151.768,627.69z"/>
			
				<linearGradient id="SVGID_40_" gradientUnits="userSpaceOnUse" x1="177.5282" y1="276.8932" x2="173.8189" y2="287.1596" gradientTransform="matrix(1 0 0 -1 0 902)">
				<stop  offset="0" style="stop-color:#2A1800"/>
				<stop  offset="0.3201" style="stop-color:#170D00"/>
				<stop  offset="0.7083" style="stop-color:#060300"/>
				<stop  offset="1" style="stop-color:#000000"/>
			</linearGradient>
			<path fill="url(#SVGID_40_)" d="M180.772,624.69h-8.588c-1.613,0-2.92-1.307-2.92-2.92v-7.735h11.508V624.69z"/>
			
				<linearGradient id="SVGID_41_" gradientUnits="userSpaceOnUse" x1="156.0363" y1="277.0054" x2="156.8732" y2="284.5716" gradientTransform="matrix(1 0 0 -1 0 902)">
				<stop  offset="0" style="stop-color:#2A1800"/>
				<stop  offset="0.3201" style="stop-color:#170D00"/>
				<stop  offset="0.7083" style="stop-color:#060300"/>
				<stop  offset="1" style="stop-color:#000000"/>
			</linearGradient>
			<path fill="url(#SVGID_41_)" d="M156.45,626.925h-4.05v-11.508h8.593v6.965C160.993,624.892,158.959,626.925,156.45,626.925z"/>
			
				<linearGradient id="SVGID_42_" gradientUnits="userSpaceOnUse" x1="168.6683" y1="275.9995" x2="164.9177" y2="286.3802" gradientTransform="matrix(1 0 0 -1 0 902)">
				<stop  offset="0" style="stop-color:#513500"/>
				<stop  offset="0.258" style="stop-color:#322100"/>
				<stop  offset="0.5501" style="stop-color:#170F00"/>
				<stop  offset="0.8073" style="stop-color:#060400"/>
				<stop  offset="1" style="stop-color:#000000"/>
			</linearGradient>
			<path fill="url(#SVGID_42_)" d="M169.69,626.395h-3.814c-1.896,0-3.433-1.537-3.433-3.433v-8.928h7.246L169.69,626.395
				L169.69,626.395z"/>
			
				<linearGradient id="SVGID_43_" gradientUnits="userSpaceOnUse" x1="182.9052" y1="278.7085" x2="178.3152" y2="291.412" gradientTransform="matrix(1 0 0 -1 0 902)">
				<stop  offset="0" style="stop-color:#2A1800"/>
				<stop  offset="0.3201" style="stop-color:#170D00"/>
				<stop  offset="0.7083" style="stop-color:#060300"/>
				<stop  offset="1" style="stop-color:#000000"/>
			</linearGradient>
			<path fill="url(#SVGID_43_)" d="M183.103,632.328l-2.16-0.001l0.289-17.474h1.87c1.556,0,2.818,1.262,2.818,2.818v11.839
				C185.921,631.066,184.66,632.328,183.103,632.328z"/>
		</g>
		
			<linearGradient id="SVGID_44_" gradientUnits="userSpaceOnUse" x1="318.5357" y1="232.6371" x2="321.3118" y2="232.6371" gradientTransform="matrix(1.519 -0.1257 -0.0544 -0.658 -305.6952 829.676)">
			<stop  offset="0" style="stop-color:#7F0003"/>
			<stop  offset="1" style="stop-color:#880001"/>
		</linearGradient>
		<path opacity="0.6" fill="url(#SVGID_44_)" enable-background="new    " d="M165.428,635.551c1.842,4.022,4.268,0.275,4.268,0.275
			C166.846,637.762,165.428,635.551,165.428,635.551z"/>
	</g>
	<g id="Layer_11" display="inline">
		
			<linearGradient id="SVGID_45_" gradientUnits="userSpaceOnUse" x1="168.5728" y1="306.6602" x2="168.0305" y2="295.189" gradientTransform="matrix(1 0 0 -1 0 902)">
			<stop  offset="0" style="stop-color:#3FB1FF"/>
			<stop  offset="1" style="stop-color:#2E2AFF"/>
		</linearGradient>
		<path fill="url(#SVGID_45_)" d="M181.751,618.263h-28.212c-1.842,0-3.335-1.493-3.335-3.335l0,0
			c0-7.392,5.992-13.384,13.384-13.384h8.114c7.392,0,13.384,5.992,13.384,13.384l0,0
			C185.371,616.535,180.537,618.31,181.751,618.263z"/>
		
			<linearGradient id="SVGID_46_" gradientUnits="userSpaceOnUse" x1="167.8217" y1="283.1793" x2="154.3741" y2="284.2734" gradientTransform="matrix(1 0 0 -1 0 902)">
			<stop  offset="0" style="stop-color:#3F88FF"/>
			<stop  offset="1" style="stop-color:#3F56FF"/>
		</linearGradient>
		<path fill="url(#SVGID_46_)" d="M150.443,616.103c6.372,12.715,28.878,3.569,28.878,3.569c2.343-0.79,5.84-3.894,5.84-3.894
			L150.443,616.103z"/>
		<path fill="#FFFFFF" d="M171.285,608.18c-0.226-2.13-2.146-3.703-4.292-3.539c-2.146,0.164-3.727,2.031-3.501,4.129
			c0,0.098,0.038,0.229,0.038,0.328l0,0c0.301,1.081,1.318,2.097,1.318,2.097l3.878-2.294l0.565-0.033l-3.501,2.392l0.075,0.983
			l3.802-3.047l0.414-0.033l-3.125,2.949l0.113,1.081l3.162-3.605l0.376-0.033l-2.673,3.473l0.226,1.114l1.92-2.818
			c1.167-1.769,1.205-2.294,1.205-2.294C171.323,608.77,171.323,608.475,171.285,608.18z"/>
	</g>
	<g id="Layer_14" display="inline">
		
			<linearGradient id="SVGID_47_" gradientUnits="userSpaceOnUse" x1="211.2604" y1="154.784" x2="233.9331" y2="154.784" gradientTransform="matrix(1 0 0 -1 0 902)">
			<stop  offset="0" style="stop-color:#4A254A"/>
			<stop  offset="0.7109" style="stop-color:#161434"/>
			<stop  offset="1" style="stop-color:#000C2A"/>
		</linearGradient>
		<polygon fill="url(#SVGID_47_)" points="211.26,751.22 222.204,743.212 233.933,751.22 		"/>
		
			<linearGradient id="SVGID_48_" gradientUnits="userSpaceOnUse" x1="215.5791" y1="145.9216" x2="230.1543" y2="145.9216" gradientTransform="matrix(1 0 0 -1 0 902)">
			<stop  offset="0" style="stop-color:#4A254A"/>
			<stop  offset="0.7109" style="stop-color:#161434"/>
			<stop  offset="1" style="stop-color:#000C2A"/>
		</linearGradient>
		<polygon fill="url(#SVGID_48_)" points="215.579,749.6 215.579,762.556 220.437,762.556 220.437,757.698 225.296,757.698 
			225.296,762.556 230.154,762.556 230.154,749.6 		"/>
	</g>
	<g id="Layer_15" display="inline">
		
			<linearGradient id="SVGID_49_" gradientUnits="userSpaceOnUse" x1="209.1072" y1="181.0818" x2="244.0501" y2="181.0818" gradientTransform="matrix(1 0 0 -1 0 902)">
			<stop  offset="0" style="stop-color:#8D0080"/>
			<stop  offset="0.9678" style="stop-color:#7F002A"/>
		</linearGradient>
		<path display="none" fill="url(#SVGID_49_)" d="M244.05,717.307c0-9.648-7.822-17.47-17.471-17.47s-17.471,7.821-17.471,17.47
			c0,5.285,2.35,10.019,6.059,13.222l11.47,11.469l2.813,0.001l-0.216-1.955l-0.321-0.321l9.626-9.625l-0.031-0.031
			C241.916,726.878,244.05,722.343,244.05,717.307z M226.475,726.458c-5.341,0-9.672-4.33-9.672-9.671
			c0-5.341,4.33-9.671,9.672-9.671c5.341,0,9.672,4.33,9.672,9.671C236.147,722.128,231.816,726.458,226.475,726.458z"/>
		
			<linearGradient id="SVGID_50_" gradientUnits="userSpaceOnUse" x1="205.4072" y1="125.4084" x2="232.4639" y2="125.4084" gradientTransform="matrix(1 0 0 -1 0 902)">
			<stop  offset="0" style="stop-color:#8D0080"/>
			<stop  offset="0.9678" style="stop-color:#7F002A"/>
		</linearGradient>
		<polygon fill="url(#SVGID_50_)" points="229.452,774.812 207.395,782.53 205.407,780.561 211.26,778.211 232.313,770.654 
			232.464,773.839 		"/>
		
			<linearGradient id="SVGID_51_" gradientUnits="userSpaceOnUse" x1="191.4258" y1="141.4546" x2="249.56" y2="141.4546" gradientTransform="matrix(1 0 0 -1 0 902)">
			<stop  offset="0" style="stop-color:#8D0080"/>
			<stop  offset="0.9678" style="stop-color:#7F002A"/>
		</linearGradient>
		<path fill="url(#SVGID_51_)" d="M249.56,754.482c0-16.054-13.014-29.067-29.067-29.067c-16.054,0-29.067,13.014-29.067,29.067
			c0,8.794,3.911,16.67,10.081,22l1.787,1.81l0.949,0.999l1.08-0.54l1.619-1.08l25.912-8.098l-5.106,3.429l-22.057,7.718l2.024,2.05
			l0,0l0.001,0.001l0.925,0.937l0.012-0.005l0.449-0.093l3.025-0.631l-0.362-0.673l18.368-8.245l7.039-2.867l-25.06,16.031l0,0
			l3.033,3.072l3.673-0.749l0.81-1.088l-0.863-1.118l14.921-12.179l6.185-2.889l-22.033,20.751l2.618,2.652l1.061-0.191l2.425-0.539
			l-0.916-1.838l17.363-17.345l-0.052-0.052C246.01,770.407,249.56,762.861,249.56,754.482z M220.32,769.708
			c-8.887,0-16.091-7.204-16.091-16.091s7.204-16.091,16.091-16.091s16.091,7.204,16.091,16.091S229.206,769.708,220.32,769.708z"/>
		
			<linearGradient id="SVGID_52_" gradientUnits="userSpaceOnUse" x1="194.9116" y1="142.184" x2="253.0461" y2="142.184" gradientTransform="matrix(1 0 0 -1 0 902)">
			<stop  offset="0" style="stop-color:#E00080"/>
			<stop  offset="0.9678" style="stop-color:#A41586"/>
		</linearGradient>
		<path fill="url(#SVGID_52_)" d="M253.046,753.753c0-16.054-13.014-29.067-29.067-29.067c-16.054,0-29.067,13.014-29.067,29.067
			c0,8.794,3.911,16.669,10.081,22l1.787,1.81l22.351-6.369l2.104,1.08l-21.053,7.558l1.946,3.148l21.492-9.648l0.854,0.562
			l-18.875,12.602l0,0l3.033,3.072l18.541-15.135l1.891,0.715l-17.739,17.148l2.618,2.652l19.934-19.913l-0.052-0.052
			C249.496,769.677,253.046,762.132,253.046,753.753z M223.806,768.978c-8.887,0-16.091-7.204-16.091-16.091
			s7.204-16.091,16.091-16.091c8.887,0,16.091,7.204,16.091,16.091C239.897,761.774,232.692,768.978,223.806,768.978z"/>
	</g>
</g>
<g id="Layer_5">
	<linearGradient id="SVGID_53_" gradientUnits="userSpaceOnUse" x1="612.2938" y1="679.1033" x2="611.1714" y2="376.1701">
		<stop  offset="0" style="stop-color:#334057"/>
		<stop  offset="0.0759" style="stop-color:#31384C"/>
		<stop  offset="0.3322" style="stop-color:#2B202B"/>
		<stop  offset="0.5779" style="stop-color:#270E13"/>
		<stop  offset="0.8062" style="stop-color:#240405"/>
		<stop  offset="1" style="stop-color:#230000"/>
	</linearGradient>
	<path fill="url(#SVGID_53_)" d="M791.106,689.407v-67.102c0-59.592-61.026-107.902-136.305-107.902h-83.764
		c-76.07,0-137.736,48.817-137.736,109.035v63.738c0,20.288,20.776,36.735,46.405,36.735h267.813
		C771.591,723.912,791.106,708.464,791.106,689.407z"/>
	<linearGradient id="SVGID_54_" gradientUnits="userSpaceOnUse" x1="594.9317" y1="601.1151" x2="493.6598" y2="466.5145">
		<stop  offset="0" style="stop-color:#FFF1E0"/>
		<stop  offset="0.0222" style="stop-color:#F7E8D7"/>
		<stop  offset="0.1776" style="stop-color:#BFAB9F"/>
		<stop  offset="0.3321" style="stop-color:#90776F"/>
		<stop  offset="0.482" style="stop-color:#694C47"/>
		<stop  offset="0.6265" style="stop-color:#4A2B28"/>
		<stop  offset="0.764" style="stop-color:#351312"/>
		<stop  offset="0.8917" style="stop-color:#270505"/>
		<stop  offset="1" style="stop-color:#230000"/>
	</linearGradient>
	<rect x="567.847" y="513.233" fill="url(#SVGID_54_)" width="81.319" height="211.849"/>
	<linearGradient id="SVGID_55_" gradientUnits="userSpaceOnUse" x1="607.5081" y1="586.7227" x2="608.5729" y2="547.1656">
		<stop  offset="0" style="stop-color:#0086D4"/>
		<stop  offset="0.4779" style="stop-color:#0084D2"/>
		<stop  offset="0.6524" style="stop-color:#007DCC"/>
		<stop  offset="0.7772" style="stop-color:#0071C1"/>
		<stop  offset="0.8783" style="stop-color:#0060B2"/>
		<stop  offset="0.9639" style="stop-color:#004B9F"/>
		<stop  offset="1" style="stop-color:#003F94"/>
	</linearGradient>
	<path fill="url(#SVGID_55_)" d="M623.683,567.939h-30.029c-6.904,0-12.5-5.596-12.5-12.5v-11.963c0-6.904,5.596-12.5,12.5-12.5
		h29.383c7.082,0,12.823,5.741,12.823,12.823v11.963C635.86,562.487,630.408,567.939,623.683,567.939z"/>
	<linearGradient id="SVGID_56_" gradientUnits="userSpaceOnUse" x1="618.718" y1="594.66" x2="625.6964" y2="462.1595">
		<stop  offset="0" style="stop-color:#0059D4"/>
		<stop  offset="0.0635" style="stop-color:#0056CB"/>
		<stop  offset="0.3233" style="stop-color:#004DAA"/>
		<stop  offset="0.5722" style="stop-color:#004692"/>
		<stop  offset="0.8035" style="stop-color:#004284"/>
		<stop  offset="1" style="stop-color:#00417F"/>
	</linearGradient>
	<path fill="url(#SVGID_56_)" d="M614.683,750.218L614.683,750.218c-12.802,0-23.179-9.363-23.179-20.913l10.35-188.521
		c0.367-5.366-0.341-5.494,3.766-5.336h11.019c0,1.334,1.009,11.371,1.479,20.01l13.307,179.656
		C631.424,743.455,623.929,750.218,614.683,750.218z"/>
	<linearGradient id="SVGID_57_" gradientUnits="userSpaceOnUse" x1="609.2927" y1="510.1592" x2="612.3986" y2="573.2272">
		<stop  offset="0" style="stop-color:#FF958D"/>
		<stop  offset="0.2083" style="stop-color:#FFCEBA"/>
		<stop  offset="0.4023" style="stop-color:#FFE7C3"/>
	</linearGradient>
	<path fill="url(#SVGID_57_)" d="M622.592,535.411H596c-9.832,0-17.803-7.971-17.803-17.803v-47.252h60.62v48.831
		C638.817,528.147,631.553,535.411,622.592,535.411z"/>
	<linearGradient id="SVGID_58_" gradientUnits="userSpaceOnUse" x1="630.0207" y1="540.3019" x2="671.5688" y2="563.5492">
		<stop  offset="0" style="stop-color:#FFF1E0"/>
		<stop  offset="0.1409" style="stop-color:#E6D5C6"/>
		<stop  offset="0.4454" style="stop-color:#A58E84"/>
		<stop  offset="0.8869" style="stop-color:#3E1E1C"/>
		<stop  offset="1" style="stop-color:#230000"/>
	</linearGradient>
	<polygon fill="url(#SVGID_58_)" points="649.167,513.233 638.817,511.423 614.829,535.411 635.86,581.351 649.167,542.764 	"/>
	
		<linearGradient id="SVGID_59_" gradientUnits="userSpaceOnUse" x1="590.0771" y1="553.8923" x2="557.4565" y2="589.4218" gradientTransform="matrix(-1 0 0 1 1180.7756 0)">
		<stop  offset="0" style="stop-color:#FFF1E0"/>
		<stop  offset="0.0222" style="stop-color:#F7E8D7"/>
		<stop  offset="0.1776" style="stop-color:#BFAB9F"/>
		<stop  offset="0.3321" style="stop-color:#90776F"/>
		<stop  offset="0.482" style="stop-color:#694C47"/>
		<stop  offset="0.6265" style="stop-color:#4A2B28"/>
		<stop  offset="0.764" style="stop-color:#351312"/>
		<stop  offset="0.8917" style="stop-color:#270505"/>
		<stop  offset="1" style="stop-color:#230000"/>
	</linearGradient>
	<polygon fill="url(#SVGID_59_)" points="567.847,512.037 579.088,510.227 605.142,534.215 582.3,580.154 567.847,541.568 	"/>
</g>
<g id="Layer_3">
	<linearGradient id="SVGID_60_" gradientUnits="userSpaceOnUse" x1="60" y1="342.8817" x2="321.7005" y2="342.8817">
		<stop  offset="0" style="stop-color:#4F4D8B"/>
		<stop  offset="0.9678" style="stop-color:#3163A4"/>
	</linearGradient>
	<path fill="url(#SVGID_60_)" d="M289.614,473.732H92.087C74.366,473.732,60,459.366,60,441.645V244.118
		c0-17.721,14.366-32.087,32.087-32.087h197.527c17.721,0,32.087,14.366,32.087,32.087v197.527
		C321.701,459.366,307.335,473.732,289.614,473.732z"/>
	<linearGradient id="SVGID_61_" gradientUnits="userSpaceOnUse" x1="73.3068" y1="331.0534" x2="335.0073" y2="331.0534">
		<stop  offset="0" style="stop-color:#CFDDCF"/>
		<stop  offset="0.9678" style="stop-color:#C4E2FF"/>
	</linearGradient>
	<path fill="url(#SVGID_61_)" d="M302.921,461.904H105.393c-17.721,0-32.087-14.366-32.087-32.087V232.29
		c0-17.721,14.366-32.087,32.087-32.087h197.527c17.721,0,32.087,14.366,32.087,32.087v197.527
		C335.007,447.538,320.642,461.904,302.921,461.904z"/>
	<linearGradient id="SVGID_62_" gradientUnits="userSpaceOnUse" x1="74.7853" y1="685.9015" x2="336.4858" y2="685.9015">
		<stop  offset="0" style="stop-color:#310095"/>
		<stop  offset="0.9678" style="stop-color:#2E2EFF"/>
	</linearGradient>
	<path fill="url(#SVGID_62_)" d="M304.399,816.752H106.872c-17.721,0-32.087-14.366-32.087-32.087V587.138
		c0-17.721,14.366-32.087,32.087-32.087h197.527c17.721,0,32.087,14.366,32.087,32.087v197.527
		C336.486,802.386,322.12,816.752,304.399,816.752z"/>
	<linearGradient id="SVGID_63_" gradientUnits="userSpaceOnUse" x1="88.0921" y1="674.0732" x2="349.7926" y2="674.0732">
		<stop  offset="0" style="stop-color:#733FFF"/>
		<stop  offset="0.9678" style="stop-color:#2A7CFF"/>
	</linearGradient>
	<path fill="url(#SVGID_63_)" d="M317.706,804.923H120.179c-17.721,0-32.087-14.366-32.087-32.087V575.31
		c0-17.721,14.366-32.087,32.087-32.087h197.527c17.721,0,32.087,14.366,32.087,32.087v197.527
		C349.793,790.558,335.427,804.923,317.706,804.923z"/>
	<linearGradient id="SVGID_64_" gradientUnits="userSpaceOnUse" x1="859.8868" y1="684.423" x2="1121.5873" y2="684.423">
		<stop  offset="0" style="stop-color:#310095"/>
		<stop  offset="0.9678" style="stop-color:#2E2EFF"/>
	</linearGradient>
	<path fill="url(#SVGID_64_)" d="M1089.501,815.273H891.973c-17.721,0-32.087-14.366-32.087-32.087V585.659
		c0-17.721,14.366-32.087,32.087-32.087h197.527c17.721,0,32.087,14.366,32.087,32.087v197.527
		C1121.587,800.908,1107.222,815.273,1089.501,815.273z"/>
	<linearGradient id="SVGID_65_" gradientUnits="userSpaceOnUse" x1="873.1936" y1="672.5947" x2="1134.8942" y2="672.5947">
		<stop  offset="0" style="stop-color:#733FFF"/>
		<stop  offset="0.9678" style="stop-color:#2A7CFF"/>
	</linearGradient>
	<path fill="url(#SVGID_65_)" d="M1102.807,803.445H905.28c-17.721,0-32.087-14.366-32.087-32.087V573.831
		c0-17.721,14.366-32.087,32.087-32.087h197.527c17.721,0,32.087,14.366,32.087,32.087v197.527
		C1134.894,789.079,1120.528,803.445,1102.807,803.445z"/>
	<linearGradient id="SVGID_66_" gradientUnits="userSpaceOnUse" x1="468.0753" y1="363.5811" x2="729.7758" y2="363.5811">
		<stop  offset="0" style="stop-color:#4F4D8B"/>
		<stop  offset="0.9678" style="stop-color:#3163A4"/>
	</linearGradient>
	<path fill="url(#SVGID_66_)" d="M697.689,494.431H500.162c-17.721,0-32.087-14.366-32.087-32.087V264.817
		c0-17.721,14.366-32.087,32.087-32.087h197.527c17.721,0,32.087,14.366,32.087,32.087v197.527
		C729.776,480.066,715.41,494.431,697.689,494.431z"/>
	<linearGradient id="SVGID_67_" gradientUnits="userSpaceOnUse" x1="481.3821" y1="351.7528" x2="743.0826" y2="351.7528">
		<stop  offset="0" style="stop-color:#CFDDCF"/>
		<stop  offset="0.9678" style="stop-color:#C4E2FF"/>
	</linearGradient>
	<path fill="url(#SVGID_67_)" d="M710.996,482.603H513.469c-17.721,0-32.087-14.366-32.087-32.087V252.989
		c0-17.721,14.366-32.087,32.087-32.087h197.527c17.721,0,32.087,14.366,32.087,32.087v197.527
		C743.083,468.237,728.717,482.603,710.996,482.603z"/>
</g>
<g id="Layer_2">
	<linearGradient id="SVGID_68_" gradientUnits="userSpaceOnUse" x1="253.5759" y1="587.905" x2="382.1646" y2="587.905">
		<stop  offset="0" style="stop-color:#4F4D8B"/>
		<stop  offset="0.9678" style="stop-color:#3163A4"/>
	</linearGradient>
	<path fill="url(#SVGID_68_)" d="M375.594,576.642h-9.386c-0.939,0-0.939,0-0.939,0c-0.939-4.693-2.816-9.386-5.632-13.14l6.57-6.57
		c2.816-2.816,2.816-7.509,0-10.325l-6.57-6.57c-2.816-2.816-7.509-2.816-10.325,0l-6.57,6.57
		c-3.754-2.816-7.509-3.754-12.202-4.693v-6.57c0-3.754-2.816-7.509-7.509-7.509h-9.386c-3.754,0-7.509,2.816-7.509,7.509v6.57
		c-2.816,0.939-5.632,1.877-8.447,2.816l0,0l-7.509-7.509c-2.816-2.816-7.509-2.816-10.325,0l-6.57,6.57
		c-2.816,2.816-2.816,7.509,0,10.325l5.632,5.632c-3.754,4.693-5.632,9.386-7.509,15.956h-0.939h-9.386
		c-3.754,0-7.509,2.816-7.509,7.509v9.386c0,3.754,2.816,6.57,7.509,6.57h9.386h0.939c0.939,4.693,2.816,9.386,5.632,13.141
		l-6.57,6.57c-2.816,2.816-2.816,7.509,0,10.325l6.57,6.57c2.816,2.816,7.509,2.816,10.325,0l6.57-6.57
		c3.754,2.816,7.509,3.754,12.202,4.693v6.57c0,3.754,2.816,7.509,7.509,7.509h9.386c3.754,0,7.509-2.816,7.509-7.509v-6.57
		c2.816-0.939,5.632-1.877,8.447-2.816l0,0l6.57,6.57c2.816,2.816,7.509,2.816,10.325,0l6.57-6.57c2.816-2.816,2.816-7.509,0-10.325
		l-5.632-5.632c3.754-4.693,5.632-9.386,7.509-15.956c0,0,0,0,0.939,0h9.386c3.754,0,7.509-2.816,7.509-6.57v-9.386
		C382.165,579.458,379.349,576.642,375.594,576.642z M317.401,563.501c13.14,0,23.465,11.263,23.465,24.404
		s-11.263,24.404-23.465,24.404c-12.202,0-23.465-11.263-23.465-24.404C293.936,573.826,304.261,563.501,317.401,563.501z"/>
	<linearGradient id="SVGID_69_" gradientUnits="userSpaceOnUse" x1="104.1811" y1="341.5954" x2="241.3453" y2="341.5954">
		<stop  offset="0" style="stop-color:#310095"/>
		<stop  offset="0.9678" style="stop-color:#3147A4"/>
	</linearGradient>
	<path fill="url(#SVGID_69_)" d="M241.345,352.099v-21.007H139.122c-15.143,0-28.288,8.513-34.941,21.007H241.345z"/>
	<linearGradient id="SVGID_70_" gradientUnits="userSpaceOnUse" x1="103.6168" y1="433.1748" x2="241.8023" y2="433.1748">
		<stop  offset="0" style="stop-color:#310095"/>
		<stop  offset="0.9678" style="stop-color:#3147A4"/>
	</linearGradient>
	<path fill="url(#SVGID_70_)" d="M103.617,362.215v141.92h138.186v-141.92H103.617z M188.468,470.522h-61.82v-14.939h61.82V470.522z
		 M199.377,438.154h-72.729v-14.939h72.729V438.154z M221.196,405.787h-94.548v-16.184h94.548V405.787z"/>
	<g>
		<g id="Layer_8_4_">
			<linearGradient id="SVGID_71_" gradientUnits="userSpaceOnUse" x1="289.7769" y1="247.1408" x2="337.6442" y2="247.1408">
				<stop  offset="0" style="stop-color:#310095"/>
				<stop  offset="0.9678" style="stop-color:#3147A4"/>
			</linearGradient>
			<path fill="url(#SVGID_71_)" d="M337.644,230.349l-35.741,31.911c-4.468,3.829-12.126,0.638-12.126-5.106v-19.147
				c0-3.829,3.191-7.021,7.021-7.021h31.911h8.935V230.349z"/>
		</g>
		<linearGradient id="SVGID_72_" gradientUnits="userSpaceOnUse" x1="330.287" y1="148.8801" x2="340.3868" y2="148.8801">
			<stop  offset="0" style="stop-color:#310095"/>
			<stop  offset="0.9678" style="stop-color:#3147A4"/>
		</linearGradient>
		<circle fill="url(#SVGID_72_)" cx="335.337" cy="148.88" r="5.05"/>
		<linearGradient id="SVGID_73_" gradientUnits="userSpaceOnUse" x1="371.388" y1="148.8801" x2="381.4879" y2="148.8801">
			<stop  offset="0" style="stop-color:#310095"/>
			<stop  offset="0.9678" style="stop-color:#3147A4"/>
		</linearGradient>
		<circle fill="url(#SVGID_73_)" cx="376.438" cy="148.88" r="5.05"/>
		<linearGradient id="SVGID_74_" gradientUnits="userSpaceOnUse" x1="330.2895" y1="171.1831" x2="379.8656" y2="171.1831">
			<stop  offset="0" style="stop-color:#310095"/>
			<stop  offset="0.9678" style="stop-color:#3147A4"/>
		</linearGradient>
		<path fill="none" stroke="url(#SVGID_74_)" stroke-width="5" stroke-miterlimit="10" d="M344.573,172.797
			c-4.208-1.683-8.417-3.367-11.783-5.05c0,0,0,0,0,0.842c5.892,5.05,13.466,7.575,21.883,7.575c9.258,0,17.675-3.367,23.566-8.417
			C368.139,173.639,356.356,176.164,344.573,172.797z"/>
		<linearGradient id="SVGID_75_" gradientUnits="userSpaceOnUse" x1="240.7071" y1="164.888" x2="459.5301" y2="164.888">
			<stop  offset="0" style="stop-color:#310095"/>
			<stop  offset="0.9678" style="stop-color:#3147A4"/>
		</linearGradient>
		<path fill="url(#SVGID_75_)" d="M434.849,93.918H265.388c-13.631,0-24.681,11.05-24.681,24.681v92.577
			c0,13.631,11.05,24.681,24.681,24.681h169.461c13.631,0,24.681-11.05,24.681-24.681v-92.577
			C459.53,104.968,448.48,93.918,434.849,93.918z M348.64,216.637c-29.397,0-53.227-23.831-53.227-53.227
			s23.831-53.227,53.227-53.227s53.227,23.831,53.227,53.227S378.037,216.637,348.64,216.637z"/>
	</g>
	<g id="Layer_2_2_">
		
			<linearGradient id="SVGID_76_" gradientUnits="userSpaceOnUse" x1="539.4808" y1="544.5897" x2="584.7144" y2="544.5259" gradientTransform="matrix(1 0 0 -1 0 902)">
			<stop  offset="0" style="stop-color:#C46800"/>
			<stop  offset="0.1162" style="stop-color:#AC5800"/>
			<stop  offset="0.4191" style="stop-color:#713300"/>
			<stop  offset="0.678" style="stop-color:#471700"/>
			<stop  offset="0.8799" style="stop-color:#2D0600"/>
			<stop  offset="1" style="stop-color:#230000"/>
		</linearGradient>
		<path fill="url(#SVGID_76_)" d="M562.082,400.741h-15.839c-16.244,0-29.413-18.145-29.413-40.525v-46.111h45.252V400.741z"/>
		<linearGradient id="SVGID_77_" gradientUnits="userSpaceOnUse" x1="690.8344" y1="343.4254" x2="659.7596" y2="345.6476">
			<stop  offset="0" style="stop-color:#C46800"/>
			<stop  offset="0.1162" style="stop-color:#AC5800"/>
			<stop  offset="0.4191" style="stop-color:#713300"/>
			<stop  offset="0.678" style="stop-color:#471700"/>
			<stop  offset="0.8799" style="stop-color:#2D0600"/>
			<stop  offset="1" style="stop-color:#230000"/>
		</linearGradient>
		<path fill="url(#SVGID_77_)" d="M692.262,375.075h-16.997V312.75h31.163v48.16C706.427,368.733,700.085,375.075,692.262,375.075z"
			/>
		
			<linearGradient id="SVGID_78_" gradientUnits="userSpaceOnUse" x1="635.9948" y1="430.392" x2="637.4071" y2="591.6482" gradientTransform="matrix(0.9918 0.1277 0.1277 -0.9918 -88.024 820.0387)">
			<stop  offset="0" style="stop-color:#FFAF99"/>
			<stop  offset="0.2083" style="stop-color:#FFCEBA"/>
			<stop  offset="0.4023" style="stop-color:#FFE7C3"/>
		</linearGradient>
		<path fill="url(#SVGID_78_)" d="M530.29,354.752c-16.763,49.493,48.776,109.747,48.776,109.747
			c21.85,14.482,52.841,6.775,52.841,6.775c63.714-34.026,65.992-99.155,63.68-107.037c-0.118-47.534-33.235-58.809-33.235-58.809
			l-74.861-9.636l-45.344,23.089L530.29,354.752z"/>
		
			<linearGradient id="SVGID_79_" gradientUnits="userSpaceOnUse" x1="845.572" y1="324.7447" x2="846.4891" y2="429.4783" gradientTransform="matrix(1 0 0 -1 0 902)">
			<stop  offset="0" style="stop-color:#FFAF99"/>
			<stop  offset="0.214" style="stop-color:#FFD2BB"/>
			<stop  offset="0.4023" style="stop-color:#FFECD4"/>
		</linearGradient>
		<path display="none" fill="url(#SVGID_79_)" d="M842.433,575.73L842.433,575.73c-29.812,0-53.982-24.168-53.982-53.982v-58.406
			h115.792v50.576C904.243,548.055,876.57,575.73,842.433,575.73z"/>
		
			<linearGradient id="SVGID_80_" gradientUnits="userSpaceOnUse" x1="758.4544" y1="814.6772" x2="813.2692" y2="814.6772" gradientTransform="matrix(0.8244 0.1169 0.1353 -0.9544 -98.5612 1068.8521)">
			<stop  offset="0" style="stop-color:#000000"/>
			<stop  offset="1" style="stop-color:#000C2A"/>
		</linearGradient>
		<path fill="url(#SVGID_80_)" d="M645.574,396.852l-10.793-1.397l2.826-12.401c1.761-12.37,10.2-17.42,22.571-15.659l24.2,3.399
			l0,0c-2.083,14.493-17.962,27.064-34.264,26.847C648.572,397.617,647.008,397.341,645.574,396.852z"/>
		
			<linearGradient id="SVGID_81_" gradientUnits="userSpaceOnUse" x1="706.412" y1="626.5037" x2="749.2993" y2="626.5037" gradientTransform="matrix(0.9966 -0.0812 -0.0812 -0.9966 -15.1622 1068.4493)">
			<stop  offset="0" style="stop-color:#FFFFFF"/>
			<stop  offset="0" style="stop-color:#FFFFFF"/>
		</linearGradient>
		<path fill="url(#SVGID_81_)" d="M648.693,374.947c-2.075,0.178-7.414-0.263-7.609,2.377l0,0
			c-2.259,3.719-3.251,8.071-2.826,12.401l0,0c-0.051,1.289,3.642,3.605,4.553,3.894l1.483,0.988
			c2.263,1.492,4.934,2.263,7.698,1.916c10.459-1.278,26.272-10.691,27.875-24.155L648.693,374.947z"/>
		
			<linearGradient id="SVGID_82_" gradientUnits="userSpaceOnUse" x1="695.8209" y1="607.2385" x2="688.9759" y2="626.1828" gradientTransform="matrix(0.878 0.4785 0.4785 -0.878 -255.1796 596.826)">
			<stop  offset="0" style="stop-color:#D49400"/>
			<stop  offset="0" style="stop-color:#D4BD00"/>
			<stop  offset="0.7551" style="stop-color:#000000"/>
			<stop  offset="1" style="stop-color:#000000"/>
		</linearGradient>
		<path fill="url(#SVGID_82_)" d="M642.229,393.495L642.229,393.495c-4.609-2.5-6.351-8.198-3.91-12.752l2.034-3.72
			c0.929-1.665,1.852-2.994,3.281-4.37c3.257-3.136,6.47-3.916,9.975-2.447l0,0l0,0c5.535,3.919,7.517,11.81,4.376,17.698
			l-0.698,1.334C654.27,394.566,647.559,396.403,642.229,393.495z"/>
		
			<linearGradient id="SVGID_83_" gradientUnits="userSpaceOnUse" x1="585.9606" y1="494.7187" x2="609.0857" y2="504.8911" gradientTransform="matrix(0.9597 0.2811 0.2811 -0.9597 -103.5513 705.1716)">
			<stop  offset="0" style="stop-color:#FFAF99"/>
			<stop  offset="0.5177" style="stop-color:#FFCEBA"/>
			<stop  offset="1" style="stop-color:#FFD19F"/>
		</linearGradient>
		<path fill="url(#SVGID_83_)" d="M612.609,418.155l-7.838-2.003c-4.964-1.268-7.81-5.807-6.357-10.136l12.848-38.264l0,0
			l11.006,42.49C623.559,415.229,618.234,419.591,612.609,418.155z"/>
		<g>
			<g>
				<defs>
					<path id="SVGID_84_" d="M528.935,352.042c-16.763,49.493,47.422,108.392,47.422,108.392
						c21.85,14.482,58.261,9.484,58.261,9.484c62.731-37.379,60.055-92.712,60.055-92.712
						c-0.118-47.534-34.043-74.628-34.043-74.628l-74.861-9.636l-45.344,23.089L528.935,352.042z"/>
				</defs>
				<clipPath id="SVGID_85_">
					<use xlink:href="#SVGID_84_"  overflow="visible"/>
				</clipPath>
				<g opacity="0.43" clip-path="url(#SVGID_85_)">
					
						<linearGradient id="SVGID_86_" gradientUnits="userSpaceOnUse" x1="722.6852" y1="556.7852" x2="768.97" y2="592.3758" gradientTransform="matrix(0.9537 -0.3006 -0.3006 -0.9537 142.5383 1201.3499)">
						<stop  offset="0" style="stop-color:#FF7286;stop-opacity:0.4"/>
						<stop  offset="0.1881" style="stop-color:#CF504B;stop-opacity:0.4"/>
						<stop  offset="0.42" style="stop-color:#C2402A;stop-opacity:0.4"/>
						<stop  offset="0.6393" style="stop-color:#EE2C13;stop-opacity:0.4"/>
						<stop  offset="0.8386" style="stop-color:#EB2005;stop-opacity:0.4"/>
						<stop  offset="1" style="stop-color:#AA1E00;stop-opacity:0.4"/>
					</linearGradient>
					<path fill="url(#SVGID_86_)" d="M706.362,425.421c5.429,16.487-3.076,33.669-18.913,38.441
						c-15.837,4.772-33.031-4.685-38.46-21.086c-5.429-16.487,3.076-33.669,18.913-38.441
						C683.739,399.561,700.933,409.021,706.362,425.421z"/>
					
						<linearGradient id="SVGID_87_" gradientUnits="userSpaceOnUse" x1="725.5172" y1="556.3073" x2="771.8019" y2="591.8978" gradientTransform="matrix(-0.9537 -0.3006 0.3006 -0.9537 1088.5375 1201.3499)">
						<stop  offset="0" style="stop-color:#FF7286;stop-opacity:0.4"/>
						<stop  offset="0.1881" style="stop-color:#CF504B;stop-opacity:0.4"/>
						<stop  offset="0.42" style="stop-color:#C2402A;stop-opacity:0.4"/>
						<stop  offset="0.6393" style="stop-color:#EE2C13;stop-opacity:0.4"/>
						<stop  offset="0.8386" style="stop-color:#EB2005;stop-opacity:0.4"/>
						<stop  offset="1" style="stop-color:#AA1E00;stop-opacity:0.4"/>
					</linearGradient>
					<path fill="url(#SVGID_87_)" d="M560.329,403.939c15.837,4.772,24.343,21.955,18.913,38.441
						c-5.429,16.4-22.623,25.86-38.46,21.088c-15.837-4.772-24.343-21.955-18.913-38.441
						C527.299,408.627,544.493,399.167,560.329,403.939z"/>
				</g>
			</g>
		</g>
		
			<linearGradient id="SVGID_88_" gradientUnits="userSpaceOnUse" x1="516.7408" y1="566.8942" x2="706.4271" y2="566.8942" gradientTransform="matrix(1 0 0 -1 0 902)">
			<stop  offset="0" style="stop-color:#000000"/>
			<stop  offset="1" style="stop-color:#000000"/>
		</linearGradient>
		<path opacity="0.19" fill="url(#SVGID_88_)" enable-background="new    " d="M682.958,353.397H547.49
			c-16.982,0-30.749-6.295-30.749-14.062v-22.52h189.686v25.849C706.429,348.591,695.921,353.397,682.958,353.397z"/>
		
			<linearGradient id="SVGID_89_" gradientUnits="userSpaceOnUse" x1="612.5978" y1="483.4171" x2="632.8447" y2="483.4171" gradientTransform="matrix(1.519 -0.1257 -0.0544 -0.658 -305.6952 829.676)">
			<stop  offset="0" style="stop-color:#7F0003"/>
			<stop  offset="1" style="stop-color:#880001"/>
		</linearGradient>
		<path opacity="0.6" fill="url(#SVGID_89_)" enable-background="new    " d="M598.103,428.708
			c13.416,22.822,31.094,1.559,31.094,1.559C608.435,441.255,598.103,428.708,598.103,428.708z"/>
		<linearGradient id="SVGID_90_" gradientUnits="userSpaceOnUse" x1="607.5385" y1="343.4327" x2="605.7211" y2="372.092">
			<stop  offset="0" style="stop-color:#C46800"/>
			<stop  offset="0.1162" style="stop-color:#AC5800"/>
			<stop  offset="0.4191" style="stop-color:#713300"/>
			<stop  offset="0.678" style="stop-color:#471700"/>
			<stop  offset="0.8799" style="stop-color:#2D0600"/>
			<stop  offset="1" style="stop-color:#230000"/>
		</linearGradient>
		<path fill="url(#SVGID_90_)" d="M622.423,358.817h-11.402c-9.417,0-17.05-7.634-17.05-17.05v-33.981
			c0-8.482,6.876-15.358,15.358-15.358h9.209c2.146,0,3.886,1.74,3.886,3.886V358.817z"/>
		<linearGradient id="SVGID_91_" gradientUnits="userSpaceOnUse" x1="604.2344" y1="350.4527" x2="615.8612" y2="151.6217">
			<stop  offset="0" style="stop-color:#C46800"/>
			<stop  offset="0.1162" style="stop-color:#AC5800"/>
			<stop  offset="0.4191" style="stop-color:#713300"/>
			<stop  offset="0.678" style="stop-color:#471700"/>
			<stop  offset="0.8799" style="stop-color:#2D0600"/>
			<stop  offset="1" style="stop-color:#230000"/>
		</linearGradient>
		<path fill="url(#SVGID_91_)" d="M661.043,265.44c-5.784-3.526-12.365-5.531-19.354-5.531h-71.425
			c-10.523,0-20.058,4.887-27.019,12.802c-4.679-2.283-9.902-3.585-15.43-3.585h-2.565v26.335h-17.993
			c0,14.835,7.725,27.819,19.278,34.966v10.151c0,7.08,5.602,12.82,12.513,12.82h52.045c8.822,0,16.395-5.438,19.729-13.215h19.813
			v13.215h2.115c9.11,0,17.054-5.034,21.387-12.52c6.539,6.138,15.251,9.886,24.819,9.886h3.835c5.265,0,9.533-4.373,9.533-9.767
			v-24.28c1.689,0.081,3.395,0.087,5.119,0.001l8.986-0.451v0C705.167,289.912,685.659,268.914,661.043,265.44z"/>
		<linearGradient id="SVGID_92_" gradientUnits="userSpaceOnUse" x1="656.7394" y1="267.9044" x2="623.994" y2="303.5699">
			<stop  offset="0" style="stop-color:#C46800"/>
			<stop  offset="0.1162" style="stop-color:#AC5800"/>
			<stop  offset="0.4191" style="stop-color:#713300"/>
			<stop  offset="0.678" style="stop-color:#471700"/>
			<stop  offset="0.8799" style="stop-color:#2D0600"/>
			<stop  offset="1" style="stop-color:#230000"/>
		</linearGradient>
		<path fill="url(#SVGID_92_)" d="M662.677,276.168h-17.22v-13.156c0-15.183,12.308-27.491,27.491-27.491h17.22v13.156
			C690.168,263.859,677.86,276.168,662.677,276.168z"/>
		
			<linearGradient id="SVGID_93_" gradientUnits="userSpaceOnUse" x1="662.493" y1="440.7602" x2="610.2591" y2="448.748" gradientTransform="matrix(-0.4206 -0.9073 0.6979 -0.3235 592.4044 1007.324)">
			<stop  offset="0" style="stop-color:#C46800"/>
			<stop  offset="0.1162" style="stop-color:#AC5800"/>
			<stop  offset="0.4191" style="stop-color:#713300"/>
			<stop  offset="0.678" style="stop-color:#471700"/>
			<stop  offset="0.8799" style="stop-color:#2D0600"/>
			<stop  offset="1" style="stop-color:#230000"/>
		</linearGradient>
		<path fill="url(#SVGID_93_)" d="M626.293,240.856l13.33,28.754l-9.181,4.256c-10.596,4.912-23.168,0.304-28.08-10.292
			l-13.33-28.754l9.181-4.256C608.809,225.652,621.381,230.26,626.293,240.856z"/>
		
			<linearGradient id="SVGID_94_" gradientUnits="userSpaceOnUse" x1="533.7412" y1="835.1947" x2="588.556" y2="835.1947" gradientTransform="matrix(-0.8247 0.1147 -0.1328 -0.9547 1139.515 1114.9253)">
			<stop  offset="0" style="stop-color:#000000"/>
			<stop  offset="1" style="stop-color:#000C2A"/>
		</linearGradient>
		<path fill="url(#SVGID_94_)" d="M575.185,396.404c-16.302,0.175-32.149-12.437-34.194-26.935l0,0l24.208-3.336
			c12.375-1.729,20.801,3.342,22.53,15.717l2.794,12.408l-10.797,1.369C578.29,396.112,576.726,396.383,575.185,396.404z"/>
		
			<linearGradient id="SVGID_95_" gradientUnits="userSpaceOnUse" x1="528.2441" y1="687.0219" x2="571.1313" y2="687.0219" gradientTransform="matrix(-0.9964 -0.0838 0.0838 -0.9964 1056.1173 1114.3065)">
			<stop  offset="0" style="stop-color:#FFFFFF"/>
			<stop  offset="0" style="stop-color:#FFFFFF"/>
		</linearGradient>
		<path fill="url(#SVGID_95_)" d="M545.496,371.054c1.568,13.468,17.356,22.923,27.812,24.227c2.763,0.354,5.435-0.41,7.703-1.896
			l1.485-0.984c0.911-0.286,4.61-2.593,4.563-3.882l0,0c0.436-4.329-0.544-8.684-2.794-12.408l0,0
			c-0.188-2.641-5.528-2.214-7.602-2.397L545.496,371.054z"/>
		
			<linearGradient id="SVGID_96_" gradientUnits="userSpaceOnUse" x1="528.0552" y1="571.0159" x2="518.9678" y2="588.9925" gradientTransform="matrix(-0.8793 0.4763 -0.4763 -0.8793 1297.3552 643.3063)">
			<stop  offset="0" style="stop-color:#D49400"/>
			<stop  offset="0" style="stop-color:#E9DD00"/>
			<stop  offset="0.6441" style="stop-color:#000000"/>
			<stop  offset="1" style="stop-color:#000000"/>
		</linearGradient>
		<path fill="url(#SVGID_96_)" d="M551.776,385.261l-0.694-1.336c-3.125-5.896-1.123-13.782,4.422-17.687l0,0l0,0
			c3.509-1.46,6.72-0.671,9.968,2.473c1.425,1.379,2.345,2.711,3.27,4.378l2.025,3.726c2.429,4.561,0.673,10.254-3.943,12.742l0,0
			C561.487,392.452,554.781,390.597,551.776,385.261z"/>
	</g>
	
		<linearGradient id="SVGID_97_" gradientUnits="userSpaceOnUse" x1="645.0368" y1="362.7499" x2="689.7485" y2="362.7499" gradientTransform="matrix(0.9892 -0.1469 0.1469 0.9892 -53.754 100.0653)">
		<stop  offset="0" style="stop-color:#C46800"/>
		<stop  offset="0.1162" style="stop-color:#AC5800"/>
		<stop  offset="0.4191" style="stop-color:#713300"/>
		<stop  offset="0.678" style="stop-color:#471700"/>
		<stop  offset="0.8799" style="stop-color:#2D0600"/>
		<stop  offset="1" style="stop-color:#230000"/>
	</linearGradient>
	<path fill="url(#SVGID_97_)" d="M674.534,364.808l-36.069,5.356l-0.58-3.904c-0.669-4.506,2.441-8.7,6.947-9.369l36.069-5.356
		l0.58,3.904C682.15,359.944,679.039,364.138,674.534,364.808z"/>
	
		<linearGradient id="SVGID_98_" gradientUnits="userSpaceOnUse" x1="649.6324" y1="362.5075" x2="694.3442" y2="362.5075" gradientTransform="matrix(-0.997 -0.0774 -0.0774 0.997 1265.5675 51.4123)">
		<stop  offset="0" style="stop-color:#C46800"/>
		<stop  offset="0.1162" style="stop-color:#AC5800"/>
		<stop  offset="0.4191" style="stop-color:#713300"/>
		<stop  offset="0.678" style="stop-color:#471700"/>
		<stop  offset="0.8799" style="stop-color:#2D0600"/>
		<stop  offset="1" style="stop-color:#230000"/>
	</linearGradient>
	<path fill="url(#SVGID_98_)" d="M553.012,365.836l36.355,2.821l0.305-3.935c0.352-4.541-3.043-8.508-7.585-8.861l-36.355-2.821
		l-0.305,3.935C545.075,361.517,548.471,365.484,553.012,365.836z"/>
	<g id="Layer_7_4_">
		<linearGradient id="SVGID_99_" gradientUnits="userSpaceOnUse" x1="184.7673" y1="721.1275" x2="296.5654" y2="721.1275">
			<stop  offset="0" style="stop-color:#4F4D8B"/>
			<stop  offset="0.9678" style="stop-color:#3163A4"/>
		</linearGradient>
		<polygon fill="url(#SVGID_99_)" points="296.565,736.393 209.324,736.393 184.767,705.862 276.532,705.862 		"/>
		<linearGradient id="SVGID_100_" gradientUnits="userSpaceOnUse" x1="293.5843" y1="721.1275" x2="397.7484" y2="721.1275">
			<stop  offset="0" style="stop-color:#4F4D8B"/>
			<stop  offset="0.9678" style="stop-color:#3163A4"/>
		</linearGradient>
		<polygon fill="url(#SVGID_100_)" points="293.584,736.393 374.187,736.393 397.748,705.862 312.185,705.862 		"/>
		<linearGradient id="SVGID_101_" gradientUnits="userSpaceOnUse" x1="208.3859" y1="796.4186" x2="376.4062" y2="796.4186">
			<stop  offset="0" style="stop-color:#4F4D8B"/>
			<stop  offset="0.9678" style="stop-color:#3163A4"/>
		</linearGradient>
		<path fill="url(#SVGID_101_)" d="M208.386,736.911v119.016h168.02V736.911H208.386z M276.839,836.858h-26.136v-48.001h26.136
			V836.858z M276.839,775.049h-26.136V761.24h26.136V775.049z"/>
		<path display="none" fill="#002A27" d="M416.949,838.592h-6.804c-0.756,0-0.756,0-0.756,0c-0.756-3.78-2.268-6.804-3.78-9.828
			l4.536-5.292c2.268-2.268,2.268-5.292,0-7.56l-5.292-5.292c-2.268-2.268-5.292-2.268-7.56,0l-5.292,6.048
			c-2.268-1.512-5.292-3.024-8.316-3.78v-4.536c0-3.024-2.268-5.292-5.292-5.292h-6.804c-3.024,0-5.292,2.268-5.292,5.292v4.536
			c-2.268,0.756-4.536,1.512-6.048,2.268l0,0l-5.292-5.292c-2.268-2.268-5.292-2.268-7.56,0l-5.292,5.292
			c-2.268,2.268-2.268,5.292,0,7.56l3.78,3.78c-2.268,3.78-4.536,6.804-5.292,11.34h-0.756h-6.804c-3.024,0-5.292,2.268-5.292,5.292
			v6.804c0,3.024,2.268,5.292,5.292,5.292h6.804h0.756c0.756,3.78,2.268,6.804,3.78,9.828l-4.536,5.292
			c-2.268,2.268-2.268,5.292,0,7.56l5.292,5.292c2.268,2.268,5.292,2.268,7.56,0l4.536-5.292c3.024,1.512,5.292,3.024,9.072,3.78
			v3.024c0,3.024,2.268,5.292,5.292,5.292h6.804c3.024,0,5.292-2.268,5.292-5.292v-4.536c2.268-0.756,4.536-1.512,6.048-2.268l0,0
			l5.292,5.292c2.268,2.268,5.292,2.268,7.56,0l5.292-5.292c2.268-2.268,2.268-5.292,0-7.56l-3.78-3.78
			c2.268-3.78,4.536-6.804,5.292-11.34c0,0,0,0,0.756,0h6.804c3.024,0,5.292-2.268,5.292-5.292v-6.804
			C421.485,840.86,419.217,838.592,416.949,838.592z M374.612,828.764c9.828,0,17.388,7.56,17.388,17.388
			s-7.56,17.388-17.388,17.388c-9.072,0-17.388-7.56-17.388-17.388C357.224,837.08,365.54,828.764,374.612,828.764z"/>
		<linearGradient id="SVGID_102_" gradientUnits="userSpaceOnUse" x1="192.217" y1="714.878" x2="290.6513" y2="714.878">
			<stop  offset="0" style="stop-color:#CFDDCF"/>
			<stop  offset="0.9678" style="stop-color:#C4E2FF"/>
		</linearGradient>
		<polygon fill="url(#SVGID_102_)" points="290.651,728.33 213.838,728.33 192.217,701.426 273.013,701.426 		"/>
		<linearGradient id="SVGID_103_" gradientUnits="userSpaceOnUse" x1="306.9152" y1="714.878" x2="405.1981" y2="714.878">
			<stop  offset="0" style="stop-color:#CFDDCF"/>
			<stop  offset="0.9678" style="stop-color:#C4E2FF"/>
		</linearGradient>
		<polygon fill="url(#SVGID_103_)" points="306.915,728.33 382.967,728.33 405.198,701.426 324.466,701.426 		"/>
		<linearGradient id="SVGID_104_" gradientUnits="userSpaceOnUse" x1="215.8356" y1="792.387" x2="297.5923" y2="792.387">
			<stop  offset="0" style="stop-color:#CFDDCF"/>
			<stop  offset="0.9678" style="stop-color:#C4E2FF"/>
		</linearGradient>
		<path fill="url(#SVGID_104_)" d="M215.836,736.911v110.952h81.757V736.911H215.836z M249.144,830.086h-12.718v-44.748h12.718
			V830.086z M249.144,772.465h-12.718v-12.873h12.718V772.465z"/>
		<linearGradient id="SVGID_105_" gradientUnits="userSpaceOnUse" x1="306.9152" y1="792.0206" x2="380.8989" y2="792.0206">
			<stop  offset="0" style="stop-color:#CFDDCF"/>
			<stop  offset="0.9678" style="stop-color:#C4E2FF"/>
		</linearGradient>
		<rect x="306.915" y="736.911" fill="url(#SVGID_105_)" width="73.984" height="110.219"/>
	</g>
	<linearGradient id="SVGID_106_" gradientUnits="userSpaceOnUse" x1="111.0281" y1="333.425" x2="248.1923" y2="333.425">
		<stop  offset="0" style="stop-color:#733FFF"/>
		<stop  offset="0.9678" style="stop-color:#2A7CFF"/>
	</linearGradient>
	<path fill="url(#SVGID_106_)" d="M248.192,343.929v-21.007H145.969c-15.143,0-28.288,8.513-34.941,21.007H248.192z"/>
	<g>
		<g id="Layer_8_1_">
			<linearGradient id="SVGID_107_" gradientUnits="userSpaceOnUse" x1="298.3222" y1="239.5784" x2="346.1895" y2="239.5784">
				<stop  offset="0" style="stop-color:#733FFF"/>
				<stop  offset="0.9678" style="stop-color:#2A7CFF"/>
			</linearGradient>
			<path fill="url(#SVGID_107_)" d="M346.189,222.787l-35.741,31.912c-4.468,3.829-12.126,0.638-12.126-5.106v-19.147
				c0-3.829,3.191-7.021,7.021-7.021h31.911h8.935V222.787z"/>
		</g>
		<linearGradient id="SVGID_108_" gradientUnits="userSpaceOnUse" x1="331.4395" y1="147.2319" x2="341.5393" y2="147.2319">
			<stop  offset="0" style="stop-color:#733FFF"/>
			<stop  offset="0.9678" style="stop-color:#2A7CFF"/>
		</linearGradient>
		<circle fill="url(#SVGID_108_)" cx="336.489" cy="147.232" r="5.05"/>
		<linearGradient id="SVGID_109_" gradientUnits="userSpaceOnUse" x1="372.5406" y1="147.2319" x2="382.6404" y2="147.2319">
			<stop  offset="0" style="stop-color:#733FFF"/>
			<stop  offset="0.9678" style="stop-color:#2A7CFF"/>
		</linearGradient>
		<circle fill="url(#SVGID_109_)" cx="377.59" cy="147.232" r="5.05"/>
		<linearGradient id="SVGID_110_" gradientUnits="userSpaceOnUse" x1="334.3154" y1="170.3074" x2="379.7646" y2="170.3074">
			<stop  offset="0" style="stop-color:#733FFF"/>
			<stop  offset="0.9678" style="stop-color:#2A7CFF"/>
		</linearGradient>
		<path fill="url(#SVGID_110_)" d="M346.099,171.149c-4.208-1.683-8.417-3.367-11.783-5.05c0,0,0,0,0,0.842
			c5.892,5.05,13.466,7.575,21.883,7.575c9.258,0,17.675-3.367,23.566-8.417C369.665,171.991,357.882,174.516,346.099,171.149z"/>
		<linearGradient id="SVGID_111_" gradientUnits="userSpaceOnUse" x1="249.2523" y1="157.3256" x2="468.0753" y2="157.3256">
			<stop  offset="0" style="stop-color:#733FFF"/>
			<stop  offset="0.9678" style="stop-color:#2A7CFF"/>
		</linearGradient>
		<path fill="url(#SVGID_111_)" d="M443.394,86.356H273.933c-13.631,0-24.681,11.05-24.681,24.681v92.577
			c0,13.631,11.05,24.681,24.681,24.681h169.461c13.631,0,24.681-11.05,24.681-24.681v-92.577
			C468.075,97.406,457.025,86.356,443.394,86.356z M357.185,209.074c-29.397,0-53.227-23.831-53.227-53.227
			s23.831-53.227,53.227-53.227s53.227,23.831,53.227,53.227S386.582,209.074,357.185,209.074z"/>
	</g>
	<linearGradient id="SVGID_112_" gradientUnits="userSpaceOnUse" x1="110.4638" y1="425.0045" x2="248.6493" y2="425.0045">
		<stop  offset="0" style="stop-color:#733FFF"/>
		<stop  offset="0.9678" style="stop-color:#2A7CFF"/>
	</linearGradient>
	<path fill="url(#SVGID_112_)" d="M110.464,354.044v141.92h138.186v-141.92H110.464z M195.315,462.352h-61.82v-14.939h61.82V462.352
		z M206.224,429.984h-72.729v-14.939h72.729V429.984z M228.043,397.616h-94.548v-16.184h94.548V397.616z"/>
	<linearGradient id="SVGID_113_" gradientUnits="userSpaceOnUse" x1="264.0815" y1="587.498" x2="392.6701" y2="587.498">
		<stop  offset="0" style="stop-color:#CFDDCF"/>
		<stop  offset="0.9678" style="stop-color:#C4E2FF"/>
	</linearGradient>
	<path fill="url(#SVGID_113_)" d="M386.1,576.235h-9.386c-0.939,0-0.939,0-0.939,0c-0.939-4.693-2.816-9.386-5.632-13.14l6.57-6.57
		c2.816-2.816,2.816-7.509,0-10.325l-6.57-6.57c-2.816-2.816-7.509-2.816-10.325,0l-6.57,6.57
		c-3.754-2.816-7.509-3.754-12.202-4.693v-6.57c0-3.754-2.816-7.509-7.509-7.509h-9.386c-3.754,0-7.509,2.816-7.509,7.509v6.57
		c-2.816,0.939-5.632,1.877-8.447,2.816l0,0l-7.509-7.509c-2.816-2.816-7.509-2.816-10.325,0l-6.57,6.57
		c-2.816,2.816-2.816,7.509,0,10.325l5.632,5.632c-3.754,4.693-5.632,9.386-7.509,15.956h-0.939h-9.386
		c-3.754,0-7.509,2.816-7.509,7.509v9.386c0,3.754,2.816,6.57,7.509,6.57h9.386h0.939c0.939,4.693,2.816,9.386,5.632,13.14
		l-6.57,6.57c-2.816,2.816-2.816,7.509,0,10.325l6.57,6.57c2.816,2.816,7.509,2.816,10.325,0l6.57-6.57
		c3.754,2.816,7.509,3.754,12.202,4.693v6.57c0,3.754,2.816,7.509,7.509,7.509h9.386c3.754,0,7.509-2.816,7.509-7.509v-6.57
		c2.816-0.939,5.632-1.877,8.447-2.816l0,0l6.57,6.57c2.816,2.816,7.509,2.816,10.325,0l6.57-6.57c2.816-2.816,2.816-7.509,0-10.325
		l-5.632-5.632c3.754-4.693,5.632-9.386,7.509-15.956c0,0,0,0,0.939,0h9.386c3.754,0,7.509-2.816,7.509-6.57v-9.386
		C392.67,579.051,389.854,576.235,386.1,576.235z M327.906,563.094c13.14,0,23.465,11.263,23.465,24.404
		s-11.263,24.404-23.465,24.404c-12.202,0-23.465-11.263-23.465-24.404C304.441,573.419,314.766,563.094,327.906,563.094z"/>
	
		<linearGradient id="SVGID_114_" gradientUnits="userSpaceOnUse" x1="885.3207" y1="641.6003" x2="862.4598" y2="717.8546" gradientTransform="matrix(0.8366 -0.5478 0.5478 0.8366 -83.0747 557.5039)">
		<stop  offset="0" style="stop-color:#310095"/>
		<stop  offset="0.9678" style="stop-color:#3147A4"/>
	</linearGradient>
	<path fill="url(#SVGID_114_)" d="M1013.695,580.924c0.189,0.503,0.535,0.66,0.72,1.162l12.454,33.976
		c1.883,5.021-0.626,10.54-5.301,12.58l-11.042,4.141c-5.021,1.883-10.383-0.972-12.266-5.993l-12.8-34.133
		c-0.189-0.503-0.031-0.849-0.222-1.349c-11.453,6.871-17.003,21.834-11.575,35.544l4.52,12.045
		c5.646,15.057,21.71,22.776,35.95,18.007l33.317,88.847c1.694,4.518,6.872,6.871,11.731,5.333l3.013-1.13
		c4.518-1.694,6.871-6.872,5.333-11.731l-33.317-88.847c14.559-5.459,21.899-22.526,16.249-37.584l-4.518-12.049
		C1040.516,586.037,1026.994,578.226,1013.695,580.924z"/>
	
		<linearGradient id="SVGID_115_" gradientUnits="userSpaceOnUse" x1="650.9327" y1="626.8098" x2="794.647" y2="626.8098" gradientTransform="matrix(0.4138 -0.9104 0.9104 0.4138 169.3249 1050.5969)">
		<stop  offset="0" style="stop-color:#CFDDCF"/>
		<stop  offset="0.9678" style="stop-color:#C4E2FF"/>
	</linearGradient>
	<path fill="url(#SVGID_115_)" d="M1025.643,572.523c0.189,0.503,0.535,0.66,0.72,1.162l12.454,33.976
		c1.883,5.021-0.626,10.54-5.301,12.58l-11.042,4.141c-5.021,1.883-10.383-0.972-12.266-5.993l-12.8-34.133
		c-0.189-0.503-0.031-0.849-0.222-1.349c-11.453,6.871-17.003,21.834-11.575,35.544l4.52,12.045
		c5.646,15.057,21.71,22.776,35.95,18.007l33.317,88.847c1.694,4.518,6.872,6.871,11.731,5.333l3.013-1.13
		c4.518-1.694,6.871-6.872,5.333-11.731l-33.317-88.847c14.559-5.459,21.899-22.525,16.249-37.584l-4.518-12.049
		C1052.464,577.637,1038.942,569.825,1025.643,572.523z"/>
</g>
<g id="Layer_4">
	<linearGradient id="SVGID_116_" gradientUnits="userSpaceOnUse" x1="844.3422" y1="784.3054" x2="972.2757" y2="784.3054">
		<stop  offset="0" style="stop-color:#4F4D8B"/>
		<stop  offset="0.9678" style="stop-color:#3163A4"/>
	</linearGradient>
	<path fill="url(#SVGID_116_)" d="M972.276,770.962c0-35.328-28.639-63.967-63.967-63.967c-35.328,0-63.967,28.639-63.967,63.967
		c0,19.352,8.606,36.684,22.186,48.414l41.701,42.24l43.867-43.821l-0.115-0.115C964.463,806.006,972.276,789.401,972.276,770.962z
		 M907.928,804.468c-19.556,0-35.41-15.854-35.41-35.41c0-19.557,15.854-35.41,35.41-35.41c19.557,0,35.41,15.854,35.41,35.41
		C943.338,788.615,927.485,804.468,907.928,804.468z"/>
	<linearGradient id="SVGID_117_" gradientUnits="userSpaceOnUse" x1="557.1368" y1="129.0321" x2="667.1619" y2="129.0321">
		<stop  offset="0" style="stop-color:#A2D9E9"/>
		<stop  offset="0.9678" style="stop-color:#2AC5FF"/>
	</linearGradient>
	<circle fill="none" stroke="url(#SVGID_117_)" stroke-width="10" stroke-miterlimit="10" cx="612.149" cy="129.032" r="50.013"/>
	<path fill="none" stroke="#000000" stroke-width="9" stroke-miterlimit="10" d="M587.777,126.677l13.038,20.977
		c0.9,1.448,2.91,1.687,4.124,0.491l37.11-36.555"/>
	<linearGradient id="SVGID_118_" gradientUnits="userSpaceOnUse" x1="822.7151" y1="419.8837" x2="925.7968" y2="419.8837">
		<stop  offset="0" style="stop-color:#E00080"/>
		<stop  offset="0.9678" style="stop-color:#A41586"/>
	</linearGradient>
	<circle fill="none" stroke="url(#SVGID_118_)" stroke-width="10" stroke-miterlimit="10" cx="874.256" cy="419.884" r="46.541"/>
	<g>
		
			<line fill="none" stroke="#000000" stroke-width="9" stroke-miterlimit="10" x1="859.607" y1="401.204" x2="891.229" y2="438.936"/>
		
			<line fill="none" stroke="#000000" stroke-width="9" stroke-miterlimit="10" x1="891.229" y1="402.215" x2="859.607" y2="438.601"/>
	</g>
	<linearGradient id="SVGID_119_" gradientUnits="userSpaceOnUse" x1="855.3005" y1="775.7793" x2="983.234" y2="775.7793">
		<stop  offset="0" style="stop-color:#CFDDCF"/>
		<stop  offset="0.9678" style="stop-color:#C4E2FF"/>
	</linearGradient>
	<path fill="url(#SVGID_119_)" d="M983.234,762.436c0-35.328-28.639-63.967-63.967-63.967s-63.967,28.639-63.967,63.967
		c0,19.352,8.606,36.684,22.186,48.414l41.701,42.24l43.867-43.821l-0.115-0.115C975.422,797.48,983.234,780.875,983.234,762.436z
		 M918.887,795.942c-19.557,0-35.41-15.854-35.41-35.41c0-19.557,15.854-35.41,35.41-35.41c19.556,0,35.41,15.854,35.41,35.41
		C954.297,780.089,938.443,795.942,918.887,795.942z"/>
</g>
</svg>
