<?xml version="1.0" encoding="utf-8"?>
<!-- Generator: Adobe Illustrator 25.2.0, SVG Export Plug-In . SVG Version: 6.00 Build 0)  -->
<svg version="1.1" xmlns="http://www.w3.org/2000/svg" xmlns:xlink="http://www.w3.org/1999/xlink" x="0px" y="0px"
	 viewBox="0 0 900 200" style="enable-background:new 0 0 900 200;" xml:space="preserve">
<style type="text/css">
	.st0{display:none;}
	.st1{display:inline;fill:#1964A0;}
	.st2{opacity:0.54;fill:#003F9B;}
	.st3{opacity:0.75;fill:#004BA5;}
	.st4{opacity:0.57;fill:#2474F1;}
	.st5{opacity:0.38;fill:#0C85F5;}
	.st6{fill:#0059C4;}
	.st7{opacity:0.46;fill:#0058D8;}
	.st8{fill:#005490;}
	.st9{opacity:0.53;fill:#0088FF;}
	.st10{opacity:0.5;fill:#0041C0;}
	.st11{opacity:0.52;fill:#0041A0;}
	.st12{opacity:0.75;fill:#006AD3;}
	.st13{opacity:0.58;fill:#006DEF;}
</style>
<g id="Layer_2" class="st0">
	<rect class="st1" width="900" height="201"/>
</g>
<g id="Layer_1">
	<polygon class="st2" points="482,200 701.1,200 711,142.6 496.2,117.6 	"/>
	<polygon class="st3" points="151.9,98 111,200 410,200 	"/>
	<polygon class="st4" points="495.9,118 408.3,200 571.1,200 	"/>
	<polygon class="st5" points="111.8,54 0,93.1 0,200 163.7,200 	"/>
	<polygon class="st6" points="628,133 541.4,200 683,200 	"/>
	<polygon class="st7" points="0,197.7 2.2,200 247.7,200 111.6,54 0,156.6 	"/>
	<polygon class="st8" points="900,200 900,57.3 744.9,200 	"/>
	<polygon class="st9" points="900,56.1 772,126.2 801.7,200 900,200 	"/>
	<polygon class="st10" points="723.4,98.3 665.1,197.2 669.9,200 899.3,200 	"/>
	<polygon class="st11" points="384.4,112.9 290.4,200 465.1,200 	"/>
	<polygon class="st12" points="612.2,200 696,200 723.2,98.4 723.1,98.3 	"/>
	<polygon class="st13" points="384.7,112.9 384.1,113.1 233.6,200 410.9,200 	"/>
	<g>
	</g>
	<g>
	</g>
	<g>
	</g>
	<g>
	</g>
	<g>
	</g>
	<g>
	</g>
	<g>
	</g>
	<g>
	</g>
	<g>
	</g>
	<g>
	</g>
	<g>
	</g>
</g>
</svg>
