<?xml version="1.0" encoding="utf-8"?>
<!-- Generator: Adobe Illustrator 24.2.1, SVG Export Plug-In . SVG Version: 6.00 Build 0)  -->
<svg version="1.1" id="desktop-logo" xmlns="http://www.w3.org/2000/svg" xmlns:xlink="http://www.w3.org/1999/xlink" x="0px" y="0px"
	 viewBox="0 0 500 500" style="enable-background:new 0 0 500 500;" xml:space="preserve">
<style type="text/css">
	.st0{fill:#2185D5;}
	.st1{fill:none;stroke:#72D5FF;stroke-width:9;}
	.st2{fill:none;stroke:#FFFFFF;stroke-width:9;}
	.st3{fill:#FFFFFF;}
	.st4{fill:#303841;}
	.st5{fill:#F3F3F3;}
</style>
<path class="st0" d="M285.82,231.5c11.4-24.9,46.79-24.9,58.19,0l69.66,152.14c9.71,21.2-5.78,45.32-29.09,45.32H245.25
	c-23.31,0-38.8-24.13-29.09-45.32L285.82,231.5z"/>
<path class="st1" d="M474.42,391.46c0,37.99-31.67,69-71,69s-71-31.01-71-69s31.67-69,71-69S474.42,353.47,474.42,391.46z"/>
<path class="st2" d="M395.92,345.46h16c8.56,0,15.5,6.94,15.5,15.5v16c0,8.56-6.94,15.5-15.5,15.5h-16c-8.56,0-15.5-6.94-15.5-15.5
	v-16C380.42,352.4,387.35,345.46,395.92,345.46z"/>
<path class="st3" d="M381.92,363.96h46c9.94,0,18,8.06,18,18v30c0,9.94-8.06,18-18,18h-46c-9.94,0-18-8.06-18-18v-30
	C363.92,372.02,371.97,363.96,381.92,363.96z"/>
<path class="st4" d="M404.42,384.96L404.42,384.96c1.93,0,3.5,1.57,3.5,3.5v16c0,1.93-1.57,3.5-3.5,3.5l0,0
	c-1.93,0-3.5-1.57-3.5-3.5v-16C400.92,386.53,402.48,384.96,404.42,384.96z"/>
<path class="st4" d="M401.92,381.96h5c3.31,0,6,2.69,6,6v2c0,3.31-2.69,6-6,6h-5c-3.31,0-6-2.69-6-6v-2
	C395.92,384.65,398.6,381.96,401.92,381.96z"/>
<circle class="st0" cx="309.42" cy="195.46" r="77.5"/>
<path class="st3" d="M363.92,192.17c0-29.94-24.4-54.2-54.5-54.2s-54.5,24.27-54.5,54.2c0,1.56,0.07,3.11,0.2,4.64l0.02-0.01
	c2.93,15.42,15.52,30.61,15.52,30.61l56.78-28.03h8.08l-51.8,29.68l-0.42,14.01l56.78-38.74h5.8l-47.25,38.13v15.46l48.7-46.99
	l5.39-0.2l-42.07,45.55l1.66,15.87l30.55-37.22c18.74-23.41,19.68-30.63,19.68-30.63C363.44,200.39,363.92,196.33,363.92,192.17z"/>
<path class="st5" d="M50.58,60.33l2.26,6.71H40.65l5.72-17.15l0.33-1.01l4.16-13.35H39.81l-17.89,49.6h12.61l2.96-8.76h18.46
	l2.96,8.76h12.75L55.84,41.3L50.58,60.33z"/>
<path class="st5" d="M111.36,38.38c3.91,2.08,6.95,5,9.1,8.77c2.15,3.76,3.22,8.11,3.22,13.03c0,4.88-1.08,9.2-3.22,12.99
	c-2.15,3.79-5.19,6.73-9.13,8.8c-3.94,2.08-8.51,3.12-13.7,3.12H79V35.26h18.62C102.86,35.26,107.43,36.3,111.36,38.38z
	 M107.53,70.84c2.55-2.5,3.82-6.06,3.82-10.65c0-4.59-1.27-8.17-3.82-10.72c-2.55-2.56-6.12-3.83-10.69-3.83H91.1V74.6h5.74
	C101.42,74.6,104.98,73.35,107.53,70.84z"/>
<path class="st5" d="M162.83,38.38c3.91,2.08,6.95,5,9.1,8.77c2.15,3.76,3.22,8.11,3.22,13.03c0,4.88-1.07,9.2-3.22,12.99
	c-2.15,3.79-5.19,6.73-9.13,8.8c-3.94,2.08-8.51,3.12-13.7,3.12h-18.62V35.26h18.62C154.33,35.26,158.91,36.3,162.83,38.38z
	 M159.01,70.84c2.55-2.5,3.82-6.06,3.82-10.65c0-4.59-1.27-8.17-3.82-10.72c-2.55-2.56-6.12-3.83-10.69-3.83h-5.74V74.6h5.74
	C152.89,74.6,156.46,73.35,159.01,70.84z"/>
<path class="st5" d="M207.29,85.11l-10.34-18.82h-2.9v18.82h-12.11V35.26h20.32c3.92,0,7.26,0.69,10.02,2.06
	c2.76,1.37,4.82,3.25,6.2,5.64c1.37,2.39,2.05,5.06,2.05,7.99c0,3.31-0.93,6.27-2.79,8.88c-1.87,2.6-4.62,4.45-8.25,5.54
	l11.47,19.74h-13.66V85.11z M194.06,57.7h7.51c2.22,0,3.88-0.55,4.99-1.63c1.11-1.09,1.67-2.63,1.67-4.62
	c0-1.89-0.56-3.39-1.67-4.47c-1.11-1.08-2.77-1.63-4.99-1.63h-7.51V57.7z"/>
<path class="st5" d="M240.22,44.99v10.09h16.21v9.38h-16.21v10.93h18.34v9.73h-30.45V35.26h30.45v9.73H240.22z"/>
<path class="st5" d="M274.63,83.83c-2.88-1.18-5.18-2.93-6.9-5.25c-1.72-2.32-2.63-5.12-2.73-8.38h12.89
	c0.19,1.85,0.83,3.25,1.92,4.23c1.09,0.97,2.5,1.45,4.25,1.45c1.8,0,3.21-0.41,4.25-1.24c1.04-0.83,1.56-1.98,1.56-3.45
	c0-1.23-0.41-2.25-1.24-3.05c-0.83-0.8-1.84-1.47-3.05-1.99c-1.21-0.52-2.92-1.11-5.13-1.78c-3.21-0.99-5.83-1.99-7.86-2.98
	c-2.03-0.99-3.78-2.46-5.24-4.41c-1.46-1.94-2.2-4.47-2.2-7.6c0-4.64,1.67-8.27,5.03-10.9c3.35-2.63,7.72-3.94,13.1-3.94
	c5.48,0,9.89,1.31,13.24,3.94c3.35,2.62,5.15,6.29,5.38,10.97h-13.1c-0.1-1.61-0.68-2.87-1.77-3.8c-1.09-0.92-2.48-1.38-4.18-1.38
	c-1.46,0-2.64,0.39-3.54,1.17c-0.9,0.78-1.34,1.91-1.34,3.37c0,1.61,0.75,2.87,2.27,3.76c1.51,0.9,3.87,1.87,7.08,2.91
	c3.21,1.09,5.82,2.13,7.83,3.12c2.01,0.99,3.74,2.44,5.21,4.33c1.46,1.89,2.2,4.33,2.2,7.31c0,2.84-0.72,5.42-2.16,7.74
	c-1.44,2.32-3.53,4.17-6.27,5.54c-2.74,1.37-5.97,2.06-9.7,2.06C280.77,85.6,277.51,85.01,274.63,83.83z"/>
<path class="st5" d="M345.72,35.26v9.73h-13.17v40.12h-12.11V44.99h-13.17v-9.73H345.72z"/>
<path class="st5" d="M363.92,35.26v49.85h-12.11V35.26H363.92z"/>
<path class="st5" d="M53.34,141.96l-2.46-7.8h-14.7l-2.34,7.8H23.4l13.2-41.28h14.16l13.2,41.28H53.34z M43.62,109.92h-0.3
	l-4.74,15.78h9.84L43.62,109.92z M71.54,100.68h14.58c6.08,0,10.42,0.62,13.02,1.86c2.6,1.2,4.22,3.12,4.86,5.76
	c0.64,2.6,0.96,6.94,0.96,13.02s-0.32,10.44-0.96,13.08c-0.64,2.6-2.26,4.52-4.86,5.76c-2.6,1.2-6.94,1.8-13.02,1.8H71.54V100.68z
	 M85.88,133.5c3.08,0,5.12-0.18,6.12-0.54c1.04-0.4,1.68-1.32,1.92-2.76c0.28-1.48,0.42-4.44,0.42-8.88c0-4.4-0.14-7.34-0.42-8.82
	c-0.28-1.48-0.94-2.4-1.98-2.76c-1-0.4-3.02-0.6-6.06-0.6h-3.96v24.36H85.88z M150.47,141.96v-26.28h-0.42l-8.82,26.28h-7.08
	l-8.82-26.28h-0.42v26.28h-9.72v-41.28h14.34l8.16,23.82h0.42l8.1-23.82h14.28v41.28H150.47z M171.74,141.96v-41.28h10.44v41.28
	H171.74z M217.96,141.96l-14.28-23.58h-0.3v23.58h-9.96v-41.28h10.74l13.26,21.42h0.3v-21.42h10.02v41.28H217.96z"/>
<g>
</g>
<g>
</g>
<g>
</g>
<g>
</g>
<g>
</g>
<g>
</g>
<g>
</g>
<g>
</g>
<g>
</g>
<g>
</g>
<g>
</g>
</svg>
