<?xml version="1.0" encoding="utf-8"?>
<!-- Generator: Adobe Illustrator 24.2.1, SVG Export Plug-In . SVG Version: 6.00 Build 0)  -->
<svg version="1.1" id="mobile-logo" xmlns="http://www.w3.org/2000/svg" xmlns:xlink="http://www.w3.org/1999/xlink" x="0px" y="0px"
	 viewBox="0 0 500 200" style="enable-background:new 0 0 500 200;" xml:space="preserve">
<style type="text/css">
	.st0{fill:#FFFFFF;}
	.st1{fill:#F3F3F3;}
</style>
<path class="st0" d="M138.91,89.89c0-23.8-19.48-43.09-43.5-43.09s-43.5,19.29-43.5,43.09c0,1.24,0.06,2.47,0.16,3.69l0.02-0.01
	c2.34,12.26,12.39,24.34,12.39,24.34l45.32-22.28h6.45L74.9,119.22l-0.33,11.14l45.32-30.8h4.63l-37.71,30.31v12.29l38.87-37.36
	l4.3-0.16L96.4,140.85l1.32,12.62l24.38-29.59c14.96-18.61,15.7-24.35,15.7-24.35C138.53,96.43,138.91,93.2,138.91,89.89z"/>
<path class="st1" d="M188.64,75.53l1.87,5.4h-10.09l4.74-13.79l0.28-0.81l3.45-10.73h-9.16l-14.81,39.87h10.44l2.45-7.04h15.28
	l2.45,7.04h10.56l-13.09-35.24L188.64,75.53z"/>
<path class="st1" d="M238.95,57.88c3.24,1.68,5.75,4.02,7.53,7.05c1.78,3.02,2.66,6.52,2.66,10.47c0,3.92-0.89,7.4-2.66,10.44
	c-1.78,3.04-4.3,5.41-7.56,7.08c-3.26,1.68-7.04,2.51-11.34,2.51h-15.41V55.37h15.41C231.92,55.37,235.71,56.21,238.95,57.88z
	 M235.78,83.97c2.11-2.01,3.16-4.87,3.16-8.56c0-3.69-1.05-6.56-3.16-8.62c-2.11-2.06-5.07-3.08-8.85-3.08h-4.75V87h4.75
	C230.72,86.99,233.68,85.99,235.78,83.97z"/>
<path class="st1" d="M281.57,57.88c3.24,1.68,5.75,4.02,7.53,7.05c1.78,3.02,2.66,6.52,2.66,10.47c0,3.92-0.89,7.4-2.66,10.44
	c-1.78,3.04-4.3,5.41-7.56,7.08c-3.26,1.68-7.05,2.51-11.34,2.51h-15.41V55.37h15.41C274.53,55.37,278.32,56.21,281.57,57.88z
	 M278.4,83.97c2.11-2.01,3.16-4.87,3.16-8.56c0-3.69-1.05-6.56-3.16-8.62c-2.11-2.06-5.06-3.08-8.85-3.08h-4.75V87h4.75
	C273.34,86.99,276.29,85.99,278.4,83.97z"/>
<path class="st1" d="M318.38,95.45l-8.56-15.13h-2.4v15.13h-10.02V55.37h16.83c3.25,0,6.01,0.55,8.29,1.65s3.99,2.62,5.13,4.53
	c1.13,1.92,1.7,4.06,1.7,6.42c0,2.66-0.77,5.04-2.31,7.13c-1.55,2.09-3.82,3.58-6.83,4.45l9.49,15.87h-11.31V95.45z M307.42,73.41
	h6.21c1.84,0,3.21-0.44,4.13-1.31c0.92-0.88,1.38-2.11,1.38-3.71c0-1.52-0.46-2.72-1.38-3.59c-0.92-0.87-2.3-1.31-4.13-1.31h-6.21
	V73.41z"/>
<path class="st1" d="M345.63,63.2v8.11h13.42v7.54h-13.42v8.79h15.18v7.82h-25.21V55.37h25.21v7.82H345.63z"/>
<path class="st1" d="M374.12,94.41c-2.38-0.95-4.29-2.36-5.71-4.22c-1.43-1.87-2.18-4.11-2.26-6.73h10.67
	c0.16,1.49,0.68,2.62,1.59,3.4c0.9,0.78,2.07,1.17,3.52,1.17c1.49,0,2.66-0.33,3.52-1c0.86-0.67,1.29-1.59,1.29-2.77
	c0-0.99-0.34-1.81-1.02-2.45c-0.68-0.64-1.53-1.18-2.52-1.6c-1-0.42-2.42-0.89-4.25-1.43c-2.66-0.8-4.82-1.6-6.51-2.4
	c-1.68-0.8-3.13-1.98-4.34-3.54c-1.21-1.56-1.82-3.59-1.82-6.11c0-3.73,1.38-6.65,4.16-8.76c2.77-2.11,6.39-3.17,10.85-3.17
	c4.53,0,8.18,1.06,10.96,3.17c2.77,2.11,4.26,5.05,4.46,8.82h-10.85c-0.08-1.29-0.56-2.31-1.46-3.05c-0.9-0.74-2.05-1.11-3.46-1.11
	c-1.21,0-2.19,0.31-2.93,0.94c-0.74,0.63-1.11,1.53-1.11,2.71c0,1.29,0.62,2.3,1.88,3.02c1.25,0.72,3.2,1.51,5.86,2.34
	c2.66,0.88,4.82,1.71,6.48,2.51c1.66,0.8,3.09,1.96,4.31,3.48c1.21,1.52,1.82,3.48,1.82,5.88c0,2.28-0.6,4.36-1.79,6.22
	c-1.19,1.87-2.92,3.35-5.19,4.45c-2.27,1.1-4.94,1.65-8.03,1.65C379.2,95.84,376.51,95.37,374.12,94.41z"/>
<path class="st1" d="M432.98,55.37v7.82h-10.9v32.25h-10.02V63.2h-10.9v-7.82H432.98z"/>
<path class="st1" d="M448.04,55.37v40.07h-10.02V55.37H448.04z"/>
<path class="st1" d="M189.24,143.8l-1.97-6.24h-11.76l-1.87,6.24h-8.35l10.56-33.02h11.33l10.56,33.02H189.24z M181.47,118.17h-0.24
	l-3.79,12.62h7.87L181.47,118.17z M201.41,110.77h11.66c4.86,0,8.34,0.5,10.42,1.49c2.08,0.96,3.38,2.5,3.89,4.61
	c0.51,2.08,0.77,5.55,0.77,10.42c0,4.86-0.26,8.35-0.77,10.46c-0.51,2.08-1.81,3.62-3.89,4.61c-2.08,0.96-5.55,1.44-10.42,1.44
	h-11.66V110.77z M212.88,137.03c2.46,0,4.1-0.14,4.9-0.43c0.83-0.32,1.34-1.06,1.54-2.21c0.22-1.18,0.34-3.55,0.34-7.1
	c0-3.52-0.11-5.87-0.34-7.06c-0.22-1.18-0.75-1.92-1.58-2.21c-0.8-0.32-2.42-0.48-4.85-0.48h-3.17v19.49H212.88z M262.15,143.8
	v-21.02h-0.34l-7.06,21.02h-5.66l-7.06-21.02h-0.34v21.02h-7.78v-33.02h11.47l6.53,19.06h0.34l6.48-19.06h11.42v33.02H262.15z
	 M276.77,143.8v-33.02h8.35v33.02H276.77z M311.35,143.8l-11.42-18.86h-0.24v18.86h-7.97v-33.02h8.59l10.61,17.14h0.24v-17.14h8.02
	v33.02H311.35z"/>
<g>
</g>
<g>
</g>
<g>
</g>
<g>
</g>
<g>
</g>
<g>
</g>
<g>
</g>
<g>
</g>
<g>
</g>
<g>
</g>
<g>
</g>
</svg>
