<?xml version="1.0" encoding="utf-8"?>
<!-- Generator: Adobe Illustrator 25.2.0, SVG Export Plug-In . SVG Version: 6.00 Build 0)  -->
<svg version="1.1" id="analytics-home" xmlns="http://www.w3.org/2000/svg" xmlns:xlink="http://www.w3.org/1999/xlink" x="0px" y="0px"
	 viewBox="0 0 40 40" style="enable-background:new 0 0 40 40;" xml:space="preserve">
<style type="text/css">
</style>
<path class="st0" d="M7.5,39H0.8V28.7c0-0.4,0.3-0.7,0.7-0.7h5.2c0.4,0,0.7,0.3,0.7,0.7V39z"/>
<path class="st0" d="M18,39h-6.7V17.7c0-0.4,0.3-0.7,0.7-0.7h5.2c0.4,0,0.7,0.3,0.7,0.7V39z"/>
<path class="st0" d="M28.5,39h-6.7V21.8c0-0.4,0.4-0.8,0.8-0.8h5.1c0.4,0,0.8,0.4,0.8,0.8V39z"/>
<path class="st0" d="M39,39h-6.7V6.8c0-0.4,0.3-0.8,0.8-0.8h5.2C38.7,6,39,6.3,39,6.8V39z"/>
<circle class="st0" cx="7.3" cy="13.7" r="2.1"/>
<circle class="st0" cx="14.2" cy="8.2" r="2.1"/>
<circle class="st0" cx="21.1" cy="12.4" r="2.1"/>
<circle class="st0" cx="26.6" cy="4.1" r="2.1"/>
<rect x="10.7" y="6.1" transform="matrix(0.624 0.7814 -0.7814 0.624 12.3255 -5.0526)" class="st0" width="1.4" height="8.3"/>
<rect x="16.9" y="6.1" transform="matrix(-0.5621 0.8271 -0.8271 -0.5621 35.9386 1.3843)" class="st0" width="1.4" height="8.3"/>
<rect x="23.8" y="3.3" transform="matrix(0.8271 0.5621 -0.5621 0.8271 8.4231 -12.4869)" class="st0" width="1.4" height="8.3"/>
<g>
</g>
<g>
</g>
<g>
</g>
<g>
</g>
<g>
</g>
<g>
</g>
<g>
</g>
<g>
</g>
<g>
</g>
<g>
</g>
<g>
</g>
</svg>
