<?xml version="1.0" encoding="utf-8"?>
<!-- Generator: Adobe Illustrator 25.2.0, SVG Export Plug-In . SVG Version: 6.00 Build 0)  -->
<svg version="1.1" id="finance-home" xmlns="http://www.w3.org/2000/svg" xmlns:xlink="http://www.w3.org/1999/xlink" x="0px" y="0px"
	 viewBox="0 0 40 40" style="enable-background:new 0 0 40 40;" xml:space="preserve">
<style type="text/css">
</style>
<path class="st0" d="M20.1,8.1c-0.2,0-0.4,0-0.6,0l7.1-3.8l1.2,1.4L31.6,1h-7.6l1.3,1.7l-5.2,2.8l-1.4-2.3l0,0l-0.5-0.8L2.4,10.9
	l1.3,2.1l13.6-7.3l1.6,2.6l0.1,0l0,0.1C10.4,8.8,3.6,15.4,3.6,23.6C3.6,32.1,11,39,20.1,39c9.1,0,16.5-6.9,16.5-15.4
	C36.7,15,29.3,8.1,20.1,8.1z M21.9,32.7v3.2h-3.5v-3c-2.4-0.1-4.6-0.9-6-1.5l1.1-4.2c1.6,0.9,3.9,1.7,6.2,1.7c2.1,0,3.3-0.3,3.3-1.5
	c0-1.1-1.2-1.6-3.9-2.4c-4.7-1.3-6.6-3.1-6.6-6.1c0-2.8,1.9-5,6-5.6v-3H22V13c2.4,0.1,4.2,0.7,5.2,1.2l-1.3,4
	c-1-0.4-2.7-1.3-5.3-1.3c-2.3,0-3,0.6-3,1.4c0,1,1.3,1.5,4.3,2.3c4.9,1.3,6.1,3.5,6.1,6.2C28.2,29.7,26,32,21.9,32.7z"/>
<g>
</g>
<g>
</g>
<g>
</g>
<g>
</g>
<g>
</g>
<g>
</g>
<g>
</g>
<g>
</g>
<g>
</g>
<g>
</g>
<g>
</g>
</svg>
