<?xml version="1.0" encoding="utf-8"?>
<!-- Generator: Adobe Illustrator 25.2.0, SVG Export Plug-In . SVG Version: 6.00 Build 0)  -->
<svg version="1.1" id="keys_1" xmlns="http://www.w3.org/2000/svg" xmlns:xlink="http://www.w3.org/1999/xlink" x="0px" y="0px"
	 viewBox="0 0 40 40" style="enable-background:new 0 0 40 40;" xml:space="preserve">
<style type="text/css">
	.st1{display:none;}
</style>
<path class="st0" d="M25.7,17.5c-0.1,0.1-0.1,0.1-0.1,0.2l-3.9,3.9c-0.6,0.6-1.5,0.6-2.1,0.1l-1.3-1.3c-0.6-0.6-0.5-1.5,0.1-2.1
	l3.9-3.9c0.1-0.1,0.1-0.1,0.2-0.1c-1.7-1.2-4.1-1-5.7,0.6l-1.4,1.4c-1.7,1.7-1.8,4.5-0.2,6.1L4.9,32.6c-0.5,0.5-0.5,1.4,0,2l0.3,0.3
	c0.5,0.5,1.4,0.5,2,0l10.3-10.3c1.7,1.7,4.5,1.6,6.3-0.1l1.4-1.4C26.7,21.6,27,19.2,25.7,17.5z"/>
<path class="st1" d="M19.4,16.2c0,0,0,0.1-0.1,0.1L16,19.6c-0.5,0.5-1.3,0.5-1.8,0l-1.1-1.1c-0.5-0.5-0.4-1.3,0-1.8l3.3-3.3
	c0,0,0.1,0,0.1-0.1c-1.4-1-3.5-0.8-4.8,0.5l-1.2,1.2c-1.5,1.5-1.5,3.8-0.2,5.2L1.8,29c-0.4,0.4-0.4,1.2,0,1.7L2.1,31
	c0.4,0.4,1.2,0.4,1.7,0l8.7-8.7c1.4,1.4,3.8,1.4,5.3-0.1l1.2-1.2C20.3,19.6,20.5,17.6,19.4,16.2z"/>
<path class="st0" d="M36.8,16.7l-2.9-0.1c-0.2,0-0.3,0-0.4,0.1c-0.3-1.4-0.9-2.7-1.6-3.9l1.9-2c0.8-0.8,0.8-2.1,0-3l-2-2
	c-0.8-0.8-2.1-0.8-3,0l-1.9,2c-1-0.7-2.2-1.2-3.5-1.5V4.4c0-1.2-0.9-2.1-2.1-2.1h-2.9c-1.2,0-2.1,0.9-2.1,2.1v1.9
	c-0.9,0.2-1.7,0.5-2.5,0.9c0,0,0,0,0-0.1l-2-2c-0.9-0.8-2.2-0.8-3,0l-2,2c-0.8,0.8-0.8,2.1,0,3l1.6,1.6c-1,1.4-1.7,2.9-2.2,4.6H3
	c-1.2,0-2.1,0.9-2.1,2.1v2.9c0,1.1,0.9,2,2.1,2h2.9c0.1,0,0.2,0,0.3-0.1c0.3,1.3,0.8,2.4,1.4,3.5l5.1-5.1c-0.1-0.6-0.2-1.2-0.2-1.8
	c0-4.2,3.4-7.6,7.6-7.6c4.2,0,7.6,3.4,7.6,7.6c0,4.2-3.4,7.6-7.6,7.6c-0.9,0-1.8-0.2-2.6-0.5l-4.9,4.9c0.1,0.1,0.2,0.2,0.4,0.4
	c1.1,0.6,2.2,1.1,3.4,1.4v1.9c0,1.2,0.9,2.1,2.1,2.1h2.9c1.2,0,2.1-0.9,2.1-2.1v-1.9c0.9-0.2,1.7-0.5,2.5-0.9c0,0,0,0,0,0.1l2,2
	c0.8,0.8,2.1,0.8,3,0l2-2c0.8-0.8,0.8-2.1,0-3l-1.6-1.6c1-1.4,1.7-2.9,2.2-4.6c0.1,0,0.1,0.1,0.2,0.1l2.9,0.1c1.2,0,2.1-0.9,2.2-2
	l0.1-2.9C38.9,17.7,38,16.8,36.8,16.7z"/>
</svg>
