<?xml version="1.0" encoding="utf-8"?>
<svg version="1.1" id="locate-user" xmlns="http://www.w3.org/2000/svg" xmlns:xlink="http://www.w3.org/1999/xlink" x="0px" y="0px"
	 viewBox="0 0 40 40" enable-background="new 0 0 40 40" xml:space="preserve">
<ellipse fill="currentColor" cx="19.028" cy="10.2" rx="6.997" ry="7.288"/>
<path fill="currentColor" d="M21.203,31.843c0-4.142,3.358-7.5,7.5-7.5c0.503,0,0.994,0.051,1.469,0.146
	c-0.802-3.451-3.89-6.026-7.585-6.026h-7.603c-4.305,0-7.794,3.49-7.794,7.794v1.369c0,4.305,3.49,7.794,7.794,7.794h7.126
	C21.531,34.357,21.203,33.139,21.203,31.843z M20.724,27.431c0,2.339-0.717,4.235-1.601,4.235c-0.884,0-1.601-1.896-1.601-4.235
	c0-1.905,0.479-3.497,1.133-4.03c-0.654-0.268-1.133-1.07-1.133-2.03c0-1.179,0.717-2.134,1.601-2.134
	c0.884,0,1.601,0.955,1.601,2.134c0,0.96-0.479,1.762-1.133,2.03C20.245,23.934,20.724,25.526,20.724,27.431z"/>
<rect x="16.008" y="18.721" fill="currentColor" width="5" height="13"/>
<path fill="currentColor" d="M28.153,26.465c-2.572,0-4.657,2.085-4.657,4.657c0,1.105,0.401,2.106,1.043,2.905l0.084,0.117l0.073,0.073
	c0.115,0.128,0.235,0.248,0.363,0.363l3.094,3.094l3.094-3.094c0.128-0.115,0.248-0.235,0.363-0.363l0.101-0.1l0.056-0.089
	c0.643-0.798,1.043-1.8,1.043-2.905C32.81,28.55,30.725,26.465,28.153,26.465z M28.153,32.846c-0.836,0-1.514-0.678-1.514-1.514
	c0-0.836,0.678-1.514,1.514-1.514c0.836,0,1.514,0.678,1.514,1.514C29.667,32.168,28.989,32.846,28.153,32.846z"/>
</svg>
