<?xml version="1.0" encoding="utf-8"?>
<svg version="1.1" id="orders-analytics" xmlns="http://www.w3.org/2000/svg" xmlns:xlink="http://www.w3.org/1999/xlink" x="0px" y="0px"
	 viewBox="0 0 40 40" enable-background="new 0 0 40 40" xml:space="preserve">
<g id="Layer_7_2_">
	<path fill="currentColor" d="M4.75,16.077v19h12.415v-19H4.75z M9.808,32.033H7.877V24.37h1.931V32.033z M9.808,22.165H7.877v-2.204
		h1.931V22.165z"/>
	<path display="none" fill="currentColor" d="M39.189,32.216h-1.124c-0.125,0-0.125,0-0.125,0c-0.125-0.624-0.375-1.124-0.624-1.623
		l0.749-0.874c0.375-0.375,0.375-0.874,0-1.248l-0.874-0.874c-0.375-0.375-0.874-0.375-1.248,0l-0.874,0.999
		c-0.375-0.25-0.874-0.499-1.373-0.624v-0.749c0-0.499-0.375-0.874-0.874-0.874h-1.124c-0.499,0-0.874,0.375-0.874,0.874v0.749
		c-0.375,0.125-0.749,0.25-0.999,0.375l0,0l-0.874-0.874c-0.375-0.375-0.874-0.375-1.248,0l-0.874,0.874
		c-0.375,0.375-0.375,0.874,0,1.248l0.624,0.624c-0.375,0.624-0.749,1.124-0.874,1.873h-0.125h-1.124
		c-0.499,0-0.874,0.375-0.874,0.874v1.124c0,0.499,0.375,0.874,0.874,0.874h1.124h0.125c0.125,0.624,0.375,1.124,0.624,1.623
		l-0.749,0.874c-0.375,0.375-0.375,0.874,0,1.248l0.874,0.874c0.375,0.375,0.874,0.375,1.248,0l0.749-0.874
		c0.499,0.25,0.874,0.499,1.498,0.624v0.499c0,0.499,0.375,0.874,0.874,0.874h1.124c0.499,0,0.874-0.375,0.874-0.874v-0.749
		c0.375-0.125,0.749-0.25,0.999-0.375l0,0l0.874,0.874c0.375,0.375,0.874,0.375,1.248,0l0.874-0.874
		c0.375-0.375,0.375-0.874,0-1.248l-0.624-0.624c0.375-0.624,0.749-1.124,0.874-1.873c0,0,0,0,0.125,0h1.124
		c0.499,0,0.874-0.375,0.874-0.874v-1.124C39.938,32.59,39.563,32.216,39.189,32.216z M32.198,30.593
		c1.623,0,2.871,1.248,2.871,2.871c0,1.623-1.248,2.871-2.871,2.871c-1.498,0-2.871-1.248-2.871-2.871
		C29.327,31.966,30.7,30.593,32.198,30.593z"/>
</g>
<path fill="currentColor" d="M30.614,24.793c-3.866,0-7,3.134-7,7s3.134,7,7,7s7-3.134,7-7S34.48,24.793,30.614,24.793z M28.191,35.993
	h-1.778v-3.556h1.778V35.993z M30.858,35.993H29.08v-5.185h1.778V35.993z M33.525,28.918v7.076h-1.778v-7.076H30.74l1.985-2.257
	l1.985,2.257H33.525z"/>
<path fill="currentColor" d="M22.612,32.191c0-4.594,3.694-8.319,8.252-8.319c0.728,0,1.43,0.105,2.103,0.283v-8.079H19.165V34.87h3.892
	C22.773,34.029,22.612,33.13,22.612,32.191z"/>
<path fill="currentColor" d="M28.165,4.077v-2H13.917c-2.111,0-3.943,0.81-4.87,2H28.165z"/>
<path fill="currentColor" d="M9.165,5.077v9h19v-9H9.165z M22.165,11.827h-10v-1.125h10V11.827z M25.165,8.452h-13V7.327h13V8.452z"/>
<polygon fill="currentColor" points="7.165,13.983 4.043,13.983 3.165,11.077 6.448,11.077 "/>
<polygon fill="currentColor" points="30.165,14.136 33.713,14.136 34.712,11.23 30.98,11.23 "/>
</svg>
