<?xml version="1.0" encoding="utf-8"?>
<!-- Generator: Adobe Illustrator 25.2.0, SVG Export Plug-In . SVG Version: 6.00 Build 0)  -->
<svg version="1.1" id="overview" xmlns="http://www.w3.org/2000/svg" xmlns:xlink="http://www.w3.org/1999/xlink" x="0px" y="0px"
	 viewBox="0 0 40 40" style="enable-background:new 0 0 40 40;" xml:space="preserve">
<style type="text/css">
</style>
<path class="st0" d="M38.3,20.8l-5.4-5.5V7c0-0.9-0.7-1.6-1.5-1.6h-2.1c-0.8,0-1.5,0.7-1.5,1.6v3l-6.1-6.3c-0.9-0.9-2.4-0.9-3.3,0
	L1.7,20.8c-1.5,1.5-0.4,4.1,1.6,4.1h2v10.8c0,1.8,1.5,3.3,3.3,3.3h8.8v-8.8h5.2V39h8.8c1.8,0,3.3-1.5,3.3-3.3V24.9h2
	C38.7,24.9,39.8,22.3,38.3,20.8z"/>
<g>
</g>
<g>
</g>
<g>
</g>
<g>
</g>
<g>
</g>
<g>
</g>
<g>
</g>
<g>
</g>
<g>
</g>
<g>
</g>
<g>
</g>
</svg>
