<?xml version="1.0" encoding="utf-8"?>
<!-- Generator: Adobe Illustrator 25.2.0, SVG Export Plug-In . SVG Version: 6.00 Build 0)  -->
<svg version="1.1" id="partners4664" xmlns="http://www.w3.org/2000/svg" xmlns:xlink="http://www.w3.org/1999/xlink" x="0px" y="0px"
	 viewBox="0 0 40 40" style="enable-background:new 0 0 40 40;" xml:space="preserve">
<style type="text/css">
</style>
<circle class="st0" cx="9.4" cy="12.3" r="5.6"/>
<path class="st0" d="M13,19.2H9.6c0.6,0,1,0.8,1,1.7c0,0.6-0.2,1.1-0.4,1.4c0.3,0.6,0.4,1.5,0.4,2.5c0,1.7-0.5,3.1-1,3.1
	c-0.6,0-1-1.4-1-3.1c0-1,0.2-1.9,0.4-2.5c-0.3-0.3-0.4-0.8-0.4-1.4c0-0.9,0.5-1.7,1-1.7H5.7c-2.9,0-5.2,2.8-5.2,6.2s2.3,6.2,5.2,6.2
	H13c2.9,0,5.2-2.8,5.2-6.2S15.9,19.2,13,19.2z"/>
<circle class="st0" cx="26.5" cy="12.5" r="7.8"/>
<path class="st0" d="M31.5,22.1h-4.9c0.8,0,1.5,1.1,1.5,2.4c0,0.8-0.2,1.5-0.6,1.9c0.4,0.8,0.6,2.1,0.6,3.5c0,2.4-0.7,4.3-1.5,4.3
	s-1.5-1.9-1.5-4.3c0-1.4,0.2-2.7,0.6-3.5c-0.4-0.4-0.6-1.1-0.6-1.9c0-1.3,0.7-2.4,1.5-2.4H21c-4.1,0-7.5,3.9-7.5,8.7
	s3.4,8.7,7.5,8.7h10.5c4.1,0,7.5-3.9,7.5-8.7S35.6,22.1,31.5,22.1z"/>
<g>
</g>
<g>
</g>
<g>
</g>
<g>
</g>
<g>
</g>
<g>
</g>
<g>
</g>
<g>
</g>
<g>
</g>
<g>
</g>
<g>
</g>
</svg>
