<?xml version="1.0" encoding="utf-8"?>
<!-- Generator: Adobe Illustrator 25.2.0, SVG Export Plug-In . SVG Version: 6.00 Build 0)  -->
<svg version="1.1" id="partners-analytics" xmlns="http://www.w3.org/2000/svg" xmlns:xlink="http://www.w3.org/1999/xlink" x="0px" y="0px"
	 viewBox="0 0 40 40" enable-background="new 0 0 40 40" xml:space="preserve">
<ellipse fill="currentColor" cx="9.542" cy="14.08" rx="4.47" ry="4.567"/>
<ellipse fill="currentColor" cx="21.467" cy="9.998" rx="6.997" ry="7.288"/>
<path fill="none" stroke="currentColor" stroke-width="1.5" stroke-miterlimit="10" d="M11.31,20.871"/>
<path fill="currentColor" d="M7.642,26.642c0-2.579,1.031-4.914,2.699-6.626l-3.172,0.089c-3.315,0.093-5.928,2.855-5.835,6.169
	l0.029,1.034c0.093,3.315,2.855,5.927,6.17,5.834l2.627-0.073C8.601,31.376,7.642,29.124,7.642,26.642z"/>
<path fill="currentColor" d="M22.986,31.071c0-4.418,3.582-8,8-8c0.435,0,0.858,0.044,1.274,0.111c-1.144-2.88-3.946-4.92-7.234-4.92
	h-7.603c-4.305,0-7.794,3.49-7.794,7.794v1.369c0,4.305,3.49,7.794,7.794,7.794h6.732C23.418,34.009,22.986,32.592,22.986,31.071z
	 M21.562,31.465c-0.884,0-1.601-1.896-1.601-4.235c0-1.905,0.479-3.497,1.133-4.03c-0.654-0.268-1.133-1.07-1.133-2.03
	c0-1.179,0.717-2.134,1.601-2.134c0.884,0,1.601,0.955,1.601,2.134c0,0.96-0.479,1.762-1.133,2.03
	c0.654,0.532,1.133,2.124,1.133,4.03C23.163,29.569,22.446,31.465,21.562,31.465z"/>
<path fill="currentColor" d="M30.986,24.071c-3.866,0-7,3.134-7,7s3.134,7,7,7s7-3.134,7-7S34.852,24.071,30.986,24.071z M28.564,35.271
	h-1.778v-3.556h1.778V35.271z M31.231,35.271h-1.778v-5.185h1.778V35.271z M33.897,28.195v7.076h-1.778v-7.076h-1.007l1.985-2.257
	l1.985,2.257H33.897z"/>
</svg>
