<?xml version="1.0" encoding="utf-8"?>
<!-- Generator: Adobe Illustrator 25.2.0, SVG Export Plug-In . SVG Version: 6.00 Build 0)  -->
<svg version="1.1" id="sessions_1" xmlns="http://www.w3.org/2000/svg" xmlns:xlink="http://www.w3.org/1999/xlink" x="0px" y="0px"
	 viewBox="0 0 40 40" style="enable-background:new 0 0 40 40;" xml:space="preserve">
<g>
	<ellipse class="st0" cx="6.8" cy="28.3" rx="3.1" ry="3"/>
	<path class="st0" d="M9.2,32H4.4c-1.9,0-3.5,1.5-3.5,3.4s1.5,3.4,3.5,3.4h4.9c1.9,0,3.5-1.5,3.5-3.4S11.2,32,9.2,32z"/>
</g>
<g>
	<ellipse class="st0" cx="20" cy="28.3" rx="3.1" ry="3"/>
	<path class="st0" d="M22.4,32h-4.9c-1.9,0-3.5,1.5-3.5,3.4s1.5,3.4,3.5,3.4h4.9c1.9,0,3.5-1.5,3.5-3.4S24.4,32,22.4,32z"/>
</g>
<g>
	<ellipse class="st0" cx="33.2" cy="28.3" rx="3.1" ry="3"/>
	<path class="st0" d="M35.6,32h-4.9c-1.9,0-3.5,1.5-3.5,3.4s1.5,3.4,3.5,3.4h4.9c1.9,0,3.5-1.5,3.5-3.4S37.6,32,35.6,32z"/>
</g>
<path class="st0" d="M35.3,23.6H5.1c-1.6,0-2.9-1.3-2.9-2.9V5.8c0-1.6,1.3-2.9,2.9-2.9h30.1c1.6,0,2.9,1.3,2.9,2.9v14.9
	C38.1,22.3,36.8,23.6,35.3,23.6z"/>
<path class="st0" d="M13.1,16.6l4.5,3.9c0.6,0.6,0.7,1.6,0.1,2.2l-3.3,3.8c-0.6,0.6-1.6,0.7-2.2,0.1l-4.5-3.9
	c-0.6-0.6-0.7-1.6-0.1-2.2l3.3-3.8C11.4,16.1,12.4,16,13.1,16.6z"/>
</svg>
