<?xml version="1.0" encoding="utf-8"?>
<!-- Generator: Adobe Illustrator 25.2.0, SVG Export Plug-In . SVG Version: 6.00 Build 0)  -->
<svg version="1.1" id="settingsk5864" xmlns="http://www.w3.org/2000/svg" xmlns:xlink="http://www.w3.org/1999/xlink" x="0px" y="0px"
	 viewBox="0 0 40 40" style="enable-background:new 0 0 40 40;" xml:space="preserve">
<style type="text/css">
</style>
<path class="st0" d="M36.9,17.4l-2.9-0.1c-0.2,0-0.3,0-0.4,0.1c-0.3-1.4-0.9-2.7-1.6-3.9l1.9-2c0.8-0.8,0.8-2.1,0-3l-2-2
	c-0.8-0.8-2.1-0.8-3,0l-1.9,2C26,7.8,24.8,7.3,23.5,7V5.1c0-1.2-0.9-2.1-2.1-2.1h-2.9c-1.2,0-2.1,0.9-2.1,2.1V7
	c-0.9,0.2-1.7,0.5-2.5,0.9c0,0,0,0,0-0.1l-2-2C11,5,9.7,5,8.9,5.8l-2,2c-0.8,0.8-0.8,2.1,0,3l1.6,1.6c-1,1.4-1.7,2.9-2.2,4.6
	C6.2,17,6.1,17,6,17H3.1C1.9,17,1,17.9,1,19.1v2.9C1,23.1,1.9,24,3.1,24H6c0.1,0,0.2,0,0.3-0.1c0.3,1.4,0.9,2.7,1.6,3.9l-1.9,2
	c-0.8,0.8-0.8,2.1,0,3l2,2c0.8,0.8,2.1,0.8,3,0l1.9-2c1.1,0.7,2.3,1.2,3.6,1.5v1.9c0,1.2,0.9,2.1,2.1,2.1h2.9c1.2,0,2.1-0.9,2.1-2.1
	v-1.9c0.9-0.2,1.7-0.5,2.5-0.9c0,0,0,0,0,0.1l2,2c0.8,0.8,2.1,0.8,3,0l2-2c0.8-0.8,0.8-2.1,0-3l-1.6-1.6c1-1.4,1.7-2.9,2.2-4.6
	c0.1,0,0.1,0.1,0.2,0.1l2.9,0.1c1.2,0,2.1-0.9,2.2-2l0.1-2.9C39,18.4,38.1,17.5,36.9,17.4z M19.9,13.6c3.9,0,7,3.2,7,7.1
	c0,3.9-3.2,7.1-7,7.1s-7-3.2-7-7.1C12.9,16.8,16,13.6,19.9,13.6z"/>
<g>
</g>
<g>
</g>
<g>
</g>
<g>
</g>
<g>
</g>
<g>
</g>
<g>
</g>
<g>
</g>
<g>
</g>
<g>
</g>
<g>
</g>
</svg>
