<?xml version="1.0" encoding="utf-8"?>
<svg version="1.1" id="social-media-analytics" xmlns="http://www.w3.org/2000/svg" xmlns:xlink="http://www.w3.org/1999/xlink" x="0px" y="0px"
	 viewBox="0 0 40 40" enable-background="new 0 0 40 40" xml:space="preserve">
<path fill="currentColor" d="M2.988,9.986v18.557l6.585,3.55v-7.141l-1.796-1.197v-2.828l1.796,1.032V19.05
	c0-1.414,1.488-2.334,2.753-1.702l2.036,1.018v2.955l-1.506-0.729c-0.411-0.199-0.888,0.1-0.888,0.557v2.006l2.394,1.197v2.394
	l-2.394-1.197v7.782l-0.47-0.235l5.259,2.63V16.571L2.988,9.986z"/>
<path fill="currentColor" d="M17.354,4L3.586,9.387l13.768,6.448l13.768-6.448L17.354,4z M23.21,10.513l-3.592,1.796
	c-1.099,0.427-2.884,0.469-4.23-0.06l-3.592-1.796c-0.595-0.21-0.783-1.056-0.091-1.647l4.107-1.673
	c0.329-0.134,0.669-0.242,1.019-0.299c0.856-0.138,1.169,0.026,1.718,0.159l4.216,1.622C24.742,9.478,24.079,10.13,23.21,10.513z"/>
<ellipse fill="none" stroke="currentColor" stroke-miterlimit="10" cx="17.504" cy="9.444" rx="2.245" ry="0.842"/>
<ellipse fill="currentColor" cx="17.223" cy="7.442" rx="0.561" ry="0.281"/>
<path fill="currentColor" d="M32.223,25.633c-3.504,0-6.345,2.841-6.345,6.345s2.841,6.345,6.345,6.345s6.345-2.841,6.345-6.345
	S35.727,25.633,32.223,25.633z M30.027,35.786h-1.611v-3.223h1.611V35.786z M32.444,35.786h-1.611v-4.7h1.611V35.786z
	 M34.861,29.372v6.414H33.25v-6.414h-0.913l1.799-2.046l1.799,2.046H34.861z"/>
<path fill="currentColor" d="M24.571,31.918c0-3.741,2.907-6.795,6.585-7.045V10.708l-13.169,5.986v19.155l6.601-3.601
	C24.583,32.138,24.571,32.029,24.571,31.918z M19.782,29.264c2.394-0.599,2.993-2.394,2.993-2.394
	c-1.796-0.599-1.796-1.197-1.796-1.197l1.197-0.599c-1.796-0.599-1.796-1.796-1.796-1.796h1.197
	c-1.796-2.394-0.599-3.592-0.599-3.592c1.197,1.197,2.394,1.197,2.394,1.197c1.197,0,1.796-0.599,1.796-0.599
	c0-2.993,1.796-4.19,1.796-4.19c1.197-0.599,1.796,0,1.796,0l1.197-1.197c0,1.197-0.599,1.796-0.599,1.796l0.599-0.599
	c0,0.599-0.599,1.796-0.599,1.796c0,5.986-4.789,10.176-4.789,10.176C22.775,29.863,19.782,29.264,19.782,29.264z"/>
</svg>
