<?xml version="1.0" encoding="utf-8"?>
<svg version="1.1" xmlns="http://www.w3.org/2000/svg" xmlns:xlink="http://www.w3.org/1999/xlink" x="0px" y="0px"
	 viewBox="0 0 40 40" enable-background="new 0 0 40 40" xml:space="preserve">
<g>
	<path fill="none" stroke="currentColor" stroke-width="1.5" stroke-miterlimit="10" d="M14.064,10.16"/>
</g>
<g>
	<rect x="23.821" y="16.543" fill="currentColor" width="5.55" height="1.281"/>
	<rect x="23.821" y="18.677" fill="currentColor" width="3.415" height="1.281"/>
	<rect x="23.821" y="20.812" fill="currentColor" width="2.561" height="1.281"/>
</g>
<ellipse fill="currentColor" cx="31.214" cy="22.936" rx="0.96" ry="0.998"/>
<path fill="currentColor" d="M5.364,10.26c-0.8-0.1-1.5,0.5-1.8,1.2l-1.9,5.6v11.6c0,0.7,0.6,1.3,1.3,1.3h1.8
	c0.126-1.818,1.625-3.259,3.476-3.259s3.35,1.44,3.476,3.259h2.024v-19.7H5.364z M10.964,19.359v2.6h-6v-2.6l1-5.1h5V19.359z"/>
<path fill="currentColor" d="M35.964,6.26H15.74v23.7h7.024c0.126-1.818,1.625-3.259,3.476-3.259s3.35,1.44,3.476,3.259h7.848v-22.1
	C37.564,6.96,36.864,6.26,35.964,6.26z M24.05,12.701h8.31v1.708H21.21C21.75,13.393,22.819,12.701,24.05,12.701z M20.833,24.654
	v-8.736c0-0.225,0.023-0.444,0.067-0.655h11.459v4.882c-0.334-0.118-0.692-0.186-1.067-0.186c-1.768,0-3.202,1.433-3.202,3.202
	c0,0.54,0.135,1.048,0.371,1.494H20.833z M33.863,23.128c0,0.154-0.154,0.269-0.307,0.269h-0.384c-0.038,0-0.038,0-0.038,0
	c-0.077,0.269-0.154,0.461-0.307,0.653l0.23,0.23c0.115,0.115,0.115,0.307,0,0.422l-0.269,0.269c-0.115,0.115-0.307,0.115-0.422,0
	l-0.269-0.269c-0.115,0.038-0.23,0.077-0.345,0.115v0.269c0,0.192-0.154,0.307-0.307,0.307h-0.384c-0.192,0-0.307-0.154-0.307-0.307
	v-0.269c-0.192-0.038-0.345-0.077-0.499-0.192l-0.269,0.269c-0.115,0.115-0.307,0.115-0.422,0l-0.269-0.269
	c-0.115-0.115-0.115-0.307,0-0.422l0.269-0.269c-0.115-0.154-0.192-0.345-0.23-0.537h-0.038h-0.384
	c-0.192,0-0.307-0.115-0.307-0.269v-0.384c0-0.192,0.154-0.307,0.307-0.307h0.384h0.038c0.077-0.269,0.154-0.461,0.307-0.653
	l-0.23-0.23c-0.115-0.115-0.115-0.307,0-0.422l0.269-0.269c0.115-0.115,0.307-0.115,0.422,0l0.307,0.307
	c0.115-0.038,0.23-0.077,0.345-0.115v-0.269c0-0.192,0.154-0.307,0.307-0.307h0.384c0.192,0,0.307,0.154,0.307,0.307v0.269
	c0.192,0.038,0.345,0.077,0.499,0.192l0.269-0.269c0.115-0.115,0.307-0.115,0.422,0l0.269,0.269c0.115,0.115,0.115,0.307,0,0.422
	l-0.269,0.269c0.115,0.154,0.192,0.346,0.23,0.537c0,0,0,0,0.038,0h0.384c0.154,0,0.269,0.115,0.269,0.269V23.128z"/>
<circle fill="currentColor" cx="26.24" cy="30.201" r="2.5"/>
<circle fill="currentColor" cx="8.24" cy="30.201" r="2.5"/>
</svg>
