<?xml version="1.0" encoding="utf-8"?>
<svg version="1.1" xmlns="http://www.w3.org/2000/svg" xmlns:xlink="http://www.w3.org/1999/xlink" x="0px" y="0px"
	 viewBox="0 0 40 40" enable-background="new 0 0 40 40" xml:space="preserve">
<path fill="currentColor" d="M34.245,28.422h-0.899c-0.09,0-0.09,0-0.09,0c-0.09-0.45-0.27-0.899-0.54-1.259l0.629-0.629
	c0.27-0.27,0.27-0.719,0-0.989l-0.629-0.629c-0.27-0.27-0.719-0.27-0.989,0l-0.629,0.629c-0.36-0.27-0.719-0.36-1.169-0.45v-0.629
	c0-0.36-0.27-0.719-0.719-0.719H28.31c-0.36,0-0.719,0.27-0.719,0.719v0.629c-0.27,0.09-0.54,0.18-0.809,0.27l0,0l-0.719-0.719
	c-0.27-0.27-0.719-0.27-0.989,0l-0.629,0.629c-0.27,0.27-0.27,0.719,0,0.989l0.54,0.54c-0.36,0.45-0.54,0.899-0.719,1.529h-0.09
	h-0.899c-0.36,0-0.719,0.27-0.719,0.719v0.899c0,0.36,0.27,0.629,0.719,0.629h0.899h0.09c0.09,0.45,0.27,0.899,0.54,1.259
	l-0.629,0.629c-0.27,0.27-0.27,0.719,0,0.989l0.629,0.629c0.27,0.27,0.719,0.27,0.989,0l0.629-0.629
	c0.36,0.27,0.719,0.36,1.169,0.45v0.629c0,0.36,0.27,0.719,0.719,0.719h0.899c0.36,0,0.719-0.27,0.719-0.719v-0.629
	c0.27-0.09,0.54-0.18,0.809-0.27l0,0l0.629,0.629c0.27,0.27,0.719,0.27,0.989,0l0.629-0.629c0.27-0.27,0.27-0.719,0-0.989
	l-0.54-0.54c0.36-0.45,0.54-0.899,0.719-1.529c0,0,0,0,0.09,0h0.899c0.36,0,0.719-0.27,0.719-0.629v-0.899
	C34.875,28.692,34.605,28.422,34.245,28.422z M28.67,27.163c1.259,0,2.248,1.079,2.248,2.338s-1.079,2.338-2.248,2.338
	c-1.169,0-2.248-1.079-2.248-2.338C26.422,28.153,27.411,27.163,28.67,27.163z"/>
<path fill="currentColor" d="M31.353,9.525v-4H11.888c-2.883,0-5.386,1.621-6.653,4H31.353z"/>
<path fill="currentColor" d="M4.51,11.525c-0.103,0.496-0.157,1.009-0.157,1.535v20.465h17.869c-0.553-1.045-0.869-2.235-0.869-3.5
	c0-4.142,3.358-7.5,7.5-7.5c0.878,0,1.717,0.159,2.5,0.436V11.525H4.51z M17.353,27.525h-6v-3h6V27.525z M19.353,22.525h-8v-3h8
	V22.525z M24.353,17.525h-13v-3h13V17.525z"/>
</svg>
