<?xml version="1.0" encoding="utf-8"?>
<svg version="1.1" xmlns="http://www.w3.org/2000/svg" xmlns:xlink="http://www.w3.org/1999/xlink" x="0px" y="0px"
	 viewBox="0 0 40 40" enable-background="new 0 0 40 40" xml:space="preserve">
<ellipse fill="currentColor" cx="18.586" cy="10.2" rx="6.997" ry="7.288"/>
<path fill="currentColor" d="M33.85,31.036h-0.899c-0.09,0-0.09,0-0.09,0c-0.09-0.45-0.27-0.899-0.54-1.259l0.629-0.629
	c0.27-0.27,0.27-0.719,0-0.989l-0.629-0.629c-0.27-0.27-0.719-0.27-0.989,0l-0.629,0.629c-0.36-0.27-0.719-0.36-1.169-0.45v-0.629
	c0-0.36-0.27-0.719-0.719-0.719h-0.899c-0.36,0-0.719,0.27-0.719,0.719v0.629c-0.27,0.09-0.54,0.18-0.809,0.27l0,0l-0.719-0.719
	c-0.27-0.27-0.719-0.27-0.989,0l-0.629,0.629c-0.27,0.27-0.27,0.719,0,0.989l0.54,0.54c-0.36,0.45-0.54,0.899-0.719,1.529h-0.09
	h-0.899c-0.36,0-0.719,0.27-0.719,0.719v0.899c0,0.36,0.27,0.629,0.719,0.629h0.899h0.09c0.09,0.45,0.27,0.899,0.54,1.259
	l-0.629,0.629c-0.27,0.27-0.27,0.719,0,0.989l0.629,0.629c0.27,0.27,0.719,0.27,0.989,0l0.629-0.629
	c0.36,0.27,0.719,0.36,1.169,0.45v0.629c0,0.36,0.27,0.719,0.719,0.719h0.899c0.36,0,0.719-0.27,0.719-0.719v-0.629
	c0.27-0.09,0.54-0.18,0.809-0.27l0,0l0.629,0.629c0.27,0.27,0.719,0.27,0.989,0l0.629-0.629c0.27-0.27,0.27-0.719,0-0.989
	l-0.54-0.54c0.36-0.45,0.54-0.899,0.719-1.529c0,0,0,0,0.09,0h0.899c0.36,0,0.719-0.27,0.719-0.629v-0.899
	C34.48,31.306,34.21,31.036,33.85,31.036z M28.275,29.777c1.259,0,2.248,1.079,2.248,2.338c0,1.259-1.079,2.338-2.248,2.338
	c-1.169,0-2.248-1.079-2.248-2.338C26.027,30.766,27.016,29.777,28.275,29.777z"/>
<path fill="currentColor" d="M20.761,31.843c0-4.142,3.358-7.5,7.5-7.5c0.503,0,0.994,0.051,1.469,0.146
	c-0.802-3.451-3.89-6.026-7.585-6.026h-7.603c-4.305,0-7.794,3.49-7.794,7.794v1.369c0,4.305,3.49,7.794,7.794,7.794h7.126
	C21.089,34.357,20.761,33.139,20.761,31.843z M20.282,27.431c0,2.339-0.717,4.235-1.601,4.235c-0.884,0-1.601-1.896-1.601-4.235
	c0-1.905,0.479-3.497,1.133-4.03c-0.654-0.268-1.133-1.07-1.133-2.03c0-1.179,0.717-2.134,1.601-2.134
	c0.884,0,1.601,0.955,1.601,2.134c0,0.96-0.479,1.762-1.133,2.03C19.803,23.934,20.282,25.526,20.282,27.431z"/>
<rect x="15.566" y="18.721" fill="currentColor" width="5" height="13"/>
</svg>
