<?xml version="1.0" encoding="utf-8"?>
<svg version="1.1" xmlns="http://www.w3.org/2000/svg" xmlns:xlink="http://www.w3.org/1999/xlink" x="0px" y="0px"
	 viewBox="0 0 40 40" enable-background="new 0 0 40 40" xml:space="preserve">
<g>
	<path fill="currentColor" d="M24.661,28.773c0.248-1.696,0.937-3.394,2.278-4.517c1.635-1.37,3.772-1.812,5.865-1.657
		c0.519,0.038,1.034,0.11,1.548,0.199v-8.152h-13.4v18.1h4.002C24.499,31.496,24.473,30.06,24.661,28.773z"/>
	<polygon fill="currentColor" points="19.407,13.009 5.829,13.009 2.007,6.409 16.289,6.409 	"/>
	<polygon fill="currentColor" points="20.952,13.009 34.262,13.009 38.152,6.409 24.024,6.409 	"/>
	<path fill="currentColor" d="M37.452,28.396h-0.9c-0.1,0-0.1,0-0.1,0c-0.1-0.5-0.3-0.9-0.5-1.3l0.6-0.7c0.3-0.3,0.3-0.7,0-1l-0.7-0.7
		c-0.3-0.3-0.7-0.3-1,0l-0.7,0.8c-0.3-0.2-0.7-0.4-1.1-0.5v-0.6c0-0.4-0.3-0.7-0.7-0.7h-0.9c-0.4,0-0.7,0.3-0.7,0.7v0.6
		c-0.3,0.1-0.6,0.2-0.8,0.3l0,0l-0.7-0.7c-0.3-0.3-0.7-0.3-1,0l-0.7,0.7c-0.3,0.3-0.3,0.7,0,1l0.5,0.5c-0.3,0.5-0.6,0.9-0.7,1.5
		h-0.1h-0.9c-0.4,0-0.7,0.3-0.7,0.7v0.9c0,0.4,0.3,0.7,0.7,0.7h0.9h0.1c0.1,0.5,0.3,0.9,0.5,1.3l-0.6,0.7c-0.3,0.3-0.3,0.7,0,1
		l0.7,0.7c0.3,0.3,0.7,0.3,1,0l0.6-0.7c0.4,0.2,0.7,0.4,1.2,0.5v0.4c0,0.4,0.3,0.7,0.7,0.7h0.9c0.4,0,0.7-0.3,0.7-0.7v-0.6
		c0.3-0.1,0.6-0.2,0.8-0.3l0,0l0.7,0.7c0.3,0.3,0.7,0.3,1,0l0.7-0.7c0.3-0.3,0.3-0.7,0-1l-0.5-0.5c0.3-0.5,0.6-0.9,0.7-1.5
		c0,0,0,0,0.1,0h0.9c0.4,0,0.7-0.3,0.7-0.7v-0.9C38.052,28.696,37.752,28.396,37.452,28.396z M31.852,27.096c1.3,0,2.3,1,2.3,2.3
		c0,1.3-1,2.3-2.3,2.3c-1.2,0-2.3-1-2.3-2.3C29.552,28.196,30.652,27.096,31.852,27.096z"/>
	<path fill="currentColor" d="M5.907,14.646v18.1h13.5v-18.1H5.907z M11.407,29.846h-2.1v-7.3h2.1V29.846z M11.407,20.446h-2.1v-2.1h2.1
		V20.446z"/>
</g>
</svg>
