<?xml version="1.0" encoding="utf-8"?>
<svg version="1.1" xmlns="http://www.w3.org/2000/svg" xmlns:xlink="http://www.w3.org/1999/xlink" x="0px" y="0px"
	 viewBox="0 0 40 40" enable-background="new 0 0 40 40" xml:space="preserve">
<path fill="currentColor" d="M34.081,10.495c-0.08,0.08-0.08,0.16-0.16,0.239l-5.435,5.355c-0.799,0.799-2.078,0.799-2.877,0.08
	l-1.758-1.758c-0.799-0.799-0.719-2.078,0.08-2.877l5.435-5.435c0.08-0.08,0.16-0.08,0.239-0.16
	c-2.318-1.599-5.674-1.359-7.832,0.88l-1.918,1.918c-2.397,2.397-2.478,6.154-0.32,8.472L5.389,31.355
	c-0.719,0.719-0.719,1.918,0,2.717l0.48,0.48c0.719,0.719,1.918,0.719,2.717,0l14.147-14.147c2.318,2.318,6.234,2.238,8.632-0.16
	l1.918-1.918C35.44,16.089,35.759,12.812,34.081,10.495z"/>
</svg>
