<?xml version="1.0" encoding="utf-8"?>
<svg version="1.1" xmlns="http://www.w3.org/2000/svg" xmlns:xlink="http://www.w3.org/1999/xlink" x="0px" y="0px"
	 viewBox="0 0 40 40" enable-background="new 0 0 40 40" xml:space="preserve">
<g>
	<path fill="currentColor" d="M17.471,27.558l-5.6,5c-0.7,0.6-1.9,0.1-1.9-0.8v-3c0-0.6,0.5-1.1,1.1-1.1h5h1.4V27.558z"/>
</g>
<circle fill="currentColor" cx="15.72" cy="16.415" r="0.791"/>
<circle fill="currentColor" cx="22.159" cy="16.415" r="0.791"/>
<path fill="none" stroke="currentColor" stroke-miterlimit="10" d="M17.225,20.162c-0.659-0.264-1.319-0.527-1.846-0.791c0,0,0,0,0,0.132
	c0.923,0.791,2.11,1.187,3.429,1.187c1.451,0,2.769-0.527,3.692-1.319C20.918,20.294,19.071,20.69,17.225,20.162z"/>
<path fill="currentColor" d="M38.719,24.3H37.82c-0.09,0-0.09,0-0.09,0c-0.09-0.45-0.27-0.899-0.54-1.259l0.629-0.629
	c0.27-0.27,0.27-0.719,0-0.989l-0.629-0.629c-0.27-0.27-0.719-0.27-0.989,0l-0.629,0.629c-0.36-0.27-0.719-0.36-1.169-0.45v-0.629
	c0-0.36-0.27-0.719-0.719-0.719h-0.899c-0.36,0-0.719,0.27-0.719,0.719v0.629c-0.27,0.09-0.54,0.18-0.809,0.27l0,0l-0.719-0.719
	c-0.27-0.27-0.719-0.27-0.989,0l-0.629,0.629c-0.27,0.27-0.27,0.719,0,0.989l0.54,0.54c-0.36,0.45-0.54,0.899-0.719,1.529h-0.09
	h-0.899c-0.36,0-0.719,0.27-0.719,0.719v0.899c0,0.36,0.27,0.629,0.719,0.629h0.899h0.09c0.09,0.45,0.27,0.899,0.54,1.259
	l-0.629,0.629c-0.27,0.27-0.27,0.719,0,0.989l0.629,0.629c0.27,0.27,0.719,0.27,0.989,0l0.629-0.629
	c0.36,0.27,0.719,0.36,1.169,0.45v0.629c0,0.36,0.27,0.719,0.719,0.719h0.899c0.36,0,0.719-0.27,0.719-0.719v-0.629
	c0.27-0.09,0.54-0.18,0.809-0.27l0,0l0.629,0.629c0.27,0.27,0.719,0.27,0.989,0l0.629-0.629c0.27-0.27,0.27-0.719,0-0.989
	l-0.54-0.54c0.36-0.45,0.54-0.899,0.719-1.529c0,0,0,0,0.09,0h0.899c0.36,0,0.719-0.27,0.719-0.629v-0.899
	C39.348,24.569,39.079,24.3,38.719,24.3z M33.144,23.041c1.259,0,2.248,1.079,2.248,2.338c0,1.259-1.079,2.338-2.248,2.338
	c-1.169,0-2.248-1.079-2.248-2.338C30.896,24.03,31.885,23.041,33.144,23.041z"/>
<path fill="currentColor" d="M25.879,25.624c0-3.866,3.134-7,7-7c1.075,0,2.09,0.25,3,0.683v-8.698c0-1.648-1.336-2.984-2.984-2.984
	H4.863c-1.648,0-2.984,1.336-2.984,2.984v15.031c0,1.648,1.336,2.984,2.984,2.984h21.698C26.128,27.713,25.879,26.699,25.879,25.624
	z M18.929,24.69c-3.838,0-6.95-3.112-6.95-6.95s3.112-6.95,6.95-6.95s6.95,3.112,6.95,6.95S22.767,24.69,18.929,24.69z"/>
</svg>
