<?xml version="1.0" encoding="utf-8"?>
<svg version="1.1" xmlns="http://www.w3.org/2000/svg" xmlns:xlink="http://www.w3.org/1999/xlink" x="0px" y="0px"
	 viewBox="0 0 40 40" enable-background="new 0 0 40 40" xml:space="preserve">
<path fill="none" stroke="currentColor" stroke-width="1.5" stroke-miterlimit="10" d="M36.698,8.385c-0.095,0.095-0.095,0.19-0.19,0.284
	l-6.445,6.35c-0.948,0.948-2.464,0.948-3.412,0.095l-2.085-2.085c-0.948-0.948-0.853-2.464,0.095-3.412l6.445-6.445
	c0.095-0.095,0.19-0.095,0.284-0.19c-2.749-1.896-6.729-1.611-9.288,1.043L19.828,6.3c-2.843,2.843-2.938,7.298-0.379,10.046
	L2.673,33.122c-0.853,0.853-0.853,2.275,0,3.222l0.569,0.569c0.853,0.853,2.275,0.853,3.222,0L23.24,20.137
	c2.749,2.749,7.393,2.654,10.236-0.19l2.275-2.275C38.309,15.019,38.688,11.133,36.698,8.385z"/>
</svg>
