<?xml version="1.0" encoding="utf-8"?>
<svg version="1.1" xmlns="http://www.w3.org/2000/svg" xmlns:xlink="http://www.w3.org/1999/xlink" x="0px" y="0px"
	 viewBox="0 0 40 40" enable-background="new 0 0 40 40" xml:space="preserve">
<g>
	<path fill="none" stroke="currentColor" stroke-miterlimit="10" d="M30.3,22C30.2,22,30.2,22,30.3,22c-0.9-0.7-0.8-2.2,0-2.8
		c0-0.3,0.1-0.5,0.3-0.6V12c0-0.5-0.4-0.9-0.9-0.9H24c-1.6,0-2.8,1.3-2.8,2.8v10.4c0,0.5,0.4,0.9,0.9,0.9h7.7c0.5,0,0.9-0.4,0.9-0.9
		v-2C30.5,22.2,30.4,22.1,30.3,22C30.3,22.1,30.3,22,30.3,22z"/>
	<path fill="currentColor" d="M22.3,14.4h-1.2v-0.7c0-1.4,1.1-2.5,2.5-2.5H24v1.5C24,13.6,23.3,14.4,22.3,14.4z"/>
	<rect x="22.9" y="15.7" fill="currentColor" width="6.1" height="1.1"/>
	<rect x="22.9" y="18.3" fill="currentColor" width="5.2" height="1.1"/>
	<rect x="23" y="20.7" fill="currentColor" width="4.5" height="1.2"/>
	<path fill="currentColor" d="M34.4,20h-0.5h-0.1c-0.1-0.2-0.2-0.5-0.3-0.7l0.3-0.3c0.1-0.1,0.1-0.4,0-0.5l-0.3-0.3
		c-0.1-0.1-0.4-0.1-0.5,0l-0.3,0.3c-0.2-0.1-0.4-0.2-0.6-0.3V18c0-0.2-0.2-0.4-0.4-0.4h-0.5c-0.2,0-0.4,0.2-0.4,0.4v0.3
		c-0.2,0-0.3,0.1-0.4,0.2l0,0l-0.3-0.3c-0.2-0.1-0.4-0.1-0.5,0l-0.3,0.3c-0.1,0.1-0.1,0.4,0,0.5l0.3,0.3c-0.2,0.2-0.3,0.5-0.4,0.8
		c0,0,0,0-0.1,0h-0.5c-0.2,0-0.4,0.2-0.4,0.4V21c0,0.2,0.2,0.3,0.4,0.3h0.5c0,0,0,0,0.1,0c0.1,0.2,0.2,0.5,0.3,0.7l-0.3,0.3
		c-0.1,0.1-0.1,0.4,0,0.5l0.3,0.3c0.1,0.1,0.4,0.1,0.5,0l0.3-0.3c0.2,0.1,0.4,0.2,0.6,0.3v0.3c0,0.2,0.2,0.4,0.4,0.4h0.5
		c0.2,0,0.4-0.2,0.4-0.4v-0.3c0.2,0,0.3-0.1,0.4-0.2l0,0l0.3,0.3c0.1,0.1,0.4,0.1,0.5,0l0.3-0.3c0.1-0.1,0.1-0.4,0-0.5L33.4,22
		c0.2-0.2,0.3-0.5,0.4-0.8l0,0h0.5c0.2,0,0.4-0.2,0.4-0.3v-0.5C34.7,20.2,34.6,20.1,34.4,20z M31.5,19.4c0.7,0,1.2,0.5,1.2,1.2
		s-0.5,1.2-1.2,1.2c-0.6,0-1.2-0.5-1.2-1.2S30.8,19.4,31.5,19.4z"/>
</g>
<g>
	<path fill="none" stroke="currentColor" stroke-width="1.5" stroke-miterlimit="10" d="M4.1,12.4L2.2,18v11.6c0,0.7,0.6,1.3,1.3,1.3
		h11.1h0.5h23V8.8c0-0.9-0.7-1.6-1.6-1.6H14.6v4H5.9C5.1,11.1,4.4,11.7,4.1,12.4z M5.5,20.3l1-5.1h5v5.1v2.6h-6V20.3z"/>
	<circle fill="currentColor" cx="29.5" cy="31.2" r="3.9"/>
	<circle fill="currentColor" cx="10.5" cy="31.1" r="3.9"/>
	<path fill="none" stroke="currentColor" stroke-width="1.5" stroke-miterlimit="10" d="M14.6,11.1"/>
</g>
</svg>
