<?xml version="1.0" encoding="utf-8"?>
<svg version="1.1" xmlns="http://www.w3.org/2000/svg" xmlns:xlink="http://www.w3.org/1999/xlink" x="0px" y="0px"
	 viewBox="0 0 40 40" enable-background="new 0 0 40 40" xml:space="preserve">
<g>
	<rect x="6.5" y="15.1" fill="none" stroke="currentColor" stroke-width="1.5" stroke-miterlimit="10" width="13.5" height="18.1"/>
	<path fill="none" stroke="currentColor" stroke-width="1.5" stroke-miterlimit="10" d="M29.6,31.3c0.2-1.6,1.3-3.2,3.4-3.2l0,0v-13H19.6
		v18.1h9.8C29.3,32.5,29.4,31.9,29.6,31.3z"/>
	<polygon fill="none" stroke="currentColor" stroke-width="1.5" stroke-miterlimit="10" points="19.9,15.1 6.4,15.1 2.6,8.5 16.8,8.5 	
		"/>
	<polygon fill="none" stroke="currentColor" stroke-width="1.5" stroke-miterlimit="10" points="19.6,15.1 32.6,15.1 36.4,8.5 22.6,8.5 	
		"/>
	<path fill="currentColor" d="M38.6,30.9h-0.9c-0.1,0-0.1,0-0.1,0c-0.1-0.5-0.3-0.9-0.5-1.3l0.6-0.7c0.3-0.3,0.3-0.7,0-1L37,27.2
		c-0.3-0.3-0.7-0.3-1,0L35.3,28c-0.3-0.2-0.7-0.4-1.1-0.5v-0.6c0-0.4-0.3-0.7-0.7-0.7h-0.9c-0.4,0-0.7,0.3-0.7,0.7v0.6
		c-0.3,0.1-0.6,0.2-0.8,0.3l0,0l-0.7-0.7c-0.3-0.3-0.7-0.3-1,0l-0.7,0.7c-0.3,0.3-0.3,0.7,0,1l0.5,0.5c-0.3,0.5-0.6,0.9-0.7,1.5
		h-0.1h-0.9c-0.4,0-0.7,0.3-0.7,0.7v0.9c0,0.4,0.3,0.7,0.7,0.7h0.9h0.1c0.1,0.5,0.3,0.9,0.5,1.3l-0.6,0.7c-0.3,0.3-0.3,0.7,0,1
		l0.7,0.7c0.3,0.3,0.7,0.3,1,0l0.6-0.7c0.4,0.2,0.7,0.4,1.2,0.5V37c0,0.4,0.3,0.7,0.7,0.7h0.9c0.4,0,0.7-0.3,0.7-0.7v-0.6
		c0.3-0.1,0.6-0.2,0.8-0.3l0,0l0.7,0.7c0.3,0.3,0.7,0.3,1,0l0.7-0.7c0.3-0.3,0.3-0.7,0-1l-0.5-0.5c0.3-0.5,0.6-0.9,0.7-1.5
		c0,0,0,0,0.1,0h0.9c0.4,0,0.7-0.3,0.7-0.7v-0.9C39.2,31.2,38.9,30.9,38.6,30.9z M33,29.6c1.3,0,2.3,1,2.3,2.3c0,1.3-1,2.3-2.3,2.3
		c-1.2,0-2.3-1-2.3-2.3C30.7,30.7,31.8,29.6,33,29.6z"/>
	<rect x="9.9" y="18.8" fill="currentColor" width="2.1" height="2.1"/>
	<rect x="9.9" y="23" fill="currentColor" width="2.1" height="7.3"/>
</g>
</svg>
