<?xml version="1.0" encoding="utf-8"?>
<svg version="1.1" xmlns="http://www.w3.org/2000/svg" xmlns:xlink="http://www.w3.org/1999/xlink" x="0px" y="0px"
	 viewBox="0 0 40 40" enable-background="new 0 0 40 40" xml:space="preserve">
<g>
	<path fill="none" stroke="currentColor" stroke-width="1.5" stroke-miterlimit="10" d="M35.6,6.5H4.4C3.1,6.5,2,7.6,2,8.9v19.9
		c0,1.4,1.1,2.5,2.5,2.5h21.8c0-0.1,0-0.2,0-0.3c0-0.7,0.2-1.3,0.5-1.8c0.2-0.3,0.4-0.5,0.6-0.8c0.3-0.3,0.7-0.6,1.1-0.7
		c0.5-0.3,1.1-0.5,1.8-0.5c1.6,0,2.7,0.9,3.2,2c0.2,0.3,0.4,0.6,0.5,1c0,0.3,0.1,0.7,0.1,1l0,0h1.6c1.4,0,2.5-1.1,2.5-2.5V8.9
		C38,7.6,36.9,6.5,35.6,6.5z"/>
	<path fill="currentColor" d="M14.7,31.3l-5.6,5c-0.7,0.6-1.9,0.1-1.9-0.8v-3c0-0.6,0.5-1.1,1.1-1.1h5h1.4V31.3z"/>
	<circle fill="none" stroke="currentColor" stroke-miterlimit="10" cx="19.5" cy="18" r="7.2"/>
	<circle fill="currentColor" cx="16.2" cy="16.2" r="0.6"/>
	<circle fill="currentColor" cx="22.6" cy="16.2" r="0.6"/>
	<path fill="none" stroke="currentColor" stroke-miterlimit="10" d="M18.1,19.8c-0.5-0.2-1-0.4-1.4-0.6c0,0,0,0,0,0.1
		c0.7,0.6,1.6,0.9,2.6,0.9c1.1,0,2.1-0.4,2.8-1C20.9,19.9,19.5,20.2,18.1,19.8z"/>
	<path fill="currentColor" d="M36.5,30.2h-1c-0.1,0-0.1,0-0.1,0c-0.1-0.5-0.3-1-0.6-1.4l0.7-0.7c0.3-0.3,0.3-0.8,0-1.1l-0.7-0.7
		c-0.3-0.3-0.8-0.3-1.1,0L33,27c-0.4-0.3-0.8-0.4-1.3-0.5v-0.7c0-0.4-0.3-0.8-0.8-0.8h-1c-0.4,0-0.8,0.3-0.8,0.8v0.7
		c-0.3,0.1-0.6,0.2-0.9,0.3l0,0L27.4,26c-0.3-0.3-0.8-0.3-1.1,0l-0.7,0.7c-0.3,0.3-0.3,0.8,0,1.1l0.6,0.6c-0.4,0.5-0.6,1-0.8,1.7
		h-0.1h-1c-0.4,0-0.8,0.3-0.8,0.8v1c0,0.4,0.3,0.7,0.8,0.7h1h0.1c0.1,0.5,0.3,1,0.6,1.4l-0.7,0.7c-0.3,0.3-0.3,0.8,0,1.1l0.7,0.7
		c0.3,0.3,0.8,0.3,1.1,0l0.7-0.7c0.4,0.3,0.8,0.4,1.3,0.5V37c0,0.4,0.3,0.8,0.8,0.8h1c0.4,0,0.8-0.3,0.8-0.8v-0.7
		c0.3-0.1,0.6-0.2,0.9-0.3l0,0l0.7,0.7c0.3,0.3,0.8,0.3,1.1,0l0.7-0.7c0.3-0.3,0.3-0.8,0-1.1l-0.6-0.6c0.4-0.5,0.6-1,0.8-1.7
		c0,0,0,0,0.1,0h1c0.4,0,0.8-0.3,0.8-0.7v-1C37.2,30.5,36.9,30.2,36.5,30.2z M30.3,28.8c1.4,0,2.5,1.2,2.5,2.6S31.6,34,30.3,34
		s-2.5-1.2-2.5-2.6C27.8,29.9,28.9,28.8,30.3,28.8z"/>
</g>
</svg>
