<?xml version="1.0" encoding="utf-8"?>
<svg version="1.1" xmlns="http://www.w3.org/2000/svg" xmlns:xlink="http://www.w3.org/1999/xlink" x="0px" y="0px"
	 viewBox="0 0 40 40" enable-background="new 0 0 40 40" xml:space="preserve">
<g>
	<ellipse fill="none" stroke="currentColor" stroke-width="1.5" stroke-miterlimit="10" cx="16.094" cy="11.724" rx="7.497" ry="7.497"/>
	<path fill="none" stroke="currentColor" stroke-width="1.5" stroke-miterlimit="10" d="M21.839,20.974H10.252
		c-4.576,0-8.276,3.7-8.276,8.374s3.7,8.374,8.276,8.374h11.587c4.576,0,8.276-3.7,8.276-8.374S26.415,20.974,21.839,20.974z"/>
</g>
<path fill="currentColor" d="M38.197,13.963h-1.071c-0.097,0-0.097,0-0.195,0c-0.097-0.487-0.292-0.974-0.584-1.461l0.682-0.682
	c0.292-0.292,0.292-0.779,0-1.071l-0.779-0.779c-0.292-0.292-0.779-0.292-1.071,0l-0.682,0.682
	c-0.389-0.292-0.876-0.389-1.363-0.584V9.387c0-0.389-0.389-0.779-0.779-0.779h-1.071c-0.389,0-0.779,0.389-0.779,0.779v0.682
	c-0.292,0.097-0.584,0.195-0.876,0.292l0,0l-0.779-0.779c-0.292-0.292-0.779-0.292-1.071,0l-0.779,0.779
	c-0.292,0.292-0.292,0.779,0,1.071l0.584,0.584c-0.389,0.487-0.682,1.071-0.779,1.753h-0.097h-1.071
	c-0.389,0-0.779,0.389-0.779,0.779v1.071c0,0.389,0.389,0.779,0.779,0.779h1.071h0.097c0.097,0.487,0.292,0.974,0.584,1.461
	l-0.682,0.682c-0.292,0.292-0.292,0.779,0,1.071l0.779,0.779c0.292,0.292,0.779,0.292,1.071,0l0.682-0.682
	c0.389,0.292,0.876,0.389,1.363,0.584v0.682c0,0.389,0.389,0.779,0.779,0.779h1.071c0.389,0,0.779-0.389,0.779-0.779v-0.682
	c0.292-0.097,0.584-0.195,0.876-0.292l0,0l0.779,0.779c0.292,0.292,0.779,0.292,1.071,0L36.736,20c0.292-0.292,0.292-0.779,0-1.071
	l-0.584-0.584c0.389-0.487,0.682-1.071,0.779-1.753h0.097h1.071c0.389,0,0.779-0.292,0.779-0.779v-1.071
	C38.976,14.353,38.684,13.963,38.197,13.963z M31.965,12.6c1.461,0,2.629,1.168,2.629,2.629s-1.168,2.629-2.629,2.629
	c-1.461,0-2.629-1.168-2.629-2.629C29.336,13.768,30.505,12.6,31.965,12.6z"/>
</svg>
