<?xml version="1.0" encoding="utf-8"?>
<svg version="1.1" xmlns="http://www.w3.org/2000/svg" xmlns:xlink="http://www.w3.org/1999/xlink" x="0px" y="0px"
	 viewBox="0 0 40 40" enable-background="new 0 0 40 40" xml:space="preserve">
<path fill="currentColor" d="M39.099,16.158h-0.777h-0.097c-0.097-0.389-0.194-0.777-0.389-1.069l0.583-0.583
	c0.194-0.194,0.194-0.583,0-0.777l-0.68-0.583c-0.194-0.194-0.583-0.194-0.777,0l-0.583,0.583c-0.292-0.194-0.68-0.292-0.972-0.389
	v-0.486c0-0.292-0.292-0.583-0.583-0.583h-0.777c-0.292,0-0.583,0.292-0.583,0.583v0.486c-0.194,0.097-0.486,0.097-0.68,0.292l0,0
	L32.2,13.049c-0.194-0.194-0.583-0.194-0.777,0l-0.583,0.583c-0.194,0.194-0.194,0.583,0,0.777l0.486,0.486
	c-0.292,0.389-0.486,0.777-0.583,1.263h-0.097h-0.777c-0.292,0-0.583,0.292-0.583,0.583v0.777c0,0.292,0.292,0.583,0.583,0.583
	h0.777h0.097c0.097,0.389,0.194,0.777,0.389,1.069l-0.583,0.583c-0.194,0.194-0.194,0.583,0,0.777l0.583,0.583
	c0.194,0.194,0.583,0.194,0.777,0l0.583-0.583c0.292,0.194,0.68,0.292,0.972,0.389v0.486c0,0.292,0.292,0.583,0.583,0.583h0.777
	c0.292,0,0.583-0.292,0.583-0.583V20.92c0.194-0.097,0.486-0.097,0.68-0.292l0,0l0.583,0.583c0.194,0.194,0.583,0.194,0.777,0
	l0.583-0.583c0.194-0.194,0.194-0.583,0-0.777l-0.486-0.486c0.292-0.389,0.486-0.777,0.583-1.263c0,0,0,0,0.097,0h0.777
	c0.292,0,0.583-0.194,0.583-0.583v-0.777C39.682,16.45,39.391,16.158,39.099,16.158z M34.435,15.089
	c1.069,0,1.944,0.875,1.944,1.944s-0.875,1.944-1.944,1.944c-1.069,0-1.944-0.875-1.944-1.944
	C32.491,15.964,33.366,15.089,34.435,15.089z"/>
<ellipse fill="none" stroke="currentColor" stroke-width="1.5" stroke-miterlimit="10" cx="9.654" cy="15.77" rx="4.47" ry="4.567"/>
<ellipse fill="none" stroke="currentColor" stroke-width="1.5" stroke-miterlimit="10" cx="22.579" cy="11.688" rx="6.997" ry="7.288"/>
<ellipse fill="currentColor" cx="22.674" cy="22.86" rx="1.601" ry="2.134"/>
<ellipse fill="currentColor" cx="22.674" cy="28.92" rx="1.601" ry="4.235"/>
<path fill="none" stroke="currentColor" stroke-width="1.5" stroke-miterlimit="10" d="M13.685,22.789H7.463
	c-3.316,0-6.005,2.688-6.005,6.004v1.034c0,3.316,2.688,6.004,6.005,6.004h4.383c0.328,0,0.643-0.044,0.954-0.102"/>
<path fill="none" stroke="currentColor" stroke-width="1.5" stroke-miterlimit="10" d="M12.422,23.561"/>
<path fill="none" stroke="currentColor" stroke-width="1.5" stroke-miterlimit="10" d="M26.138,37.909h-7.603
	c-4.304,0-7.794-3.489-7.794-7.794v-1.369c0-4.304,3.489-7.794,7.794-7.794h7.603c4.304,0,7.794,3.489,7.794,7.794v1.369
	C33.931,34.419,30.442,37.909,26.138,37.909z"/>
</svg>
