<?xml version="1.0" encoding="utf-8"?>
<svg version="1.1" xmlns="http://www.w3.org/2000/svg" xmlns:xlink="http://www.w3.org/1999/xlink" x="0px" y="0px"
	 viewBox="0 0 40 40" enable-background="new 0 0 40 40" xml:space="preserve">
<g>
	<path fill="none" stroke="currentColor" stroke-width="1.5" stroke-miterlimit="10" d="M27,29.6c-1.5-0.4-0.9-1.6-1.3-3.1
		c-0.4-1.4-0.4-2,0.4-3.2c0.6-0.8,0.1-2.2,1.1-2.5V4.6c0-1.2-1-2.1-2.1-2.1H10.9C7.1,2.5,4,5.6,4,9.4v25.4c0,1.2,1,2.1,2.1,2.1H25
		c1.2,0,2.1-1,2.1-2.1v-5.2C27.1,29.6,27.1,29.6,27,29.6z"/>
	<path fill="currentColor" d="M9.3,10.5H4V8.1c0-3,2.4-5.4,5.4-5.4H11v6.1C11,9.8,10.3,10.5,9.3,10.5z"/>
	<rect x="8.3" y="13.9" fill="currentColor" width="14.9" height="2.7"/>
	<rect x="8.3" y="20.1" fill="currentColor" width="12.7" height="2.6"/>
	<rect x="8.5" y="26.1" fill="currentColor" width="10.9" height="2.8"/>
	<path fill="currentColor" d="M36.4,24.4h-1.2c-0.1,0-0.1,0-0.2,0c-0.1-0.6-0.4-1.1-0.7-1.6l0.8-0.8c0.3-0.3,0.3-0.9,0-1.2L34.3,20
		c-0.3-0.3-0.9-0.3-1.2,0l-0.8,0.8c-0.4-0.3-0.9-0.5-1.5-0.6v-0.8c0-0.5-0.4-0.9-0.9-0.9h-1.2c-0.5,0-0.9,0.4-0.9,0.9v0.8
		c-0.4,0.1-0.7,0.2-1,0.4l0,0l-0.8-1c-0.4-0.3-0.9-0.3-1.2,0L24,20.4c-0.3,0.3-0.3,0.9,0,1.2l0.7,0.7c-0.4,0.6-0.7,1.2-0.9,1.9h-0.1
		h-1.2c-0.5,0-0.9,0.4-0.9,0.9v1.2c0,0.5,0.4,0.8,0.9,0.8h1.2h0.1c0.1,0.6,0.4,1.1,0.7,1.6l-0.8,0.8c-0.3,0.3-0.3,0.9,0,1.2l0.8,0.8
		c0.3,0.3,0.9,0.3,1.2,0l0.8-0.8c0.5,0.3,1,0.5,1.5,0.6v0.8c0,0.5,0.4,0.9,0.9,0.9H30c0.5,0,0.9-0.4,0.9-0.9v-0.8
		c0.4-0.1,0.7-0.2,1-0.4l0,0l0.8,0.8c0.3,0.3,0.9,0.3,1.2,0l0.8-0.8c0.3-0.3,0.3-0.9,0-1.2L34,29c0.4-0.6,0.7-1.2,0.9-1.9
		c0,0,0,0,0.1,0h1.2c0.5,0,0.9-0.4,0.9-0.8v-1.2C37.2,24.8,36.9,24.4,36.4,24.4z M29.3,22.8c1.6,0,2.9,1.3,2.9,2.9s-1.3,2.9-2.9,2.9
		s-2.9-1.3-2.9-2.9S27.7,22.8,29.3,22.8z"/>
</g>
</svg>
