<?xml version="1.0" encoding="utf-8"?>
<!-- Generator: Adobe Illustrator 25.2.0, SVG Export Plug-In . SVG Version: 6.00 Build 0)  -->
<svg version="1.1" id="Layer_1" xmlns="http://www.w3.org/2000/svg" xmlns:xlink="http://www.w3.org/1999/xlink" x="0px" y="0px"
	 viewBox="0 0 65 65" style="enable-background:new 0 0 65 65;" xml:space="preserve">
<style type="text/css">
	.st0{fill:#F3F3F3;}
</style>
<path class="st0" d="M56.2,26.9c0-13.4-10.7-24.2-24-24.2s-24,10.9-24,24.2c0,0.7,0,1.4,0.1,2.1l0,0c1.3,6.9,6.8,13.7,6.8,13.7
	l25-12.5h3.6L20.9,43.4l-0.2,6.3l25-17.3h2.6L27.5,49.3v6.9l21.4-21l2.4-0.1L32.7,55.5l0.7,7.1L46.9,46c8.3-10.5,8.7-13.7,8.7-13.7
	C56,30.5,56.2,28.7,56.2,26.9z"/>
<g>
</g>
<g>
</g>
<g>
</g>
<g>
</g>
<g>
</g>
<g>
</g>
<g>
</g>
<g>
</g>
<g>
</g>
<g>
</g>
<g>
</g>
</svg>
