<?xml version="1.0" encoding="utf-8"?>
<!-- Generator: Adobe Illustrator 25.2.0, SVG Export Plug-In . SVG Version: 6.00 Build 0)  -->
<svg version="1.1" id="Layer_1" xmlns="http://www.w3.org/2000/svg" xmlns:xlink="http://www.w3.org/1999/xlink" x="0px" y="0px"
	 viewBox="0 0 300 62" style="enable-background:new 0 0 300 62;" xml:space="preserve">
<style type="text/css">
	.st0{fill:#F3F3F3;}
</style>
<path class="st0" d="M49.2,25.7c0-13.4-10.7-24.2-24-24.2s-24,10.9-24,24.2c0,0.7,0,1.4,0.1,2.1l0,0c1.3,6.9,6.8,13.7,6.8,13.7
	l25-12.5h3.6L13.9,42.2l-0.2,6.3l25-17.3h2.6L20.5,48.2v6.9l21.4-21l2.4-0.1L25.8,54.4l0.7,7.1l13.5-16.6
	c8.3-10.5,8.7-13.7,8.7-13.7C49,29.4,49.2,27.6,49.2,25.7z"/>
<path class="st0" d="M86.7,30l1.5,4.6h-8.3l3.9-11.6l0.2-0.7l2.8-9.1h-7.5L67.2,46.8h8.6l2-5.9h12.5l2,5.9h8.7L90.2,17L86.7,30z"/>
<path class="st0" d="M127.9,15.1c2.7,1.4,4.7,3.4,6.2,5.9c1.5,2.6,2.2,5.5,2.2,8.8c0,3.3-0.7,6.2-2.2,8.8c-1.5,2.6-3.5,4.6-6.2,6
	c-2.7,1.4-5.8,2.1-9.3,2.1h-12.6V13h12.6C122.1,13,125.2,13.7,127.9,15.1z M125.3,37.1c1.7-1.7,2.6-4.1,2.6-7.2
	c0-3.1-0.9-5.5-2.6-7.3c-1.7-1.7-4.1-2.6-7.3-2.6h-3.9v19.7h3.9C121.1,39.6,123.6,38.8,125.3,37.1z"/>
<path class="st0" d="M162.8,15.1c2.7,1.4,4.7,3.4,6.2,5.9c1.5,2.6,2.2,5.5,2.2,8.8c0,3.3-0.7,6.2-2.2,8.8c-1.5,2.6-3.5,4.6-6.2,6
	c-2.7,1.4-5.8,2.1-9.3,2.1h-12.6V13h12.6C157,13,160.1,13.7,162.8,15.1z M160.2,37.1c1.7-1.7,2.6-4.1,2.6-7.2c0-3.1-0.9-5.5-2.6-7.3
	c-1.7-1.7-4.1-2.6-7.3-2.6h-3.9v19.7h3.9C156.1,39.6,158.5,38.8,160.2,37.1z"/>
<path class="st0" d="M193,46.8L186,34h-2v12.8h-8.2V13h13.8c2.7,0,4.9,0.5,6.8,1.4c1.9,0.9,3.3,2.2,4.2,3.8c0.9,1.6,1.4,3.4,1.4,5.4
	c0,2.2-0.6,4.3-1.9,6c-1.3,1.8-3.1,3-5.6,3.8l7.8,13.4L193,46.8L193,46.8z M184,28.2h5.1c1.5,0,2.6-0.4,3.4-1.1
	c0.8-0.7,1.1-1.8,1.1-3.1c0-1.3-0.4-2.3-1.1-3c-0.8-0.7-1.9-1.1-3.4-1.1H184V28.2z"/>
<path class="st0" d="M215.3,19.6v6.8h11v6.4h-11v7.4h12.4v6.6h-20.7V13h20.7v6.6H215.3z"/>
<path class="st0" d="M238.6,45.9c-2-0.8-3.5-2-4.7-3.6c-1.2-1.6-1.8-3.5-1.9-5.7h8.7c0.1,1.3,0.6,2.2,1.3,2.9c0.7,0.7,1.7,1,2.9,1
	c1.2,0,2.2-0.3,2.9-0.8c0.7-0.6,1.1-1.3,1.1-2.3c0-0.8-0.3-1.5-0.8-2.1c-0.6-0.5-1.2-1-2.1-1.4c-0.8-0.4-2-0.8-3.5-1.2
	c-2.2-0.7-4-1.4-5.3-2c-1.4-0.7-2.6-1.7-3.6-3c-1-1.3-1.5-3-1.5-5.2c0-3.1,1.1-5.6,3.4-7.4c2.3-1.8,5.2-2.7,8.9-2.7
	c3.7,0,6.7,0.9,9,2.7c2.3,1.8,3.5,4.3,3.7,7.4h-8.9c-0.1-1.1-0.5-1.9-1.2-2.6c-0.7-0.6-1.7-0.9-2.8-0.9c-1,0-1.8,0.3-2.4,0.8
	c-0.6,0.5-0.9,1.3-0.9,2.3c0,1.1,0.5,1.9,1.5,2.6c1,0.6,2.6,1.3,4.8,2c2.2,0.7,3.9,1.4,5.3,2.1c1.4,0.7,2.5,1.7,3.5,2.9
	c1,1.3,1.5,2.9,1.5,5c0,1.9-0.5,3.7-1.5,5.2c-1,1.6-2.4,2.8-4.3,3.8c-1.9,0.9-4.1,1.4-6.6,1.4C242.8,47.1,240.6,46.7,238.6,45.9z"/>
<path class="st0" d="M286.9,13v6.6h-8.9v27.2h-8.2V19.6h-8.9V13H286.9z"/>
<path class="st0" d="M299.2,13v33.8H291V13H299.2z"/>
<g>
</g>
<g>
</g>
<g>
</g>
<g>
</g>
<g>
</g>
<g>
</g>
<g>
</g>
<g>
</g>
<g>
</g>
<g>
</g>
<g>
</g>
</svg>
